<svg xmlns="http://www.w3.org/2000/svg" version="1.0" viewBox="0 0 1133.857 1133.858"><path fill="#000000" d="M593.676,675.929h-366v-495h366V675.929z M233.676,669.929h354v-483h-354V669.929z"/><path fill="#424c47" d="M405.644,526.633c-67.019,0-121.542-54.523-121.542-121.542s54.523-121.542,121.542-121.542 s121.543,54.524,121.543,121.542S472.662,526.633,405.644,526.633z M405.644,289.549c-63.71,0-115.542,51.832-115.542,115.542 c0,63.71,51.832,115.542,115.542,115.542c63.711,0,115.543-51.832,115.543-115.542 C521.187,341.381,469.354,289.549,405.644,289.549z"/><path fill="#000000" d="M403.644,553.633c-67.019,0-121.542-54.523-121.542-121.542s54.523-121.542,121.542-121.542 s121.543,54.524,121.543,121.542S470.662,553.633,403.644,553.633z M403.644,316.549c-63.71,0-115.542,51.832-115.542,115.542 c0,63.71,51.832,115.542,115.542,115.542c63.711,0,115.543-51.832,115.543-115.542 C519.187,368.381,467.354,316.549,403.644,316.549z"/><circle cx="355.387" cy="540.348" r="79.286" fill="#424c47"/><circle cx="364.387" cy="538.348" r="79.286" fill="#000000"/><path fill="#000000" d="M749.751,341.257c-10.403,26.074-23.168,42.273-34.7,48.728l-0.873,0.089l-5.224-38l34.678-42.509 L749.751,341.257z"/><path fill="#ebeff0" d="M763.769,326.39c-1.008,8.58-7.271,13.278-13.828,15.851l5.382,27.854l3.009,15.583l-43.28,4.307 c11.343-6.343,23.872-22.138,34.175-47.465c-2.203,0.806-4.419,1.388-6.467,1.802c-17.283,36.311-39.052,48.403-51.502,36.837 c-18.939-17.574-20.214-42.889-17.686-61.716c1.979-14.755,6.297-25.539,6.297-25.539c36.367-52.732,87.658-16.813,77.043,21.445 C761.229,315.717,764.718,318.346,763.769,326.39z"/><path fill="#ebeff0" d="M668.683,947.197c0.369,3.602,0.593,6.791,0.683,9.621c-31.983,12.406-41.212-3.882-43.562-10.459 c7.865-3.546,13.793-5.873,13.793-5.873l4.072-41.435l36.021,8.949C675.193,924.779,671.278,938.896,668.683,947.197z"/><path fill="#000000" d="M669.365,956.817c0.794,22.675-6.276,22.126-6.276,22.126s-42.353-1.465-54.814-0.425 c-13.424,1.119-24.609,5.593-20.863-6.712c2.428-7.998,23.771-18.837,38.393-25.449 C628.153,952.935,637.382,969.223,669.365,956.817z"/><path fill="#2e3833" d="M834.243,635.093l-118.578,132.56c0,0-21.108,84.783-35.975,140.346l-36.021-8.949l13.48-136.934 c0,0,34.051-124.786,60.898-175.125s78.161-31.322,78.161-31.322s17.898-23.492,49.22,7.831 C876.752,594.821,834.243,635.093,834.243,635.093z"/><path fill="#ebeff0" d="M614.114,357.466c0,0-29.61,34.164-38.27,43.728c-20.695-29.075-40.227-58.685-36.926-62.544 c6.711-7.831,24.609-29.085,24.609-29.085L614.114,357.466z"/><path fill="#000000" d="M777.036,450.515c-40.43,14.542-157.295,10.068-157.295,10.068s-22.563-29.41-43.896-59.389 c8.659-9.564,38.27-43.728,38.27-43.728l38.906,36.826l105.523-6.052C775.794,393.934,817.464,435.973,777.036,450.515z"/><path fill="#FFF" d="M678.571,737.45h-0.626c0.19-0.112,0.356-0.235,0.547-0.336c0-0.011,0.013-0.011,0.013-0.011l0.045,0.246 L678.571,737.45z"/><path fill="#000000" d="M696.648,800.374c-5.392,8.95-82.78,16.366-82.78,16.366s-9.498-6.924,5.873-16.992 c6.902-4.52,13.703-9.654,19.096-13.927c10.291,1.554,47.174,6.242,52.477-6.052C695.563,786.636,699.624,795.43,696.648,800.374z"/><path fill="#ebeff0" d="M691.313,779.768c-5.303,12.294-42.186,7.606-52.477,6.052c0.369-0.303,0.727-0.593,1.085-0.873 c5.996-4.81,10.001-8.345,10.001-8.345l-17.037-37.128l-0.225-0.021l-0.445-0.524h45.729c0.044-1,0.101-1,0.146-1h0.48 l5.771,32.201c0,0,3.211,3.795,6.488,8.975C690.989,779.363,691.155,779.511,691.313,779.768z"/><polygon fill="#000000" points="619.675 554.477 619.599 554.448 619.903 553.494"/><path fill="#424c47" d="M854.021,534.974c6.399,20.213,9.609,39.387,8.189,56.491c-1.466,17.642-5.84,27.59-19.275,33.25 c-17.227,7.271-49.354,7.214-109.371,8.214h-23.491c-33.56,0-50.339,0-50.339,0l18.748,104.658l-0.403-0.174l-0.402-0.075v0.045 c0,0.011,0.27,0.022,0.324,0.011c-0.1,0-0.011,0.281-0.122,0.516c-0.045,0.101,0.111,0.02,0.067,1.02h-45.988l-0.156-1.02 l-0.056-0.409l-55.978-122.288c0,0-17.083-39.286,43.974-49.332c40.014-6.577,101.787-12.377,101.787-12.377 s-39.623-95.105-34.947-118.597c4.676-23.492,19.016-51.49,57.051-53.728c0,0,0-0.011,0.012-0.011 c0.392,0.045,8.133,0.996,19.117,6.602c9.756,6.197,23.559,17.887,42.096,39.835c0.011,0.011,0.021,0.033,0.033,0.045 c43.93,51.972,72.287,76.862,85.063,97.088C874.659,527.054,862.468,531.282,854.021,534.974z"/><path fill="#000000" d="M755.322,370.095l-5.382-27.854c6.557-2.573,12.82-7.271,13.828-15.851 c0.949-8.044-2.539-10.673-6.857-11.042c10.615-38.258-40.676-74.177-77.043-21.445c0,0-4.318,10.784-6.297,25.539 c-7.182-2.338-11.892-4.15-11.892-4.15s2.752-44.881,38.437-54.949c35.686-10.068,64.771,4.475,71.482,24.61 c21.254,17.899,51.458,41.391,54.814,60.408C806.276,350.955,753.577,361.045,755.322,370.095z"/><path fill="#f39200" d="M816.323,655.116c0.066-0.089,0.256-0.313,0.58-0.682c-0.021,0.056-0.066,0.111-0.111,0.168 C816.546,654.893,816.378,655.049,816.323,655.116z"/><path fill="#000000" d="M842.935,624.715c-5.447,6.22-22.596,25.804-26.031,29.775c1.958-4.609-77.008-17.561-106.831-21.561 h23.491C793.581,631.929,825.708,631.986,842.935,624.715z"/><path fill="#000000" d="M661.68,315.292c0,0,48.274,19.162,75.245,13.396c6.707-19.124,9.768-25.091,7.121-34.786 c-2.646-9.695-2.644,29.938,12.865,21.445c15.508-8.493-1.773-56.497-27.66-52.768s-53.113,17.01-56.652,33.489 C669.06,312.547,661.68,315.292,661.68,315.292z"/><path fill="#000000" d="M757.933,277.496c0,0,38.568-25.783,36.746-15.129S790.127,287.937,757.933,277.496z"/><path fill="#000000" d="M637.473,563.145c0,0-30.726,5.295-33.871,6.465c0,0,66.199,27.449,85.216,19.619"/><path fill="#ebeff0" d="M639.139,495.429c0,0-13.983,60.609-19.308,58.573c-36.111-18.804-72.557-38.56-70.845-40.842 c3.356-4.475,16.78-43.627,16.78-43.627L639.139,495.429z"/><path fill="#000000" d="M772.718,472.888c-31.324,76.068-83.9,116.34-83.9,116.34s-34.342-17.171-68.986-35.227 c5.324,2.036,19.308-58.573,19.308-58.573l40.729,14.375c0,0-1.891-28.122,1.947-48.157c9.441-50.284,27.139-67.791,27.139-67.791 C735.376,371.75,804.04,396.82,772.718,472.888z"/><path fill="#000000" d="M729.245,547.211c0,0,18.357,4.743,42.174,6.063c-1.543,4.061-3.098,8.232-4.686,12.484 c-34.836,5.425-67.457,14.363-67.457,14.363L729.245,547.211z"/><path fill="#000000" d="M885.701,543.576c-7.987,4.273-20.046,8.088-24.677,9.464c-0.013,0.012-0.023,0.022-0.034,0.012 c-0.011,0.01-0.022,0.021-0.045,0.01c-0.005,0.006-0.013,0.003-0.018,0.006c0.036-0.008,0.038-0.008-0.017,0.005 c-0.055,0.034-0.122,0.045-0.18,0.056c-0.01,0.011-0.01,0.011-0.021,0.011c-0.213,0.067-0.402,0.123-0.57,0.167 c-0.078,0.034-0.156,0.057-0.225,0.068c-0.021,0.011-0.055,0.021-0.078,0.021c-0.066,0.023-0.145,0.045-0.223,0.068 c-0.022,0.01-0.057,0.022-0.078,0.022c-0.09,0.033-0.168-0.267-0.225-0.255c-0.029,0.008-0.044-0.303-0.066-0.303 c-0.002,0-0.003,0-0.003,0c-0.072,0-0.12,0-0.12,0s-0.012,0-0.023,0c0.012,0,0.023,0.273,0.023,0.273s16.623-4.596,26.69-9.965 c3.87-2.069,5.84-9.009,5.168-15.173C892.022,534.117,889.627,541.484,885.701,543.576z"/><path fill="#000000" d="M885.813,543.408c-10.067,5.37-26.69,10.135-26.69,10.135s-0.012,0.044-0.023,0.067 c-0.794,0.201-22.305,5.481-64.422,8.771c-9.084,0.704-18.593,1.912-27.943,3.378c1.588-4.252,3.143-8.424,4.686-12.484 c26.592,1.476,59.961-1.321,82.188-19.734c25.651-21.243,35.696-14.923,37.363-5.492c0.011,0.034,0.011,0.067,0.011,0.101 C891.652,534.313,889.683,541.338,885.813,543.408z"/><path fill="#2e3833" d="M771.419,553.275c4.979-13.156,9.699-25.304,14.039-36.223c12.35-31.031,15.527-64.166,13.178-96.651 c2.014,2.271,4.094,4.665,6.231,7.204c0.011,0.011,0.044,0.033,0.056,0.045c42.118,49.824,69.938,74.35,83.418,94.161 c0.672,0.739,1.286,2.119,1.723,2.119h0.112c0.392,2,0.649,2.613,0.794,3.912c-1.667-9.431-11.712-15.647-37.363,5.595 C831.38,551.85,798.011,554.75,771.419,553.275z"/><path fill="#2e3833" d="M912.521,666.673l0.154,0.212c0,0.011,0,0.011,0,0.011c-3,23.101-5.557,46.15-9.359,68.814l-16.575-63.78 h-84.514l-77.467,86.832l-10.572,41.168H890.69c-1.008,4-2.037,9-3.076,13H710.61l-41.201,149.299 c-0.213,12.193-3.133,15.232-4.922,16.283c-0.995,1.847-2.383,3.159-3.926,3.707c-6.857-86.147,59.009-290.009,106.172-416.46 c9.351-1.467,18.859-2.673,27.943-3.378c42.117-3.289,63.628-8.569,64.422-8.769c0,0.021-0.01,0.034-0.01,0.034 c0.525,2.338,0.973,4.665,1.252,6.622c1.969,10.985,2.686,21.645,1.869,31.468c-1.443,17.429-5.75,27.563-18.828,33.257 c-2.707,3.669-5.246,6.938-6.957,8.938h51.727l25.359-103.151c4.486,43.236,3.502,89.515-1.029,135.705 c-0.033,0.033,0.01,0.072-0.024,0.106L912.521,666.673z"/><path fill="#2e3833" d="M912.37,666.594c0.033-0.034,0.078-0.067,0.111-0.101c-0.012,0.134-0.033,0.268-0.045,0.391 L912.37,666.594z"/><path fill="#2e3833" d="M826.413,345.362c-2.809,0.783-6.513,1.644-10.351,2.584c-8.602,2.103-19.387,4.575-29.387,7.25v-0.012 c-10-35.383-22.932-67.309-34.824-91.417c4.945,2.584,9.27,5.795,12.592,9.464c10.952-6.835,31.512-18.704,30.168-10.862 c-1.564,9.184-3.793,21.512-24.992,18.066c0.773,1.466,1.448,2.976,1.964,4.519C792.837,302.853,823.057,326.345,826.413,345.362z"/><path fill="#ffd423" d="M960.45,412.148c-9.214-2.749-18.709,3.329-21.208,13.466l-51.087,207.315h-197.18 c-9.547,0-17.285,8.496-17.285,19c0,10.504,7.738,19,17.285,19h208.151c8.437,1,16.599-4.663,18.888-13.951l54.59-221.459 C975.104,425.382,969.661,414.899,960.45,412.148z"/><path fill="#000000" d="M981.556,969.021l-71.83-313.981c-1.226-5.368-15.963-3.026-19.642-1.233 c-3.677,1.791-5.665,7.246-4.437,12.614l34.031,131.509H714.19l34.032-131.509c1.229-5.368-0.759-10.998-4.438-12.79 c-3.677-1.791-18.414-4.045-19.642,1.322l-71.83,314.024c-1.229,5.368,0.76,11.193,4.438,12.985 c3.68,1.791,7.656-1.143,8.883-6.51l44.972-163.522h212.659l44.97,163.533c1.229,5.367,5.206,8.29,8.885,6.498 S982.784,974.388,981.556,969.021z"/><path fill="#ebeff0" d="M688.817,590.728c-0.231,0-0.464-0.053-0.68-0.163l-52.625-26.749c-0.738-0.376-1.033-1.278-0.657-2.017 c0.374-0.739,1.276-1.033,2.017-0.658l51.686,26.272c5.364-5.063,37.444-35.676,49.969-55.234c0.353-0.55,1.021-0.81,1.652-0.64 c0.51,0.138,51.235,13.543,75.417,0.137c7.641-4.235,14.521-8.908,20.591-13.031c14.353-9.747,25.693-17.445,38.809-14.917 c0.813,0.157,1.346,0.944,1.188,1.757c-0.156,0.813-0.948,1.345-1.757,1.188c-11.897-2.293-22.779,5.097-36.555,14.453 c-6.122,4.159-13.063,8.871-20.821,13.173c-23.55,13.053-68.881,2.371-76.593,0.413c-14.229,21.605-49.119,54.216-50.618,55.613 C689.556,590.59,689.188,590.728,688.817,590.728z"/><path fill="#ebeff0" d="M652.747,978.475c-0.106,0-0.215-0.011-0.324-0.035c-0.809-0.179-1.319-0.98-1.141-1.789l68.244-308.179 c0.18-0.809,0.974-1.319,1.789-1.14c0.809,0.179,1.319,0.979,1.141,1.789l-68.244,308.179 C654.057,978,653.437,978.475,652.747,978.475z"/><path fill="#ebeff0" d="M860.341,561.649c-0.732,0-1.374-0.537-1.482-1.284c-1.384-9.509-6.624-26.209-6.678-26.377 c-0.248-0.79,0.191-1.632,0.981-1.881c0.794-0.25,1.633,0.19,1.881,0.98c0.218,0.693,5.365,17.097,6.784,26.846 c0.119,0.82-0.448,1.581-1.269,1.7C860.485,561.645,860.413,561.649,860.341,561.649z"/><path fill="#ebeff0" d="M673.692,320.12c-0.052,0-0.104-0.002-0.157-0.008c-0.824-0.086-1.423-0.823-1.337-1.647 c0.143-1.363,3.721-33.512,24.782-44.415c0.737-0.381,1.642-0.094,2.021,0.643c0.38,0.735,0.094,1.641-0.643,2.021 c-19.639,10.167-23.144,41.743-23.177,42.062C675.102,319.546,674.451,320.12,673.692,320.12z"/><path fill="#ebeff0" d="M816.324,348.929c-0.018,0-0.035,0-0.053,0c-0.828,0-1.476-0.463-1.447-1.291 c0.239-6.91-20.87-29.498-35.117-43.082c-0.6-0.572-0.622-1.456-0.051-2.056c0.573-0.6,1.521-0.589,2.121-0.019 c3.728,3.555,36.407,34.78,36.045,45.243C817.794,348.536,817.129,348.929,816.324,348.929z"/><path fill="#ebeff0" d="M779.202,356.879c-0.08,0-0.162-0.006-0.244-0.02c-0.817-0.134-1.372-0.905-1.238-1.722 c2.646-16.19-6.271-35.692-6.361-35.887c-0.348-0.751-0.021-1.644,0.73-1.991c0.749-0.349,1.643-0.021,1.992,0.73 c0.385,0.831,9.393,20.542,6.6,37.632C780.561,356.357,779.924,356.879,779.202,356.879z"/><path fill="#ebeff0" d="M684.994,324.505c-0.069,0-0.14-0.005-0.211-0.015c-0.82-0.116-1.392-0.874-1.276-1.695 c0.137-0.969,3.453-23.816,13.232-31.557c0.648-0.515,1.592-0.405,2.105,0.245c0.516,0.65,0.406,1.593-0.244,2.107 c-8.848,7.005-12.092,29.398-12.123,29.624C686.372,323.962,685.729,324.505,684.994,324.505z"/><path fill="#ebeff0" d="M691.331,540.018c-0.634,0-1.223-0.405-1.428-1.039c-4.492-13.916-11.322-28.388-11.391-28.533 c-0.252-0.532-0.17-1.162,0.211-1.611s0.989-0.635,1.554-0.473c1.049,0.296,25.725,7.4,30.058,17.638 c0.323,0.763-0.033,1.644-0.796,1.966c-0.767,0.324-1.646-0.035-1.967-0.796c-2.728-6.444-16.862-12.272-24.944-14.943 c2.27,5.051,6.823,15.585,10.131,25.83c0.254,0.789-0.18,1.634-0.967,1.889C691.639,539.994,691.483,540.018,691.331,540.018z"/><path fill="#000000" d="M660.79,634.405l-1.38-1.168c-8.941-7.569-24.168-19.192-27.026-18.18l-0.336-0.941 c3.834-1.376,21.166,12.658,26.597,17.175c-1.939-5.315-8.074-21.169-12.847-22.947l0.351-0.938 c6.155,2.294,13.738,24.351,14.059,25.288L660.79,634.405z"/><path fill="#000000" d="M684.994,358.966c-0.067,0-0.137-0.005-0.205-0.015l-0.387-0.052c-2.631-0.354-5.613-0.756-7.175-3.21 c-1.197-1.881-1.226-4.56-0.088-8.188c2.548-8.123,1.257-17.423,1.244-17.517c-0.119-0.819,0.451-1.58,1.271-1.698 c0.812-0.115,1.581,0.45,1.698,1.27c0.059,0.406,1.406,10.054-1.35,18.843c-0.846,2.694-0.928,4.606-0.244,5.681 c0.813,1.277,2.964,1.567,5.044,1.847l0.392,0.054c0.822,0.112,1.396,0.868,1.283,1.689 C686.375,358.421,685.731,358.966,684.994,358.966z"/><path fill="#000000" d="M747.826,338.5c-0.646,0-1.242-0.421-1.437-1.072c-0.924-3.098-0.668-5.963,0.762-8.515 c2.992-5.341,10.096-7.279,10.396-7.359c0.807-0.213,1.623,0.265,1.834,1.064c0.213,0.801-0.263,1.622-1.063,1.834 c-0.109,0.03-6.204,1.723-8.556,5.937c-1.027,1.84-1.19,3.861-0.498,6.181c0.236,0.793-0.215,1.629-1.008,1.866 C748.113,338.479,747.969,338.5,747.826,338.5z"/><path fill="#ebeff0" d="M601.724,347.632c0,0-45.113-45.241-51.298-50.375c-6.191-5.132-7.681-10.438-7.406-19.353 c0.275-8.915-11.702-8.174-12.177,3.661c-0.277,6.887,0.484,8.964,1.174,9.5c-2.105,0.123-7.02,0.805-7.432,4.411 c0,0-10.854-8.846-18.072,4.471c-7.221,13.316-6.007,14.476-8.859,18.129c-2.854,3.653-1.626,10.345,1.631,12.046 c3.262,1.702-6.477,1.985,0.912,10.214c7.382,8.233,5.693,3.965,19.9,10.275c14.211,6.316,15.147,10.799,25.692,8.159 c10.55-2.634,13.622,1.898,13.622,1.898l13.926,19.016C573.337,379.685,603.533,375.593,601.724,347.632z M523.831,333.037 c-4.748,2.316-14.431,0.457-17.641-3.386c0,0,7.621-6.069,9.015-13.333s3.336-6.17,5.72-1.77 C523.308,318.95,528.579,330.721,523.831,333.037z"/><path fill="#ebeff0" d="M622.004,489.775l-46.457-20.013c0,0-5.94-26.947-30.445-29.207c-24.506-2.262-17.033,14.156-17.033,14.156 s-40.187-14.942-41.316-2.688c-1.13,12.252,10.214,11.051,12.64,15.208c2.425,4.155-14.608,18.311-1.369,39.191 c13.238,20.879,38.566,14.229,54.469,12.326c15.902-1.903,52.422,28.428,52.422,28.428S648.19,522.521,622.004,489.775z"/><path fill="#000000" d="M504.121,490.511c-0.165,0-0.332-0.028-0.496-0.085c-4.401-1.542-7.233-3.991-8.417-7.279 c-1.893-5.255,1.258-10.577,1.394-10.802c0.428-0.711,1.351-0.937,2.059-0.51c0.709,0.428,0.937,1.348,0.512,2.058 c-0.06,0.1-2.542,4.38-1.136,8.255c0.867,2.389,3.081,4.222,6.581,5.448c0.782,0.274,1.193,1.129,0.92,1.912 C505.32,490.124,504.74,490.51,504.121,490.511z"/><path fill="#000000" d="M504.407,505.701c-0.063,0-0.123-0.004-0.185-0.011c-5.256-0.646-9.005-2.811-11.144-6.435 c-4.431-7.507-0.12-18.443,0.065-18.905c0.31-0.768,1.183-1.141,1.949-0.832c0.769,0.309,1.142,1.181,0.835,1.95 c-0.04,0.1-3.945,10.041-0.264,16.27c1.643,2.775,4.645,4.45,8.923,4.975c0.822,0.101,1.407,0.849,1.306,1.671 C505.801,505.145,505.154,505.701,504.407,505.701z"/><path fill="#000000" d="M511.462,333.061c-1.215,1.086-3.691,0.296-5.531-1.763l0,0c-1.84-2.06-2.346-4.608-1.131-5.694 l58.084-51.89c1.215-1.085,3.691-0.297,5.531,1.763l0,0c1.842,2.06,2.346,4.609,1.131,5.696L511.462,333.061z"/><path fill="#000000" d="M486.229,356.64c-0.393,0.353-2.203-1.032-4.043-3.091l0,0c-1.84-2.06-3.012-4.014-2.618-4.365 l18.804-16.798c0.393-0.352,2.203,1.032,4.043,3.093l0,0c1.84,2.059,3.013,4.013,2.619,4.365L486.229,356.64z"/><polygon fill="#000000" points="230.676 671.929 230.676 225.929 197.676 225.929 197.676 671.997 197.676 697.997 197.676 704.929 586.676 704.929 586.676 671.929"/><polygon fill="#000000" points="284.88 976.929 268.88 976.929 307.88 673.929 335.88 673.929"/><polygon fill="#000000" points="351.88 982.929 335.88 982.929 392.88 683.929 420.88 683.929"/><polygon fill="#000000" points="554.88 976.929 570.88 976.929 531.88 673.929 503.88 673.929"/><rect width="216" height="11" x="312.676" y="776.929" fill="#000000"/><path fill="#000000" d="M363.676,262.429c0,6.351-5.148,11.5-11.5,11.5h-165c-6.352,0-11.5-5.149-11.5-11.5l0,0 c0-6.351,5.148-11.5,11.5-11.5h165C358.527,250.929,363.676,256.078,363.676,262.429L363.676,262.429z"/><path fill="#FFF" d="M400.183,563.94l-22.389-22.39l22.443-22.443c2.244-2.245,1.021-7.107-2.652-10.782 c-3.676-3.675-8.539-4.897-10.783-2.651l-22.443,22.442l-22.497-22.498c-2.245-2.245-7.108-1.022-10.782,2.652 c-3.676,3.675-4.898,8.538-2.652,10.783l22.496,22.497l-22.443,22.443c-2.244,2.246-1.021,7.109,2.652,10.783 c3.676,3.675,8.538,4.897,10.783,2.653l22.443-22.444l22.391,22.39c2.244,2.245,7.107,1.022,10.781-2.653 C401.206,571.048,402.429,566.185,400.183,563.94z"/><path fill="#000000" d="M466.676,190.929c0,7.732-6.268,14-14,14h-64c-7.732,0-14-6.268-14-14l0,0c0-7.732,6.268-14,14-14h64 C460.408,176.929,466.676,183.197,466.676,190.929L466.676,190.929z"/></svg>