<svg xmlns="http://www.w3.org/2000/svg" viewBox="0 0 1133.857 1133.858"><path fill="#424c47" d="M886.307,585.481c0.456-1.098,0.925-2.199,1.409-3.293c0.29,0.022,0.58,0.043,0.874,0.075 C888.275,583.452,887.537,584.575,886.307,585.481z"/><path fill="#424c47" d="M339.006,969.301c-10.293,9.1-21.096,20.005-34.297,24.729c21.723-43.267,144.46-272.357,352.874-369.66 c-10.157,18.242-17.345,38.373-23.095,58.282c-10.874,37.675-15.946,76.608-24.994,114.69 c-46.924,23.947-92.772,49.945-136.99,78.563c-31.609,20.46-63.5,40.529-94.129,62.485 C364.784,948.139,351.54,958.227,339.006,969.301z"/><path fill="#424c47" d="M646.969,689.541c7.079-25.831,17-53.014,33.189-75.01c0,0,0,0,0.004-0.008 c5.41-2.532,11.576-4.604,17.475-6.747c-12.848,25.604-24.152,51.972-33.567,79.056c-9.084,26.112-16.743,52.916-21.081,80.265 c-0.667,4.231-1.859,9.053-1.609,13.395c0.018,0.297,0.055,0.596,0.125,0.891c-5.315,2.59-10.618,5.197-15.908,7.841 C632.893,756.023,637.953,722.367,646.969,689.541z"/><path fill="#424c47" d="M557.156,936.802c13.171,18.298,27.78,35.544,43.579,51.636 c-124.527,33.906-230.327,32.059-286.647,16.738c18.506-8.457,32.518-25.358,48.355-37.607 c23.101-17.883,47.244-34.332,71.681-50.313c26.696-17.472,53.483-34.731,80.691-51.283c1.669,3.414,3.386,6.791,5.136,10.163 c3.571,6.895,7.316,13.71,11.199,20.438C539.121,910.425,547.817,923.842,557.156,936.802z"/><path fill="#424c47" d="M702.833,628.742c4.354-9.235,8.915-18.366,13.683-27.394c47.351-14.972,98.472-22.744,153.217-20.312 c-4.057,4.443-7.229,9.805-9.924,15.022c-5.809,11.294-9.666,23.635-13.234,35.77c-6.609,22.493-10.621,46.461-18.451,68.331 c-16.344,6.578-32.618,13.348-48.895,20c-41.541,16.979-82.75,34.953-123.312,54.298c0.212-1.561,0.445-3.122,0.694-4.676 c1.654-10.566,3.904-21.04,6.459-31.423C672.352,700.538,686.252,663.933,702.833,628.742z"/><path fill="#424c47" d="M724.813,904.342c8.044,9.649,16.245,19.172,24.483,28.661c-45.627,21.853-90.436,38.595-133.233,51.113 c-16.502-16.237-31.692-33.712-45.442-52.403c-8.862-12.027-17.042-24.554-24.698-37.377c-3.713-6.219-7.251-12.538-10.694-18.901 c-1.722-3.202-3.411-6.43-5.074-9.666c-0.563-1.089-1.112-2.184-1.659-3.285c0.834-1.54,1.07-3.316,0.388-4.975 c17.402-10.367,34.998-20.42,52.88-30.029c16.822-9.043,33.807-17.774,50.931-26.241c18.203,12.385,32.646,30.439,46.36,47.361 C694.201,867.275,709.422,885.864,724.813,904.342z"/><path fill="#424c47" d="M711.422,764.325c46.88,36.165,87.368,81.084,136.946,113.412c-28.825,18.496-57.669,34.758-86.24,49.001 c-9.005-10.359-17.968-20.739-26.748-31.277c-15.682-18.829-31.146-37.819-46.612-56.83 c-12.809-15.755-26.123-31.657-42.166-44.216C668.024,784.02,689.654,774.02,711.422,764.325z"/><path fill="#424c47" d="M870.453,605.956c3.591-7.855,8.09-15.992,15.07-19.966c0.286-0.157,0.547-0.327,0.783-0.509 c-14.083,33.779-18.768,70.68-32.564,104.572c-3.008,1.146-6.003,2.309-8.986,3.487c5.348-17.882,9.075-36.317,14.093-54.263 C862.014,627.947,865.553,616.679,870.453,605.956z"/><path fill="#424c47" d="M870.893,683.601c11.328-33.057,16.405-68.176,31.411-99.951c57.315,6.65,118.374,24.549,183.045,56.871 c-0.745,0.497-1.393,1.146-1.906,1.904c-1.317,0.045-2.634,0.09-3.942,0.159c-5.576,0.315-11.045,1.598-16.624,2.047 c-14.246,1.145-28.443,0.501-42.661,2.126c-28.113,3.213-56.091,8.762-83.461,15.891 C914.421,668.466,892.526,675.662,870.893,683.601z"/><path fill="#424c47" d="M1075.226,657.018c5.046-1.493,10.675-0.404,15.869-1.347c-72.094,91.299-150.79,161.063-229.978,213.729 c-49.588-30.861-89.575-75.146-135.328-111.432c3.84-1.692,7.693-3.369,11.547-5.044c32.328-14.01,64.862-27.978,97.738-40.936 c0.925-0.169,1.819-0.508,2.6-1.01c-0.014-0.016-0.005-0.012,0.016-0.012c5.563-2.197,11.148-4.352,16.75-6.479 c3.159,1.861,7.509,1.552,9.42-2.762c0.134-0.309,0.27-0.623,0.402-0.929c9.976-3.706,19.984-7.293,30.035-10.734 c39.02-13.373,79.199-23.245,120.113-28.627c10.152-1.329,20.119-2.141,30.342-2.223c5.17-0.042,10.343-0.198,15.499-0.485 C1065.132,658.458,1070.524,658.423,1075.226,657.018z"/><path fill="#424c47" d="M1097.912,646.955c-0.062,0.083-0.119,0.157-0.181,0.24c-0.022-0.125-0.042-0.25-0.071-0.377 C1097.738,646.868,1097.831,646.913,1097.912,646.955z"/><path fill="#424c47" d="M137.542,673.188c-0.562-0.327-1.122-0.662-1.679-1.005c0.032-0.153,0.066-0.31,0.104-0.466 C136.588,671.975,137.143,672.456,137.542,673.188z"/><path fill="#424c47" d="M304.946,997.363c4.167,6.234,9.271,12.878,10.856,20.362c-21.805-14.923-136.694-98.121-174.02-217.98 c9.119,6.831,19.48,12.195,29.824,16.768c19.579,8.649,40.262,14.248,60.193,21.938c9.508,27.136,20.203,53.841,32.435,79.855 c8.745,18.6,17.259,37.318,26.884,55.497C295.395,981.867,299.879,989.771,304.946,997.363z"/><path fill="#424c47" d="M176.38,810.078c-13.45-5.724-27.511-12.961-38.001-23.646c0,0,0,0-0.004-0.004 c-1.055-2.991-1.771-6.407-2.496-9.757c12.904,8.83,26.271,16.975,40.228,24.054c13.455,6.83,27.356,12.987,41.829,17.342 c2.239,0.673,4.743,1.695,7.108,1.878c0.163,0.014,0.319,0.025,0.483,0.009c1.011,3.065,2.093,6.034,3.135,9.091 C211.243,822.661,193.472,817.364,176.38,810.078z"/><path fill="#424c47" d="M303.385,876.994c10.861-5.779,21.263-12.415,31.124-19.777c9.197,69.837,0.431,126.922-11.989,156.257 c-3.215-10.63-11.326-19.448-16.79-28.913c-7.976-13.808-15.099-28.072-21.948-42.462c-7.49-15.721-14.857-31.475-21.812-47.405 c1.97-0.65,3.921-1.331,5.873-2.031c3.99-1.425,7.952-2.951,11.876-4.556C287.795,884.812,295.689,881.094,303.385,876.994z"/><path fill="#424c47" d="M147.47,775.593c-4.675-3.032-9.278-6.17-13.813-9.411c-4.621-26.707-5.071-54.925,0.265-84.356 c2.104,2.521,4.771,4.631,7.396,6.471c5.681,3.971,12.073,6.963,18.372,9.784c11.68,5.226,24.35,9.153,35.604,14.995 c2.357,9.323,4.824,18.621,7.226,27.913c6.134,23.713,12.83,47.318,20.313,70.675c-0.826-0.229-1.656-0.47-2.477-0.717 c-5.592-1.671-11.092-3.656-16.52-5.803C184.062,797.349,165.285,787.143,147.47,775.593z"/><path fill="#424c47" d="M298.137,783.937c5.81-3.642,11.563-7.378,17.299-11.137c8.469,26.281,14.232,51.744,17.862,75.809 c-9.994,7.733-20.56,14.665-31.677,20.73c-7.156,3.91-14.532,7.415-22.029,10.614c-3.635,1.551-7.312,3-11.006,4.395 c-1.857,0.697-3.729,1.374-5.601,2.035c-0.63,0.225-1.263,0.442-1.899,0.657c-0.771-0.563-1.715-0.823-2.661-0.574 c-4.331-10.174-8.475-20.428-12.358-30.806c-3.656-9.76-7.133-19.587-10.453-29.471c8.032-8.934,18.857-15.421,29.017-21.595 C275.843,797.772,287.012,790.905,298.137,783.937z"/><path fill="#424c47" d="M221.428,780.9c23-22.699,50.268-41.297,71.39-65.738c7.888,16.946,14.565,33.741,20.172,50.238 c-6.265,4.109-12.536,8.194-18.881,12.17c-11.333,7.1-22.738,14.068-34.157,21.037c-9.461,5.771-19.039,11.805-27.008,19.56 C228.894,805.818,225.074,793.384,221.428,780.9z"/><path fill="#424c47" d="M147.451,683.266c-3.986-2.52-8.057-5.549-9.692-9.616c-0.063-0.166-0.138-0.319-0.217-0.461 c17.235,10.097,36.847,15.338,54.164,25.288c0.399,1.711,0.809,3.416,1.227,5.117c-9.278-4.206-18.976-7.574-28.313-11.606 C158.723,689.445,152.889,686.704,147.451,683.266z"/><path fill="#424c47" d="M189.475,688.728c-17.047-8.554-35.666-13.877-51.75-24.325c7.803-30.509,21.965-62.219,44.194-94.822 c0.214,0.439,0.519,0.837,0.89,1.171c-0.073,0.716-0.144,1.432-0.203,2.146c-0.238,3.038,0.053,6.09-0.113,9.14 c-0.426,7.788-1.816,15.421-1.981,23.229c-0.327,15.441,0.621,30.979,2.468,46.306 C184.484,664.075,186.771,676.445,189.475,688.728z"/><path fill="#424c47" d="M190.098,576.266c-0.437-2.838,0.564-5.804,0.438-8.681c44.084,45.693,76.039,93.376,98.709,140.068 c-20.33,24.553-47.218,42.93-70.201,65.01c-0.633-2.201-1.256-4.409-1.878-6.614c-5.204-18.513-10.37-37.133-14.964-55.865 c-0.024-0.513-0.143-1.021-0.356-1.479c-0.009,0.006-0.005,0.001-0.005-0.009c-0.779-3.171-1.535-6.35-2.275-9.536 c1.239-1.571,1.393-3.946-0.801-5.297c-0.157-0.096-0.318-0.191-0.474-0.285c-1.271-5.667-2.477-11.346-3.601-17.033 c-4.368-22.084-6.758-44.539-6.665-67.062c0.028-5.59,0.319-11.039,1.026-16.573c0.355-2.8,0.651-5.608,0.875-8.419 C190.137,581.831,190.514,578.912,190.098,576.266z"/><path fill="#424c47" d="M186.322,563.257c0.04,0.039,0.076,0.077,0.115,0.118c-0.068,0.002-0.137,0.003-0.208,0.011 C186.262,563.346,186.294,563.3,186.322,563.257z"/><path fill="#f39200" d="M319.458,1006.603c0.063,0.319,0.211,0.627,0.439,0.89c0.708,0.813,1.941,0.898,2.753,0.19 c0.96-0.836,97.208-84.777,202.414-188.434c61.803-60.892,114.563-116.576,156.814-165.507 c52.883-61.238,89.388-112.047,108.502-151.018c0.474-0.968,0.074-2.137-0.894-2.611c-0.967-0.474-2.137-0.074-2.61,0.894 c-43.001,87.666-167.599,219.938-264.553,315.461c-105.121,103.573-201.277,187.436-202.236,188.271 C319.539,1005.217,319.322,1005.936,319.458,1006.603z"/><path fill="#f39200" d="M775.507,522.518c0.188-0.117,18.759-11.938,39.433-23c12.172-6.514,22.691-11.501,31.266-14.823 c11.169-4.327,18.945-5.829,23.773-4.585c2.307,0.592,3.977,1.809,4.963,3.615c0.313,0.574,0.534,1.174,0.658,1.781 c0.984,4.839-3.73,9.608-14.836,15.01c-8.01,3.896-19.392,8.102-33.827,12.501c-24.489,7.464-49.711,12.999-49.962,13.053 c-0.925,0.203-1.861-0.287-2.222-1.161c-0.048-0.116-0.083-0.236-0.108-0.357C774.486,523.773,774.817,522.958,775.507,522.518z M871.516,485.595c-0.454-0.829-1.274-1.389-2.51-1.706c-12.963-3.335-56.601,20.722-81.337,35.686 c9.622-2.323,23.998-5.984,38.128-10.292c44.26-13.486,46.381-21.011,45.978-22.997 C871.728,486.056,871.644,485.829,871.516,485.595z"/><path fill="#f39200" d="M787.879,501.21c0.012-0.219,1.306-22.197,4.44-45.432c1.847-13.682,3.964-25.131,6.292-34.026 c3.031-11.586,6.369-18.771,10.204-21.956c1.83-1.523,3.796-2.163,5.836-1.906c2.155,0.273,4.935,1.638,5.94,6.584 c1.806,8.879-2.545,28.051-12.936,56.985c-7.668,21.359-15.958,40.453-16.039,40.643c-0.377,0.867-1.322,1.34-2.243,1.12 c-0.752-0.18-1.312-0.78-1.46-1.509C787.881,501.55,787.867,501.382,787.879,501.21z M814.16,401.763 c-0.936-0.118-1.869,0.22-2.85,1.034c-10.295,8.557-16.346,58.023-18.699,86.835c3.086-7.535,7.32-18.205,11.379-29.509 c9.997-27.846,14.415-46.819,12.777-54.871C816.108,402.008,814.693,401.831,814.16,401.763z"/><path fill="#f39200" d="M732.424,470.294c2.426-2.332,6.08-2.921,10.864-1.751c6.188,1.511,11.282,4.974,15.144,10.286 c3.297,4.538,5.703,10.454,7.154,17.587c2.524,12.411,1.698,25.724,0.562,34.705c-1.228,9.686-3.425,18.683-5.227,21.389 c-0.375,0.564-1.021,0.895-1.698,0.869c-0.68-0.026-1.296-0.403-1.63-0.997c-0.912-1.628-22.406-40.176-27.292-64.194 C728.487,479.266,729.182,473.412,732.424,470.294z M761.76,497.194c-2.856-14.048-9.385-22.411-19.398-24.86 c-3.399-0.83-5.832-0.572-7.231,0.772c-1.493,1.437-2.879,5.082-1.003,14.302c3.915,19.25,19.4,49.198,24.912,59.471 C761.717,538.063,765.517,515.663,761.76,497.194z"/><path fill="#f39200" d="M746.419,566.927c0.112-0.912,0.845-1.621,1.759-1.705c0.203-0.018,20.537-1.854,42.043-0.963 c29.439,1.219,47.009,6.791,52.224,16.561c0.507,0.95,0.851,1.855,1.021,2.692c0.406,1.999-0.153,3.784-1.578,5.024 c-3.083,2.686-11.804,4.966-51.763-6.202c-21.599-6.035-42.211-13.256-42.415-13.328c-0.663-0.231-1.132-0.793-1.267-1.452 C746.402,567.352,746.393,567.139,746.419,566.927z M839.002,582.657c-4.451-8.339-21.363-13.352-48.906-14.497 c-12.168-0.507-23.964-0.128-31.859,0.291c8.023,2.659,20.31,6.595,32.938,10.123c12.575,3.516,23.009,5.94,31.011,7.211 c12.916,2.05,16.287,0.548,17.137-0.19c0.25-0.22,0.482-0.501,0.318-1.306C839.545,583.821,839.33,583.273,839.002,582.657z"/><path fill="#f39200" d="M693.732,509.218c3.383-2.064,7.898,1.001,11.002,3.484c9.775,7.831,16.352,19.759,19.543,35.454 c5.357,26.341-0.59,53.893-0.847,55.051c-0.182,0.827-0.874,1.441-1.714,1.524c-0.842,0.081-1.641-0.387-1.979-1.161 c-0.909-2.078-22.332-51.211-27.648-77.353C690.087,516.378,690.596,511.135,693.732,509.218z M720.453,548.935 c-3.006-14.776-9.114-25.941-18.159-33.186c-4.02-3.218-5.994-3.524-6.526-3.199c-0.227,0.137-2.137,1.668,0.146,12.891 c4.153,20.423,18.832,56.337,24.824,70.542C722.194,586.29,724.142,567.072,720.453,548.935z"/><path fill="#f39200" d="M702.164,623.678c0.69-0.839,1.727-1.425,8.804-1.282c4.423,0.089,10.362,0.475,16.721,1.086 c15.678,1.509,31.67,4.114,43.875,7.15c19.163,4.767,29.14,10.344,30.505,17.053c0.693,3.409-0.867,6.837-4.639,10.188 c-6.712,5.963-16.01,7.914-27.637,5.796c-9.013-1.643-19.477-5.739-31.096-12.179c-19.645-10.884-36.133-24.949-36.297-25.091 c-0.343-0.293-0.558-0.681-0.641-1.091C701.645,624.751,701.775,624.149,702.164,623.678z M791.743,641.941 c-12.233-6.907-36.439-11.021-49.779-12.857c-15.46-2.128-27.624-2.842-33.545-2.801c5.799,4.632,18.195,14.055,32.216,21.815 c11.24,6.225,21.294,10.171,29.882,11.734c10.373,1.885,18.557,0.243,24.321-4.879c2.655-2.359,3.803-4.545,3.406-6.491 C797.814,646.356,795.566,644.101,791.743,641.941z"/><path fill="#f39200" d="M635.143,551.852c2.238-2.423,5.601-3.382,9.996-2.851c13.751,1.667,23.434,15.844,28.78,42.133 c6.084,29.912,4.38,65.769,4.362,66.128c-0.042,0.854-0.637,1.58-1.465,1.792c-0.829,0.213-1.7-0.141-2.147-0.869 c-0.089-0.143-8.91-14.539-18.374-32.481c-12.751-24.176-20.541-42.944-23.15-55.783 C631.36,561.152,632.015,555.241,635.143,551.852z M670.096,591.912c-2.295-11.284-5.426-20.292-9.303-26.772 c-4.412-7.376-9.836-11.501-16.124-12.263c-3.123-0.378-5.3,0.153-6.657,1.622c-2.157,2.337-2.518,7.398-1.043,14.644 c4.924,24.21,28.648,66.054,37.6,81.266C674.755,638.719,674.521,613.683,670.096,591.912z"/><path fill="#f39200" d="M655.477,677.99c0.355-0.834,1.24-1.312,2.133-1.153c0.272,0.047,27.588,4.894,55.153,12.649 c16.243,4.569,29.414,9.248,39.144,13.903c12.796,6.123,19.634,12.139,20.907,18.393c0.425,2.092,0.212,4.188-0.639,6.226 c-1.333,3.198-3.795,5.315-7.323,6.294c-10.836,3.006-32.495-5.222-64.372-24.458c-23.467-14.159-44.159-29.362-44.366-29.514 c-0.401-0.296-0.661-0.721-0.756-1.183C655.28,678.769,655.316,678.365,655.477,677.99z M750.23,706.916 c-9.523-4.56-22.477-9.155-38.498-13.666c-17.986-5.062-35.871-8.876-46.103-10.911c8.03,5.648,21.877,15.119,36.866,24.165 c38.518,23.239,54.601,25.897,61.313,24.036c2.345-0.65,3.903-1.97,4.763-4.032c0.551-1.323,0.688-2.613,0.418-3.948 C768.304,719.19,764.492,713.741,750.23,706.916z"/><path fill="#f39200" d="M570.425,570.937c0.583-4.229,2.415-6.897,5.448-7.932c2.119-0.725,4.312-0.451,6.513,0.811 c8.304,4.763,17.32,24.492,27.56,60.322c8.109,28.374,14.774,59.425,18.025,75.408c1.348,6.632,2.115,10.697,2.121,10.738 c0.179,0.945-0.359,1.88-1.265,2.2c-0.907,0.321-1.914-0.066-2.37-0.912c-0.117-0.217-11.844-21.991-24.409-48.357 c-16.907-35.479-27.202-61.935-30.597-78.627C570.284,578.851,569.947,574.385,570.425,570.937z M606.193,625.21 c-12.219-42.748-20.746-55.141-25.748-58.009c-1.219-0.698-2.271-0.859-3.311-0.503c-3.22,1.099-3.881,7.176-1.859,17.11 c6.174,30.362,35.356,88.871,48.352,113.987C620.23,681.274,613.857,652.029,606.193,625.21z"/><path fill="#f39200" d="M612.95,724.095c0.519-0.777,1.515-1.08,2.378-0.72c0.275,0.115,27.83,11.653,55.605,25.876 c16.347,8.373,29.585,16.03,39.344,22.76c12.718,8.771,19.48,15.89,20.675,21.764c0.549,2.697-0.043,5.111-1.761,7.178 c-1.805,2.175-4.376,3.36-7.641,3.523c-11.676,0.585-33.505-12.409-64.887-38.62c-23.146-19.333-43.256-39.091-43.457-39.288 c-0.285-0.281-0.469-0.632-0.543-1.003C612.564,725.071,612.654,724.541,612.95,724.095z M708.068,775.229 c-9.617-6.632-22.702-14.2-38.896-22.494c-17.516-8.97-34.949-16.87-45.439-21.482c7.939,7.5,21.1,19.634,35.436,31.607 c38.118,31.84,54.856,38.085,62.188,37.719c2.158-0.108,3.74-0.802,4.835-2.12c0.949-1.143,1.247-2.384,0.938-3.906 C726.46,791.273,722.614,785.261,708.068,775.229z"/><path fill="#f39200" d="M529.897,625.576c2.966-2.434,7.965-2.124,15.283,0.944c13.055,5.474,23.905,15.661,32.249,30.277 c6.518,11.411,11.51,25.509,14.844,41.895c5.098,25.063,4.498,47.088,4.49,47.307c-0.024,0.832-0.573,1.555-1.367,1.804 s-1.656-0.032-2.152-0.7c-0.147-0.201-14.994-20.276-30.379-43.694c-20.751-31.585-32.556-53.915-35.089-66.371 C526.635,631.431,527.33,627.683,529.897,625.576z M588.447,699.472c-5.129-25.223-17.061-57.729-44.777-69.352 c-7.576-3.177-10.329-2.319-11.296-1.525c-1.308,1.071-1.574,3.723-0.773,7.664c4.993,24.549,48.444,85.965,61.249,103.675 C592.687,731.825,591.886,716.368,588.447,699.472z"/><path fill="#f39200" d="M572.688,765.158c0.688-0.657,1.75-0.72,2.511-0.152c0.216,0.163,21.767,16.259,43.561,34.712 c12.824,10.857,23.228,20.402,30.927,28.368c9.965,10.314,15.328,17.87,16.392,23.095c0.72,3.546-0.516,6.286-3.481,7.716 c-5.519,2.664-13.526-0.695-24.48-10.27c-8.207-7.175-18.107-17.887-29.423-31.835c-19.202-23.675-36.114-48.884-36.283-49.135 c-0.146-0.217-0.242-0.452-0.291-0.695C571.988,766.318,572.187,765.632,572.688,765.158z M646.883,830.803 c-7.605-7.87-17.912-17.323-30.632-28.094c-12.692-10.748-25.304-20.695-33.631-27.132c6.689,9.515,17.473,24.416,29.104,38.755 c11.176,13.777,20.919,24.327,28.962,31.355c11.848,10.357,17.531,10.989,20.215,9.694c0.967-0.467,1.803-1.205,1.352-3.424 C661.635,848.925,658.467,842.792,646.883,830.803z"/><path fill="#f39200" d="M495.624,693.171c3.163-3.108,8.872-3.694,17.45-1.792c12.595,2.793,22.773,9.084,30.248,18.699 c6.06,7.792,10.361,17.788,12.785,29.712c4.806,23.631,0.709,46.561,0.531,47.525c-0.134,0.726-0.664,1.313-1.373,1.521 c-0.706,0.208-1.473-0.003-1.976-0.542c-0.136-0.146-13.765-14.813-27.841-32.362c-19.032-23.734-29.789-41.213-31.973-51.951 C492.498,699.17,493.22,695.531,495.624,693.171z M552.283,740.567c-5.159-25.36-18.634-40.628-40.054-45.38 c-6.987-1.548-11.785-1.282-13.87,0.767c-1.4,1.376-1.757,3.816-1.06,7.248c4.294,21.102,45.007,67.179,56.084,79.407 C554.335,775.027,555.785,757.791,552.283,740.567z"/><path fill="#f39200" d="M530.283,808.682c0.727-0.442,1.659-0.364,2.3,0.197c0.221,0.192,22.368,19.578,44.702,41.022 c13.134,12.612,23.766,23.467,31.601,32.261c10.128,11.362,15.519,19.183,16.478,23.903c0.572,2.813-0.43,4.366-1.369,5.174 c-2.471,2.121-7.346,1.684-15.807-1.421c-13.684-5.021-26.352-13.373-37.643-24.821c-8.998-9.119-17.148-20.213-24.224-32.976 c-12.028-21.689-16.724-40.42-16.917-41.205c-0.008-0.027-0.014-0.054-0.02-0.08C529.223,809.934,529.578,809.109,530.283,808.682 z M535.077,816.278c2.36,7.339,7.046,20.146,14.706,33.938c10.82,19.486,29.969,45.01,59.75,55.937 c9.801,3.596,11.729,2.287,11.915,2.125c0.303-0.257,0.146-1.162,0.092-1.434C618.685,892.806,562.268,840.392,535.077,816.278z"/><path fill="#f39200" d="M439.587,750.259c2.797-3.723,8.058-5.851,16.085-6.509c15.15-1.237,27.519,3.92,36.756,15.328 c6.979,8.621,12.093,20.728,15.194,35.982c3.94,19.372,3.211,36.714,3.177,37.444c-0.031,0.722-0.459,1.363-1.112,1.674 c-0.653,0.309-1.422,0.233-2.003-0.199c-0.16-0.119-16.295-12.164-32.832-27.084c-22.428-20.229-34.897-35.895-37.069-46.564 C436.97,756.325,437.575,752.936,439.587,750.259z M503.797,795.837c-4.755-23.381-16.908-50.723-47.808-48.195 c-6.754,0.552-11.222,2.222-13.281,4.96c-1.332,1.771-1.69,4.046-1.101,6.953c1.972,9.689,14.364,25.053,35.838,44.425 c12.146,10.959,24.077,20.356,29.514,24.544C506.959,822.354,506.57,809.472,503.797,795.837z"/><path fill="#f39200" d="M478.607,859.04c0.757-0.43,1.708-0.306,2.331,0.303c0.187,0.184,18.943,18.569,38.014,39.466 c25.795,28.261,39.87,47.493,41.837,57.159c0.62,3.055,0.115,5.394-1.503,6.952c-2.161,2.081-6.021,2.409-11.796,1.008 c-11.055-2.687-21.617-9.831-31.398-21.239c-7.721-9.004-14.988-20.688-21.601-34.727c-11.215-23.81-16.762-46.539-16.816-46.768 c-0.005-0.023-0.011-0.045-0.015-0.068C477.492,860.302,477.872,859.458,478.607,859.04z M516.081,901.451 c-12.978-14.219-25.81-27.272-32.7-34.177c2.467,8.457,7.328,23.497,14.641,39.024c10.092,21.427,27.025,48.159,50.389,53.835 c5.868,1.426,7.666,0.458,8.167-0.025c0.74-0.713,0.618-2.222,0.386-3.363C555.709,950.584,547.6,935.989,516.081,901.451z"/><path fill="#f39200" d="M354.535,763.976c6.077-1.38,12.968,0.381,20.478,5.232c7.915,5.115,16.649,13.726,25.958,25.592 c7.82,9.969,15.859,21.963,23.895,35.649c14.43,24.581,25.086,48.271,26.683,56.122c0.298,1.46,0.458,3.086-0.6,4.084 c-0.729,0.689-1.861,0.714-2.619,0.058c-0.238-0.207-24.053-20.916-48.312-45.078c-32.781-32.647-50.743-55.786-53.385-68.773 C345.241,770.022,348.048,765.445,354.535,763.976z M421.499,832.425c-17.403-29.646-34.665-50.933-48.605-59.938 c-6.593-4.261-12.48-5.844-17.495-4.705c-4.442,1.006-5.921,3.488-4.94,8.3c2.45,12.048,20.535,35.137,52.301,66.773 c18.263,18.188,36.275,34.419,44.088,41.35C443.876,875.121,434.676,854.87,421.499,832.425z"/><path fill="#f39200" d="M301.879,997.765c-0.031,0.151-0.101,0.297-0.21,0.423c-0.335,0.386-0.921,0.427-1.307,0.091 c-0.456-0.397-46.154-40.252-96.104-89.467c-29.343-28.91-54.393-55.349-74.454-78.58c-25.107-29.075-42.44-53.198-51.514-71.701 c-0.227-0.46-0.037-1.016,0.423-1.24c0.46-0.226,1.015-0.035,1.239,0.424c20.416,41.624,79.574,104.424,125.606,149.777 c49.909,49.175,95.564,88.992,96.02,89.389C301.84,997.106,301.942,997.448,301.879,997.765z"/><path fill="#f39200" d="M85.762,768.893c-0.013,0.058-0.029,0.114-0.053,0.17c-0.171,0.415-0.615,0.647-1.055,0.551 c-0.119-0.025-12.094-2.653-23.721-6.197c-6.854-2.089-12.258-4.085-16.062-5.936c-5.271-2.563-7.51-4.828-7.043-7.125 c0.058-0.289,0.164-0.574,0.313-0.847c0.467-0.857,1.261-1.435,2.354-1.716c2.292-0.591,5.984,0.122,11.287,2.176 c4.071,1.577,9.066,3.945,14.846,7.039c9.815,5.252,18.633,10.863,18.722,10.92C85.679,768.138,85.836,768.523,85.762,768.893z M39.646,750.724c-0.192,0.943,0.814,4.517,21.829,10.92c6.709,2.045,13.534,3.783,18.103,4.887 c-11.744-7.105-32.463-18.527-38.618-16.943c-0.586,0.15-0.976,0.416-1.19,0.81C39.707,750.508,39.667,750.615,39.646,750.724z"/><path fill="#f39200" d="M79.461,758.05c-0.07,0.346-0.336,0.631-0.692,0.716c-0.438,0.104-0.887-0.12-1.065-0.531 c-0.038-0.09-3.975-9.155-7.616-19.297c-4.933-13.738-6.999-22.84-6.141-27.056c0.477-2.35,1.797-2.997,2.819-3.126 c0.97-0.122,1.903,0.182,2.771,0.904c1.82,1.514,3.405,4.924,4.846,10.425c1.104,4.224,2.109,9.659,2.986,16.155 c1.487,11.031,2.103,21.467,2.108,21.57C79.482,757.893,79.477,757.973,79.461,758.05z M65.762,712.252 c-0.778,3.822,1.32,12.83,6.066,26.051c1.927,5.367,3.938,10.434,5.402,14.011c-1.117-13.68-3.989-37.166-8.877-41.228 c-0.467-0.388-0.909-0.548-1.354-0.491C66.746,710.627,66.074,710.711,65.762,712.252z"/><path fill="#f39200" d="M106.815,751.628c-2.319,11.403-12.526,29.706-12.958,30.479c-0.158,0.281-0.451,0.46-0.773,0.473 c-0.323,0.012-0.629-0.145-0.807-0.413c-0.856-1.284-1.899-5.556-2.481-10.154c-0.54-4.265-0.933-10.585,0.266-16.478 c0.689-3.387,1.831-6.196,3.397-8.351c1.832-2.522,4.252-4.166,7.189-4.884c2.271-0.556,4.007-0.276,5.158,0.832 C107.347,744.612,107.676,747.392,106.815,751.628z M93.17,779.493c2.617-4.877,9.97-19.096,11.828-28.234 c0.891-4.378,0.232-6.109-0.477-6.791c-0.664-0.639-1.818-0.761-3.433-0.366c-4.755,1.162-7.854,5.133-9.21,11.803 C90.094,764.673,91.899,775.309,93.17,779.493z"/><path fill="#f39200" d="M99.15,789.31c-0.063,0.313-0.286,0.58-0.602,0.69c-0.096,0.034-9.883,3.462-20.137,6.327 c-18.973,5.303-23.113,4.221-24.577,2.945c-0.677-0.59-0.942-1.437-0.749-2.386c0.081-0.397,0.244-0.828,0.485-1.278 c2.476-4.639,10.816-7.284,24.794-7.862c10.211-0.424,19.865,0.448,19.962,0.456c0.434,0.041,0.782,0.378,0.835,0.811 C99.176,789.113,99.17,789.215,99.15,789.31z M54.902,797.256c-0.079,0.382,0.031,0.516,0.15,0.62 c0.403,0.35,2.004,1.063,8.137,0.091c3.799-0.604,8.754-1.755,14.723-3.424c5.996-1.675,11.83-3.544,15.639-4.807 c-3.748-0.199-9.349-0.379-15.125-0.138c-13.077,0.543-21.107,2.923-23.222,6.883C55.049,796.773,54.947,797.034,54.902,797.256z"/><path fill="#f39200" d="M124.957,769.685c-2.523,12.412-12.695,35.738-13.126,36.726c-0.162,0.367-0.541,0.591-0.94,0.552 c-0.398-0.039-0.728-0.331-0.813-0.724c-0.122-0.55-2.946-13.632-0.402-26.138c1.516-7.451,4.638-13.114,9.278-16.833 c1.475-1.18,3.619-2.635,5.225-1.654C125.667,762.523,125.908,765.013,124.957,769.685z M111.355,802.808 c2.844-6.744,9.813-23.796,11.786-33.492c1.083-5.329,0.177-6.055,0.069-6.12c-0.253-0.155-1.189-0.009-3.099,1.519 c-4.294,3.439-7.195,8.74-8.622,15.756C109.738,789.081,110.664,798.205,111.355,802.808z"/><path fill="#f39200" d="M120.365,816.731c-0.039,0.195-0.141,0.379-0.304,0.518c-0.077,0.067-7.907,6.745-17.233,11.912 c-5.516,3.058-10.484,5.003-14.764,5.782c-5.521,1.006-9.935,0.08-13.121-2.751c-1.791-1.591-2.532-3.219-2.203-4.837 c0.648-3.185,5.385-5.833,14.483-8.097c5.796-1.441,13.388-2.678,20.832-3.396c3.019-0.289,5.839-0.473,7.938-0.516 c3.36-0.067,3.853,0.211,4.18,0.609C120.358,816.181,120.42,816.467,120.365,816.731z M74.557,827.726 c-0.188,0.923,0.356,1.961,1.616,3.081c2.737,2.433,6.623,3.211,11.548,2.316c4.078-0.741,8.851-2.616,14.188-5.571 c6.657-3.685,12.543-8.158,15.297-10.357c-2.813-0.021-8.588,0.319-15.928,1.329c-6.333,0.872-17.826,2.826-23.635,6.105 C75.828,825.653,74.761,826.725,74.557,827.726z"/><path fill="#f39200" d="M152.943,790.434c-1.239,6.096-4.938,15.007-10.991,26.484c-4.493,8.52-8.681,15.354-8.725,15.423 c-0.212,0.346-0.625,0.514-1.019,0.412c-0.394-0.101-0.676-0.445-0.695-0.851c-0.01-0.171-0.818-17.195,2.071-31.396 c2.537-12.482,7.136-19.213,13.664-20.004c2.087-0.253,3.683,0.202,4.745,1.353C153.48,783.464,153.791,786.271,152.943,790.434z M133.276,828.648c4.249-7.223,15.514-27.089,17.851-38.584c0.701-3.439,0.53-5.844-0.494-6.952 c-0.645-0.697-1.678-0.95-3.162-0.771c-2.984,0.361-5.561,2.319-7.654,5.821c-1.84,3.078-3.327,7.354-4.416,12.712 C133.298,811.212,133.187,823.099,133.276,828.648z"/><path fill="#f39200" d="M142.397,842.294c-0.046,0.219-0.169,0.421-0.359,0.562c-0.099,0.071-9.923,7.289-21.064,14.013 C105.84,866,95.556,869.907,90.411,868.48c-1.676-0.465-2.845-1.471-3.478-2.988c-0.403-0.968-0.504-1.963-0.304-2.956 c0.605-2.97,3.852-5.826,9.928-8.732c4.619-2.211,10.872-4.433,18.584-6.602c13.088-3.682,26.058-5.983,26.187-6.006 c0.424-0.075,0.843,0.152,1.012,0.549C142.417,841.922,142.434,842.113,142.397,842.294z M88.446,862.905 c-0.129,0.633-0.063,1.246,0.199,1.874c0.407,0.979,1.146,1.606,2.261,1.914c3.186,0.885,10.822-0.378,29.11-11.411 c7.116-4.296,13.691-8.792,17.503-11.475c-4.858,0.967-13.35,2.779-21.888,5.181c-7.608,2.143-13.758,4.325-18.28,6.489 C90.582,858.718,88.771,861.306,88.446,862.905z"/><path fill="#f39200" d="M182.234,797.397c-1.611,7.926-6.5,20.486-14.525,37.331c-5.967,12.519-11.535,22.856-11.59,22.96 c-0.217,0.401-0.695,0.586-1.126,0.433c-0.429-0.151-0.686-0.596-0.601-1.044c0.003-0.02,0.367-1.95,1.008-5.099 c1.543-7.589,4.707-22.331,8.559-35.803c4.861-17.012,9.143-26.38,13.084-28.641c1.045-0.6,2.086-0.729,3.092-0.386 c1.441,0.492,2.311,1.759,2.588,3.768C182.949,792.553,182.789,794.673,182.234,797.397z M157.463,851.146 c6.169-11.925,20.025-39.703,22.957-54.119c0.959-4.717,0.645-7.602-0.884-8.124c-0.493-0.168-0.993-0.092-1.571,0.239 c-2.375,1.362-6.424,7.245-12.225,27.542C162.101,829.418,159.074,843.303,157.463,851.146z"/><path fill="#f39200" d="M162.668,864.332c-0.037,0.176-0.123,0.343-0.258,0.476c-0.096,0.094-9.645,9.475-20.633,18.653 c-14.9,12.445-25.265,18.614-30.808,18.336c-1.55-0.076-2.771-0.64-3.629-1.672c-0.815-0.981-1.097-2.128-0.835-3.408 c0.566-2.788,3.777-6.169,9.816-10.333c4.633-3.195,10.918-6.83,18.68-10.807c13.188-6.753,26.27-12.23,26.4-12.285 c0.41-0.171,0.883-0.027,1.129,0.342C162.672,863.846,162.715,864.098,162.668,864.332z M108.321,897.086 c-0.147,0.723-0.005,1.313,0.445,1.854c0.519,0.625,1.271,0.955,2.296,1.007c3.48,0.174,11.428-2.792,29.525-17.908 c6.807-5.685,13.056-11.446,16.824-15.007c-4.98,2.189-13.258,5.94-21.574,10.199c-7.688,3.938-13.901,7.531-18.467,10.68 C110.465,892.675,108.639,895.529,108.321,897.086z"/><path fill="#f39200" d="M202.971,822.3c-1.203,5.914-6.807,16.516-16.66,31.513c-7.303,11.119-14.354,20.649-14.422,20.745 c-0.236,0.317-0.646,0.451-1.022,0.332c-0.378-0.117-0.638-0.461-0.649-0.856c-0.003-0.104-0.289-10.56,2.132-22.46 c1.583-7.78,3.953-14.473,7.048-19.891c3.961-6.939,9.113-11.777,15.311-14.375c3.476-1.459,5.849-1.605,7.257-0.449 C203.183,817.858,203.514,819.638,202.971,822.3z M172.075,871.153c6.079-8.408,26.71-37.567,29.08-49.224 c0.38-1.871,0.253-3.129-0.367-3.638c-0.458-0.378-1.767-0.785-5.363,0.724c-13.159,5.519-18.825,20.952-21.261,32.927 C172.533,859.966,172.152,867.304,172.075,871.153z"/><path fill="#f39200" d="M181.918,883.987c-0.023,0.114-0.068,0.227-0.138,0.329c-0.081,0.119-8.109,12.088-17.227,23.328 c-5.373,6.624-10.073,11.709-13.971,15.115c-5.201,4.546-9.002,6.142-11.623,4.876c-1.407-0.678-1.994-1.979-1.653-3.663 c0.506-2.481,3.052-6.067,7.783-10.965c3.655-3.782,8.596-8.314,14.684-13.469c10.348-8.761,20.58-16.404,20.682-16.481 c0.362-0.27,0.865-0.239,1.192,0.072C181.885,883.354,181.979,883.682,181.918,883.987z M139.124,924.342 c-0.215,1.054,0.183,1.403,0.642,1.625c1.273,0.615,3.973,0.315,9.598-4.602c3.818-3.338,8.444-8.347,13.75-14.888 c5.523-6.808,10.643-13.884,13.819-18.4c-3.954,3.057-9.942,7.778-15.968,12.882c-6.039,5.114-10.934,9.602-14.543,13.339 C140.92,919.99,139.416,922.901,139.124,924.342z"/><path fill="#f39200" d="M219.256,854.084c-1.036,5.099-6.145,13.396-15.18,24.665c-6.684,8.333-13.154,15.296-13.219,15.365 c-0.238,0.256-0.603,0.355-0.938,0.258c-0.337-0.099-0.588-0.378-0.651-0.722c-0.084-0.458-2.029-11.346,0.252-22.564 c1.151-5.662,3.193-10.407,6.07-14.106c3.549-4.565,8.381-7.553,14.361-8.879c4.073-0.902,6.783-0.625,8.285,0.852 C219.379,850.072,219.721,851.8,219.256,854.084z M190.813,891.415c5.259-5.806,24.59-27.682,26.629-37.7 c0.33-1.63,0.16-2.789-0.504-3.441c-0.99-0.974-3.268-1.1-6.585-0.364c-10.169,2.256-16.567,9.505-19.017,21.546 C189.673,879.632,190.361,887.816,190.813,891.415z"/><path fill="#f39200" d="M202.207,904.771c-0.002,0.013-0.005,0.025-0.009,0.038c-0.093,0.372-2.321,9.266-8.032,19.563 c-3.359,6.059-7.229,11.326-11.501,15.656c-5.36,5.436-11.375,9.4-17.872,11.784c-4.018,1.475-6.332,1.683-7.504,0.675 c-0.447-0.383-0.923-1.121-0.651-2.456c0.456-2.241,3.016-5.954,7.823-11.349c3.721-4.176,8.769-9.329,15.004-15.317 c10.604-10.183,21.12-19.386,21.225-19.477c0.305-0.267,0.746-0.305,1.091-0.095C202.115,903.998,202.284,904.39,202.207,904.771z M158.453,950.401c-0.025,0.129-0.101,0.559,0.044,0.682c0.089,0.076,1.004,0.697,5.657-1.011 c14.139-5.188,23.23-17.306,28.367-26.558c3.639-6.548,5.863-12.629,6.982-16.114 C186.596,918.851,159.809,943.735,158.453,950.401z"/><path fill="#f39200" d="M245.699,880.839c-1.031,5.065-6.952,12.503-17.6,22.108c-7.852,7.083-15.514,12.802-15.588,12.858 c-0.277,0.206-0.642,0.241-0.952,0.095c-0.31-0.146-0.514-0.452-0.528-0.796c-0.016-0.346-0.362-8.579,1.509-17.777 c1.473-7.242,3.9-12.99,7.214-17.084c4.387-5.417,10.258-7.865,17.451-7.277c3.813,0.313,6.31,1.323,7.637,3.091 C245.797,877.326,246.086,878.937,245.699,880.839z M212.855,913.216c2.581-1.989,8.246-6.451,14.013-11.653 c10.194-9.198,16.078-16.492,17.015-21.093c0.28-1.381,0.109-2.461-0.523-3.301c-0.977-1.301-3.098-2.093-6.304-2.355 c-14.671-1.199-20.441,11.782-22.7,22.883C213.039,904.17,212.855,910.286,212.855,913.216z"/><path fill="#f39200" d="M226.766,928.694c-0.002,0.012-0.004,0.022-0.007,0.033c-0.026,0.107-2.66,10.9-7.983,22.204 c-3.14,6.665-6.592,12.213-10.256,16.487c-4.645,5.417-9.66,8.809-14.908,10.084c-2.742,0.666-4.574,0.51-5.601-0.478 c-0.769-0.74-1.008-1.851-0.713-3.302c0.934-4.588,7.616-13.72,19.862-27.138c9.055-9.922,17.96-18.65,18.049-18.738 c0.297-0.289,0.746-0.348,1.106-0.144C226.665,927.902,226.845,928.304,226.766,928.694z M189.113,974.093 c-0.109,0.542-0.168,1.26,0.184,1.598c0.238,0.229,1.092,0.688,3.877,0.012c11.094-2.694,19.133-15.387,23.924-25.56 c3.473-7.373,5.78-14.513,6.951-18.528c-3.271,3.278-9.363,9.475-15.525,16.227C193.559,964.238,189.709,971.168,189.113,974.093z"/><path fill="#f39200" d="M288.977,888.687c-1.255,6.166-9.783,17.152-25.348,32.653c-11.518,11.472-22.824,21.304-22.938,21.401 c-0.359,0.313-0.896,0.301-1.243-0.025c-0.503-0.476-0.427-1.248-0.285-1.94c0.759-3.728,5.817-14.975,12.669-26.646 c3.814-6.498,7.631-12.192,11.346-16.926c4.419-5.634,8.564-9.722,12.324-12.149c3.564-2.304,6.836-3.141,9.723-2.485 C288.304,883.267,289.637,885.439,288.977,888.687z M241.396,939.652c3.709-3.291,12.261-10.997,20.932-19.632 c15.083-15.021,23.669-25.982,24.833-31.704c0.465-2.284-0.237-3.463-2.346-3.94c-2.382-0.541-5.177,0.212-8.307,2.234 c-6.619,4.275-14.814,14.381-23.077,28.457C247.174,925.725,242.807,935.339,241.396,939.652z"/><path fill="#000000" d="M404.619,751.837c0,5.115-4.146,9.262-9.262,9.262H232.881c-5.115,0-9.262-4.146-9.262-9.262v-0.477 c0-5.115,4.146-9.262,9.262-9.262h162.477c5.115,0,9.262,4.146,9.262,9.262V751.837z"/><path fill="#000000" d="M477.258,987.553c-0.903,0.904-2.6,0.675-3.788-0.513L243.826,757.396 c-1.188-1.188-1.418-2.884-0.514-3.787l0,0c0.904-0.904,2.6-0.675,3.787,0.513l229.646,229.645 C477.932,984.953,478.162,986.649,477.258,987.553L477.258,987.553z"/><path fill="#000000" d="M435.578,753.606c0.904,0.904,0.675,2.602-0.514,3.788L205.42,987.039 c-1.187,1.188-2.883,1.418-3.786,0.514l0,0c-0.904-0.904-0.675-2.6,0.513-3.788L431.79,754.12 C432.979,752.934,434.674,752.704,435.578,753.606L435.578,753.606z"/><path fill="#f39200" d="M655.367,527.093h3.008v-3.007c0-0.385,0.313-0.698,0.698-0.698s0.699,0.313,0.699,0.698v3.007h3.007 c0.386,0,0.7,0.314,0.7,0.7s-0.314,0.699-0.7,0.699h-3.007v3.007c0,0.386-0.313,0.699-0.699,0.699s-0.698-0.313-0.698-0.699 v-3.007h-3.008c-0.386,0-0.699-0.313-0.699-0.699S654.981,527.093,655.367,527.093z"/><path fill="#f39200" d="M671.704,515.792h3.006v-3.007c0-0.385,0.314-0.698,0.7-0.698c0.385,0,0.698,0.313,0.698,0.698v3.007 h3.008c0.386,0,0.698,0.314,0.698,0.699c0,0.387-0.313,0.7-0.698,0.7h-3.008v3.007c0,0.386-0.313,0.699-0.698,0.699 c-0.386,0-0.7-0.313-0.7-0.699v-3.007h-3.006c-0.386,0-0.7-0.313-0.7-0.7C671.004,516.106,671.318,515.792,671.704,515.792z"/><path fill="#f39200" d="M577.069,464.364h3.353v-3.353c0-0.431,0.349-0.779,0.778-0.779c0.431,0,0.78,0.349,0.78,0.779v3.353 h3.353c0.43,0,0.778,0.349,0.778,0.778s-0.349,0.779-0.778,0.779h-3.353v3.353c0,0.431-0.35,0.779-0.78,0.779 c-0.43,0-0.778-0.349-0.778-0.779v-3.353h-3.353c-0.43,0-0.778-0.35-0.778-0.779S576.64,464.364,577.069,464.364z"/><path fill="#ebeff0" d="M616.663,495.585c0.172,0,0.346-0.05,0.499-0.154c4.652-3.152,7.758-4.755,7.789-4.771 c0.438-0.225,0.61-0.762,0.387-1.2c-0.225-0.438-0.763-0.611-1.201-0.387c-0.129,0.066-3.225,1.663-7.976,4.882 c-0.407,0.275-0.513,0.831-0.237,1.239C616.096,495.447,616.377,495.585,616.663,495.585z"/><path fill="#ebeff0" d="M595.262,636.601c0.43,0,0.809-0.313,0.878-0.75l0.623-3.865c0.078-0.485-0.253-0.943-0.738-1.021 c-0.489-0.079-0.944,0.253-1.021,0.738l-0.622,3.866c-0.078,0.484,0.251,0.942,0.737,1.021 C595.166,636.598,595.215,636.601,595.262,636.601z"/><path fill="#ebeff0" d="M596.52,628.784c0.43,0,0.808-0.311,0.879-0.749l1.508-9.362c0.078-0.487-0.253-0.945-0.738-1.022 c-0.486-0.078-0.943,0.252-1.021,0.738l-1.509,9.363c-0.078,0.485,0.253,0.943,0.738,1.021 C596.425,628.781,596.474,628.784,596.52,628.784z"/><polygon fill="#ffd423" points="605.905 586.61 521.65 586.61 530.625 638.058 597.659 638.058"/><path fill="#424c47" d="M480.479,533.276c8.059,15.526,17.159,26.679,26.355,34.671c29.501,25.621,59.977,18.663,59.977,18.663 s-8.309-41.525-49.295-52.201C507.316,531.747,495.098,530.999,480.479,533.276z"/><path fill="#000000" d="M566.498,586.931l0.62-0.642c-0.04-0.038-4.038-3.884-10.589-9.444 c-16.006-13.588-47.155-37.371-75.95-44.002l-0.2,0.868c28.61,6.589,59.631,30.277,75.574,43.813 C562.479,583.064,566.459,586.894,566.498,586.931z"/><rect width="26.522" height=".892" x="519.713" y="572.581" fill="#000000" transform="matrix(-0.9361 0.3517 -0.3517 -0.9361 1233.4219 922.0173)"/><rect width="28.697" height=".891" x="514.106" y="569.531" fill="#000000" transform="matrix(-0.9593 0.2822 -0.2822 -0.9593 1196.2957 967.6245)"/><rect width=".891" height="22.558" x="525.116" y="534.919" fill="#000000" transform="matrix(-0.9381 0.3463 -0.3463 -0.9381 1207.757 876.587)"/><path fill="#000000" d="M516.768,549.26l0.449-0.771l-0.225,0.386l0.227-0.385c-0.806-0.525-4.147-8.445-6.912-15.799 l-0.836,0.315C510.437,535.572,515.326,548.421,516.768,549.26z"/><rect width="17.821" height=".891" x="491.028" y="547.359" fill="#000000" transform="matrix(-0.8965 0.443 -0.443 -0.8965 1190.8151 817.4674)"/><rect width=".892" height="20.114" x="551.284" y="554.575" fill="#000000" transform="matrix(-0.9901 0.1402 -0.1402 -0.9901 1177.1693 1046.3379)"/><rect width="28.795" height=".891" x="507.109" y="564.314" fill="#000000" transform="matrix(-0.9631 0.2693 -0.2693 -0.9631 1175.8271 968.2269)"/><path fill="#424c47" d="M523.604,545.228c13.587,35.184,42.654,43.326,42.654,43.326s6.913-22.336-2.43-45.487 c-6.218-15.405-19.626-31.172-47.049-40.965C516.445,519.713,519.217,533.878,523.604,545.228z"/><path fill="#000000" d="M565.834,588.688l0.851-0.269c-0.016-0.052-1.662-5.243-4.708-13.108 c-7.441-19.22-23.169-54.331-44.899-73.543l-0.591,0.669c21.589,19.085,37.246,54.051,44.658,73.194 C564.18,583.471,565.818,588.638,565.834,588.688z"/><rect width=".892" height="26.033" x="542.993" y="547.968" fill="#000000" transform="matrix(-0.1379 0.9904 -0.9904 -0.1379 1174.0034 100.0949)"/><rect width=".891" height="28.168" x="540.524" y="542.151" fill="#000000" transform="matrix(-0.2094 0.9778 -0.9778 -0.2094 1198.1433 143.7201)"/><rect width="22.143" height=".891" x="538.543" y="533.926" fill="#000000" transform="matrix(-0.1429 0.9897 -0.9897 -0.1429 1157.0571 66.7799)"/><path fill="#000000" d="M540.588,532.896l0.762-0.464l-0.379,0.232l0.381-0.229c-0.446-0.838,0.381-9.23,1.44-16.86l-0.884-0.122 C541.389,519.198,539.758,531.528,540.588,532.896z"/><rect width=".891" height="17.493" x="526.315" y="515.005" fill="#000000" transform="matrix(-0.0383 0.9993 -0.9993 -0.0383 1070.3271 17.463)"/><rect width="19.745" height=".892" x="553.678" y="562.086" fill="#000000" transform="matrix(-0.3488 0.9372 -0.9372 -0.3488 1287.3303 230.608)"/><rect width=".891" height="28.267" x="536.974" y="534.347" fill="#000000" transform="matrix(-0.2257 0.9742 -0.9742 -0.2257 1193.0598 148.7465)"/><path fill="#424c47" d="M632.465,505.591c0.088-7.258-0.526-15.122-1.992-23.638c-67.184,36.227-66.363,87.64-64.496,102.701 c0.34,2.765,0.717,4.301,0.717,4.301s40.359-8.74,57.85-46.402v-0.004C629.24,532.44,632.285,520.251,632.465,505.591"/><path fill="#000000" d="M566.693,589.403c0.244,0,0.264,0,3.479-3.643c1.823-2.064,4.729-5.418,8.229-9.676 c16.358-19.904,44.932-58.587,52.508-94.037l-0.872-0.187c-7.534,35.265-36.018,73.817-52.324,93.658 c-6.771,8.238-11.301,13.084-11.344,13.13l0.324,0.305V589.403z"/><rect width=".889" height="32.557" x="582.262" y="530.885" fill="#000000" transform="matrix(-0.9303 0.3668 -0.3668 -0.9303 1325.5118 842.4188)"/><rect width=".893" height="35.227" x="585.915" y="523.941" fill="#000000" transform="matrix(-0.9547 0.2975 -0.2975 -0.9547 1307.2743 884.1723)"/><rect width="27.691" height=".892" x="601.646" y="537.095" fill="#000000" transform="matrix(-0.9323 0.3616 -0.3616 -0.9323 1383.7141 816.1326)"/><path fill="#000000" d="M612.429,527.295c0.57-1.02,10.372-5.313,19.306-8.836l-0.328-0.831 c-3.126,1.234-18.771,7.474-19.756,9.229L612.429,527.295z"/><rect width=".891" height="21.877" x="612.576" y="495.184" fill="#000000" transform="matrix(-0.8889 0.4581 -0.4581 -0.8889 1389.7983 675.1559)"/><rect width="24.692" height=".891" x="581.031" y="569.575" fill="#000000" transform="matrix(-0.9877 0.1565 -0.1565 -0.9877 1268.6305 1040.1801)"/><rect width=".889" height="35.347" x="592.186" y="515.253" fill="#000000" transform="matrix(-0.9587 0.2844 -0.2844 -0.9587 1312.3616 875.283)"/><polygon fill="#c7a300" points="539.856 586.61 521.846 586.61 530.82 638.058 544.104 638.058"/><path fill="#424c47" d="M566.693,588.956c0,0-9.381-46.891-62.503-38.612C528.725,597.628,566.693,588.956,566.693,588.956z"/><path fill="#000000" d="M566.383,589.276l0.619-0.642c-0.028-0.027-2.926-2.815-7.672-6.843 c-11.597-9.844-34.17-27.077-55.041-31.884l-0.199,0.869c20.687,4.765,43.128,21.903,54.664,31.693 C563.476,586.479,566.355,589.25,566.383,589.276z"/><rect width="19.203" height=".892" x="532.596" y="578.676" fill="#000000" transform="matrix(-0.9361 0.3517 -0.3517 -0.9361 1253.4386 930.5391)"/><rect width="20.775" height=".891" x="528.536" y="576.468" fill="#000000" transform="matrix(-0.9593 0.2823 -0.2823 -0.9593 1218.7767 978.2454)"/><rect width=".891" height="16.333" x="536.383" y="551.531" fill="#000000" transform="matrix(-0.9378 0.3473 -0.3473 -0.9378 1234.6172 898.1319)"/><path fill="#000000" d="M530.401,562.021l0.448-0.771l0.012,0.008c-0.602-0.465-2.995-6.152-4.963-11.383l-0.834,0.314 C526.328,553.548,529.377,561.426,530.401,562.021z"/><rect width="12.902" height=".891" x="511.828" y="560.415" fill="#000000" transform="matrix(-0.8965 0.443 -0.443 -0.8965 1231.3967 834.0632)"/><rect width=".893" height="14.563" x="555.329" y="565.763" fill="#000000" transform="matrix(-0.99 0.1411 -0.1411 -0.99 1186.8545 1061.9263)"/><rect width="20.847" height=".892" x="523.47" y="572.691" fill="#000000" transform="matrix(-0.9631 0.2693 -0.2693 -0.9631 1202.3918 981.35)"/><path fill="#424c47" d="M612.49,568.846c2.076-3.659,3.905-7.927,5.387-12.901c-44.436,1.524-51.523,33.249-51.523,33.249 S596.621,596.821,612.49,568.846"/><path fill="#000000" d="M566.51,589.611c0.032-0.012,3.173-1.196,7.914-3.328c11.586-5.211,32.683-16.044,43.803-30.062 l-0.697-0.555c-11.004,13.87-31.959,24.626-43.471,29.803c-4.715,2.121-7.831,3.295-7.863,3.307L566.51,589.611z"/><rect width="16.027" height=".89" x="574.54" y="573.817" fill="#000000" transform="matrix(-0.0848 0.9964 -0.9964 -0.0848 1204.1589 42.517)"/><rect width="17.342" height=".892" x="576.722" y="572.141" fill="#000000" transform="matrix(-0.1576 0.9875 -0.9875 -0.1576 1243.0647 84.7266)"/><rect width=".891" height="13.632" x="598.672" y="570.369" fill="#000000" transform="matrix(-0.0898 0.996 -0.996 -0.0898 1227.7952 32.3475)"/><path fill="#000000" d="M610.434,572.547l0.076-0.888c-2.992-0.255-10.042-0.782-10.878-0.213l0.503,0.737l-0.02,0.012 C600.719,571.918,605.837,572.156,610.434,572.547z"/><rect width=".893" height="10.77" x="604.451" y="557.404" fill="#000000" transform="matrix(-0.9999 0.0131 -0.0131 -0.9999 1217.1301 1117.5875)"/><rect width=".889" height="12.156" x="581.818" y="580.598" fill="#000000" transform="matrix(-0.2987 0.9543 -0.9543 -0.2987 1316.0808 206.2447)"/><rect width="17.401" height=".892" x="581.342" y="569.706" fill="#000000" transform="matrix(-0.1709 0.9853 -0.9853 -0.1709 1252.6416 86.2244)"/><path fill="#c7a300" d="M593.027,596.44c0.219,0,0.41-0.162,0.441-0.386c0.032-0.245-0.139-0.469-0.382-0.502l-55.711-7.538 c-0.245-0.031-0.469,0.139-0.502,0.382c-0.032,0.245,0.137,0.47,0.382,0.502l55.712,7.538 C592.987,596.438,593.008,596.44,593.027,596.44z"/><path fill="#c7a300" d="M587.648,603.958c0.22,0,0.411-0.162,0.441-0.385c0.032-0.246-0.138-0.47-0.382-0.502l-51.429-6.96 c-0.242-0.032-0.469,0.139-0.501,0.382c-0.034,0.244,0.137,0.47,0.38,0.502l51.43,6.959 C587.609,603.956,587.629,603.958,587.648,603.958z"/><path fill="#c7a300" d="M584.29,611.747c0.22,0,0.41-0.162,0.44-0.386c0.033-0.244-0.139-0.469-0.382-0.502l-49.164-6.652 c-0.243-0.033-0.47,0.138-0.503,0.384c-0.032,0.243,0.139,0.467,0.383,0.5l49.164,6.653 C584.248,611.746,584.27,611.747,584.29,611.747z"/><path fill="#c7a300" d="M580.239,619.444c0.221,0,0.412-0.163,0.441-0.387c0.034-0.243-0.138-0.468-0.382-0.5l-46.21-6.254 c-0.245-0.029-0.469,0.139-0.501,0.383c-0.033,0.243,0.138,0.469,0.381,0.501l46.211,6.254 C580.199,619.443,580.22,619.444,580.239,619.444z"/><path fill="#c7a300" d="M578.023,627.39c0.221,0,0.412-0.163,0.441-0.387c0.034-0.243-0.138-0.468-0.382-0.501l-45.091-6.103 c-0.243-0.029-0.467,0.14-0.501,0.384c-0.032,0.243,0.138,0.468,0.382,0.5l45.092,6.103 C577.984,627.389,578.005,627.39,578.023,627.39z"/><path fill="#c7a300" d="M572.094,634.831c0.219,0,0.411-0.162,0.441-0.386c0.032-0.245-0.139-0.468-0.383-0.502l-40.255-5.446 c-0.245-0.032-0.468,0.139-0.502,0.383c-0.032,0.244,0.14,0.468,0.382,0.501l40.257,5.446 C572.054,634.83,572.074,634.831,572.094,634.831z"/><path fill="#FFF" d="M576.461,542.446c0.344,0,0.671-0.201,0.818-0.536c0.922-2.127,1.945-4.26,3.042-6.342 c0.229-0.435,0.063-0.974-0.373-1.204c-0.435-0.23-0.974-0.063-1.203,0.373c-1.12,2.12-2.162,4.295-3.103,6.463 c-0.197,0.451,0.012,0.977,0.463,1.172C576.222,542.422,576.342,542.446,576.461,542.446z"/><path fill="#FFF" d="M582.659,530.558c0.3,0,0.593-0.15,0.762-0.425c1.355-2.209,2.828-4.411,4.378-6.545 c0.29-0.398,0.201-0.956-0.197-1.245c-0.397-0.289-0.955-0.2-1.246,0.197c-1.575,2.172-3.075,4.412-4.455,6.66 c-0.257,0.419-0.126,0.969,0.293,1.227C582.339,530.517,582.501,530.558,582.659,530.558z"/><path fill="#FFF" d="M590.348,519.683c0.262,0,0.52-0.115,0.696-0.334c5.512-6.84,11.987-13.199,19.25-18.9 c0.388-0.304,0.456-0.864,0.151-1.252c-0.305-0.387-0.864-0.454-1.251-0.15c-7.369,5.784-13.943,12.239-19.539,19.186 c-0.31,0.383-0.249,0.944,0.134,1.253C589.955,519.616,590.152,519.683,590.348,519.683z"/><path fill="#FFF" d="M577.052,574.438c0.214,0,0.427-0.076,0.598-0.23c2.649-2.393,6.528-4.954,11.524-7.613 c0.436-0.23,0.601-0.771,0.369-1.205c-0.23-0.435-0.771-0.6-1.207-0.368c-5.124,2.726-9.123,5.372-11.881,7.864 c-0.366,0.329-0.396,0.893-0.064,1.258C576.566,574.339,576.809,574.438,577.052,574.438z"/><path fill="#FFF" d="M593.127,565.578c0.106,0,0.215-0.02,0.32-0.059c3.565-1.372,7.495-2.718,11.682-3.996 c0.473-0.144,0.736-0.644,0.594-1.114c-0.145-0.47-0.643-0.736-1.114-0.592c-4.227,1.292-8.197,2.65-11.802,4.037 c-0.46,0.178-0.688,0.693-0.512,1.151C592.432,565.36,592.769,565.578,593.127,565.578z"/><path fill="#FFF" d="M608.641,560.449c0.079,0,0.162-0.011,0.244-0.033c2.645-0.754,4.334-1.175,4.351-1.18 c0.479-0.119,0.77-0.603,0.651-1.081c-0.119-0.478-0.603-0.771-1.081-0.649c-0.017,0.005-1.732,0.432-4.41,1.195 c-0.474,0.135-0.748,0.627-0.612,1.101C607.894,560.193,608.252,560.449,608.641,560.449z"/><path fill="#FFF" d="M520.56,516.404c0.04,0,0.081-0.003,0.121-0.008c0.487-0.066,0.829-0.515,0.764-1.002 c-0.237-1.75-0.453-3.425-0.505-4.713c-0.02-0.493-0.425-0.879-0.926-0.855c-0.492,0.018-0.875,0.434-0.855,0.925 c0.054,1.367,0.276,3.089,0.52,4.881C519.738,516.081,520.122,516.404,520.56,516.404z"/><path fill="#FFF" d="M534.965,514.663c0.272,0,0.542-0.123,0.718-0.36c0.292-0.395,0.21-0.954-0.187-1.246 c-2.441-1.811-4.801-3.348-7.012-4.568c-1.345-0.742-2.465-1.295-3.422-1.685c-0.455-0.188-0.978,0.031-1.162,0.489 c-0.186,0.455,0.033,0.975,0.488,1.161c0.894,0.363,1.95,0.886,3.233,1.595c2.142,1.184,4.434,2.677,6.813,4.439 C534.594,514.606,534.78,514.663,534.965,514.663z"/><path fill="#FFF" d="M546.162,524.642c0.173,0,0.347-0.049,0.5-0.153c0.408-0.276,0.515-0.83,0.238-1.237 c-0.539-0.795-3.06-3.321-6.19-6.019c-0.374-0.321-0.938-0.28-1.258,0.094c-0.321,0.373-0.279,0.937,0.094,1.258 c3.485,3,5.587,5.238,5.878,5.667C545.597,524.504,545.877,524.642,546.162,524.642z"/><path fill="#FFF" d="M505.852,536.967c0.438,0,0.82-0.322,0.882-0.771c0.067-0.487-0.274-0.937-0.762-1.003 c-1.133-0.156-2.257-0.299-3.341-0.423c-0.488-0.055-0.932,0.295-0.988,0.784c-0.056,0.488,0.295,0.931,0.785,0.988 c1.069,0.123,2.18,0.263,3.302,0.416C505.771,536.965,505.812,536.967,505.852,536.967z"/><path fill="#FFF" d="M521.628,553.086c0.422,0,0.799-0.302,0.876-0.733c0.088-0.484-0.234-0.947-0.72-1.035 c-1.214-0.218-2.439-0.409-3.647-0.567c-0.49-0.06-0.936,0.279-1.001,0.768c-0.063,0.488,0.28,0.936,0.769,1 c1.18,0.154,2.379,0.342,3.565,0.555C521.521,553.082,521.576,553.086,521.628,553.086z"/><path fill="#FFF" d="M532.109,555.759c0.373,0,0.723-0.237,0.846-0.61c0.157-0.467-0.096-0.973-0.563-1.128 c-0.43-0.143-0.864-0.283-1.306-0.422c-0.471-0.146-0.97,0.116-1.117,0.587c-0.146,0.469,0.116,0.97,0.587,1.115 c0.43,0.134,0.854,0.272,1.271,0.411C531.921,555.743,532.016,555.759,532.109,555.759z"/><path fill="#FFF" d="M548.964,564.004c0.282,0,0.562-0.135,0.734-0.385c0.28-0.405,0.179-0.961-0.228-1.24 c-0.336-0.231-0.705-0.482-1.112-0.746c-0.413-0.271-0.965-0.153-1.233,0.259c-0.269,0.413-0.152,0.965,0.26,1.233 c0.393,0.256,0.75,0.498,1.074,0.722C548.613,563.952,548.791,564.004,548.964,564.004z"/><path fill="#FFF" d="M551.197,565.65c0.267,0,0.532-0.119,0.708-0.35c0.299-0.39,0.226-0.949-0.166-1.249l-0.102-0.079 c-0.308-0.243-1.029-0.809-2.166-1.594c-0.405-0.279-0.961-0.179-1.241,0.227c-0.279,0.406-0.178,0.961,0.229,1.241 c1.092,0.754,1.783,1.296,2.079,1.527l0.116,0.091C550.816,565.59,551.008,565.65,551.197,565.65z"/><path fill="#FFF" d="M598.842,614.358c0.43,0,0.81-0.313,0.88-0.751l2.291-14.229c0.077-0.486-0.253-0.943-0.738-1.023 c-0.487-0.078-0.944,0.254-1.022,0.74l-2.292,14.23c-0.077,0.484,0.254,0.942,0.738,1.021 C598.748,614.354,598.796,614.358,598.842,614.358z"/><path fill="#FFF" d="M601.716,596.513c0.43,0,0.809-0.313,0.877-0.751l0.87-5.391c0.077-0.485-0.253-0.942-0.739-1.021 c-0.487-0.077-0.943,0.252-1.022,0.738l-0.866,5.391c-0.079,0.484,0.251,0.942,0.737,1.021 C601.62,596.509,601.668,596.513,601.716,596.513z"/><path fill="#000000" d="M623.182,545.997c0.198,0,0.396-0.087,0.527-0.258c1.612-2.07,3.047-5.012,4.262-8.745 c0.114-0.352-0.077-0.729-0.428-0.843c-0.352-0.115-0.729,0.078-0.844,0.429c-1.168,3.586-2.528,6.39-4.045,8.338 c-0.228,0.291-0.175,0.711,0.116,0.938C622.893,545.951,623.036,545.997,623.182,545.997z"/><path fill="#000000" d="M629.207,530.319c0.309,0,0.586-0.216,0.652-0.53c1.104-5.222,1.949-11.455,2.514-18.528 c0.03-0.368-0.244-0.691-0.613-0.72c-0.364-0.023-0.689,0.245-0.72,0.614c-0.56,7.014-1.397,13.19-2.489,18.357 c-0.076,0.36,0.154,0.716,0.516,0.793C629.114,530.314,629.16,530.319,629.207,530.319z"/><path fill="#000000" d="M632.22,503.592c0.356,0,0.652-0.281,0.667-0.64c0.372-8.216,0.255-14.339,0.255-14.399 c-0.008-0.364-0.306-0.656-0.67-0.656c0,0-0.007,0-0.013,0c-0.369,0.009-0.662,0.314-0.654,0.684 c0.001,0.061,0.115,6.142-0.254,14.313c-0.016,0.368,0.27,0.681,0.639,0.697C632.199,503.59,632.211,503.592,632.22,503.592z"/><path fill="#000000" d="M593.15,587.282c0.088,0,0.179-0.018,0.265-0.056c2.071-0.897,4.097-2.017,6.018-3.326 c0.305-0.209,0.383-0.624,0.176-0.931c-0.208-0.305-0.624-0.383-0.93-0.175c-1.852,1.263-3.801,2.342-5.794,3.205 c-0.339,0.146-0.495,0.54-0.349,0.88C592.646,587.132,592.892,587.282,593.15,587.282z"/><path fill="#000000" d="M605.717,578.295c0.178,0,0.355-0.069,0.486-0.209c7.781-8.222,10.961-17.538,11.093-17.93 c0.117-0.351-0.071-0.729-0.422-0.847c-0.349-0.116-0.729,0.07-0.847,0.422c-0.031,0.093-3.225,9.437-10.795,17.436 c-0.254,0.268-0.242,0.691,0.025,0.945C605.387,578.234,605.553,578.295,605.717,578.295z"/><path fill="#000000" d="M534.82,511.229c0.233,0,0.461-0.122,0.583-0.343c0.18-0.321,0.065-0.729-0.258-0.909 c-6.708-3.742-11.224-5.783-11.267-5.805c-0.338-0.149-0.734,0-0.886,0.336c-0.15,0.337-0.001,0.733,0.336,0.885 c0.044,0.02,4.514,2.039,11.165,5.751C534.598,511.202,534.709,511.229,534.82,511.229z"/><path fill="#000000" d="M551.43,523.848c0.165,0,0.329-0.06,0.459-0.183c0.269-0.253,0.281-0.675,0.027-0.944 c-1.719-1.826-3.568-3.568-5.499-5.179c-0.284-0.237-0.705-0.198-0.941,0.085c-0.236,0.282-0.199,0.706,0.085,0.942 c1.889,1.575,3.7,3.281,5.383,5.067C551.075,523.777,551.252,523.848,551.43,523.848z"/><path fill="#000000" d="M558.062,532.24c0.128,0,0.254-0.036,0.367-0.11c0.31-0.202,0.395-0.618,0.191-0.926 c-1.229-1.873-2.585-3.703-4.022-5.444c-0.234-0.285-0.655-0.325-0.94-0.09c-0.284,0.235-0.324,0.657-0.089,0.941 c1.407,1.704,2.731,3.496,3.934,5.328C557.631,532.135,557.845,532.24,558.062,532.24z"/><path fill="#000000" d="M563.828,543.734c0.063,0,0.127-0.009,0.192-0.028c0.354-0.105,0.554-0.479,0.448-0.831 c-0.03-0.104-0.787-2.606-2.748-6.388c-0.171-0.328-0.575-0.456-0.902-0.287c-0.326,0.17-0.454,0.574-0.286,0.902 c1.897,3.658,2.647,6.13,2.655,6.154C563.275,543.547,563.54,543.734,563.828,543.734z"/><path fill="#000000" d="M530.555,552.052c0.293,0,0.561-0.196,0.643-0.491c0.099-0.356-0.111-0.725-0.467-0.822 c-3.456-0.953-7.104-1.605-10.847-1.945c-0.366-0.028-0.692,0.238-0.727,0.607c-0.032,0.368,0.239,0.69,0.606,0.726 c3.663,0.33,7.234,0.97,10.611,1.9C530.435,552.043,530.494,552.052,530.555,552.052z"/><path fill="#000000" d="M549.266,561.445c0.196,0,0.393-0.087,0.523-0.253c0.229-0.289,0.182-0.71-0.108-0.94 c-3.087-2.449-6.499-4.56-10.136-6.268c-0.336-0.157-0.733-0.013-0.891,0.321s-0.014,0.732,0.32,0.89 c3.546,1.664,6.867,3.719,9.875,6.105C548.973,561.398,549.119,561.445,549.266,561.445z"/><path fill="#000000" d="M558.835,571.851c0.112,0,0.226-0.028,0.328-0.088c0.322-0.182,0.435-0.59,0.253-0.912 c-0.071-0.123-1.781-3.108-5.579-6.9c-0.263-0.261-0.685-0.261-0.945,0.002c-0.263,0.26-0.261,0.685,0,0.944 c3.67,3.664,5.344,6.586,5.36,6.614C558.375,571.729,558.603,571.851,558.835,571.851z"/><polygon fill="#ebeff0" points="294.219 900.384 283.154 938.122 292.555 947.801 307.374 907.974"/><polygon fill="#ebeff0" points="478.721 872.778 507.433 900.384 511.138 889.042 489.835 861.284"/><polygon fill="#000000" points="393.619 402.993 393.619 450.169 368.759 426.58"/><path fill="#ebeff0" d="M387.75,456.027c-3.82-1.887-28.852-5.576-28.852-5.576l2.461-15.596 c20.157-6.9,34.727-26.753,34.727-50.183c0-29.157-22.554-52.793-50.376-52.793s-50.376,23.636-50.376,52.793 c0,19.526,10.123,36.564,25.162,45.697l3.893,20.081c0,0-20.175,0.147-20.607,5.65c-0.434,5.503,18.412,47.231,37.862,51.346 S391.569,457.914,387.75,456.027z"/><path fill="#FFF" d="M657.619,423.837c0,5.115-4.146,9.262-9.262,9.262H482.881c-5.115,0-9.262-4.146-9.262-9.262V217.36 c0-5.115,4.146-9.262,9.262-9.262h165.477c5.115,0,9.262,4.146,9.262,9.262V423.837z"/><path fill="#000000" d="M659.619,423.447c0,5.883-4.769,10.651-10.651,10.651H483.271c-5.883,0-10.651-4.769-10.651-10.651V216.75 c0-5.883,4.769-10.651,10.651-10.651h165.697c5.883,0,10.651,4.769,10.651,10.651V423.447z M656.619,216.972 c0-4.348-3.525-7.873-7.873-7.873H482.492c-4.348,0-7.873,3.525-7.873,7.873v206.254c0,4.349,3.525,7.873,7.873,7.873h166.254 c4.348,0,7.873-3.524,7.873-7.873V216.972z"/><path fill="#000000" d="M531.619,265.836c0,5.115-4.146,9.262-9.262,9.262h-24.477c-5.115,0-9.262-4.147-9.262-9.262v-38.476 c0-5.115,4.146-9.262,9.262-9.262h24.477c5.115,0,9.262,4.147,9.262,9.262V265.836z"/><path fill="#000000" d="M635.619,266.32c0,1.535-1.244,2.779-2.779,2.779h-63.441c-1.535,0-2.779-1.244-2.779-2.779v-0.442 c0-1.535,1.244-2.779,2.779-2.779h63.441c1.535,0,2.779,1.244,2.779,2.779V266.32z"/><path fill="#000000" d="M600.979,256.099c0,1.535-0.622,3-1.389,3h-31.491c-0.767,0-1.39-1.465-1.39-3l0,0c0-1.534,0.623-3,1.39-3 h31.491C600.356,253.099,600.979,254.564,600.979,256.099L600.979,256.099z"/><path fill="#000000" d="M557.447,301.099c0,1.535-1.244,3-2.778,3h-62.981c-1.535,0-2.779-1.465-2.779-3l0,0 c0-1.534,1.244-3,2.779-3h62.981C556.203,298.099,557.447,299.564,557.447,301.099L557.447,301.099z"/><path fill="#000000" d="M557.619,363.32c0,1.534-1.244,2.778-2.778,2.778h-63.443c-1.534,0-2.778-1.244-2.778-2.778v-0.443 c0-1.534,1.244-2.778,2.778-2.778h63.443c1.534,0,2.778,1.244,2.778,2.778V363.32z"/><path fill="#000000" d="M643.606,319.099c0,1.535-2.807,3-6.272,3H495.181c-3.464,0-6.272-1.465-6.272-3l0,0 c0-1.534,2.809-3,6.272-3h142.153C640.8,316.099,643.606,317.564,643.606,319.099L643.606,319.099z"/><path fill="#000000" d="M557.619,338.32c0,1.534-1.244,2.778-2.778,2.778h-63.443c-1.534,0-2.778-1.244-2.778-2.778v-0.443 c0-1.534,1.244-2.778,2.778-2.778h63.443c1.534,0,2.778,1.244,2.778,2.778V338.32z"/><path fill="#000000" d="M643.606,385.599c0,1.533-2.807,2.5-6.272,2.5H495.181c-3.464,0-6.272-0.967-6.272-2.5l0,0 c0-1.533,2.809-2.5,6.272-2.5h142.153C640.8,383.099,643.606,384.065,643.606,385.599L643.606,385.599z"/><path fill="#000000" d="M557.619,405.319c0,1.535-1.244,2.779-2.778,2.779h-63.443c-1.534,0-2.778-1.244-2.778-2.779v-0.441 c0-1.535,1.244-2.779,2.778-2.779h63.443c1.534,0,2.778,1.244,2.778,2.779V405.319z"/><path fill="#000000" d="M579.825,229.525c-0.649-2.095-2.348-3.323-4.335-3.323c-3.431,0-4.947,2.637-4.947,6.213 c0,3.72,1.66,6.213,4.947,6.213c2.312,0,3.54-1.084,4.227-3.071l4.443,0.975c-1.191,3.974-4.335,6.177-8.67,6.177 c-6.031,0-9.535-4.407-9.571-10.295c0.036-5.996,3.684-10.294,9.608-10.294c4.442,0,7.693,2.384,8.633,6.213L579.825,229.525z"/><path fill="#000000" d="M604.534,222.662l-7.079,19.506h-4.371l-7.08-19.506h4.371l4.912,14.125l4.877-14.125H604.534z"/><path fill="#FFF" d="M861.619,389.304c0,5.116-4.526,8.795-9.642,8.795H686.188c-5.114,0-9.569-3.679-9.569-8.795V182.762 c0-5.115,4.455-9.663,9.569-9.663h165.789c5.115,0,9.642,4.548,9.642,9.663V389.304z"/><path fill="#000000" d="M862.619,389.447c0,5.883-4.769,10.651-10.65,10.651H686.27c-5.882,0-10.65-4.769-10.65-10.651V182.75 c0-5.883,4.769-10.651,10.65-10.651h165.699c5.882,0,10.65,4.769,10.65,10.651V389.447z M686.652,174.099 c-4.342,0-8.033,3.859-8.033,8.2v206.542c0,4.342,3.691,8.258,8.033,8.258h165.789c4.34,0,8.178-3.916,8.178-8.258V182.299 c0-4.341-3.838-8.2-8.178-8.2H686.652z"/><path fill="#000000" d="M735.619,231.851c0,5.116-4.489,9.248-9.604,9.248h-24.082c-5.114,0-9.314-4.132-9.314-9.248v-38.9 c0-5.115,4.2-8.852,9.314-8.852h24.082c5.114,0,9.604,3.737,9.604,8.852V231.851z"/><path fill="#000000" d="M839.619,217.32c0,1.534-1.244,2.778-2.779,2.778h-63.441c-1.535,0-2.779-1.244-2.779-2.778v-0.443 c0-1.534,1.244-2.778,2.779-2.778h63.441c1.535,0,2.779,1.244,2.779,2.778V217.32z"/><path fill="#000000" d="M801.812,233.599c0,1.535-0.569,2.5-1.271,2.5h-28.799c-0.701,0-1.27-0.965-1.27-2.5l0,0 c0-1.534,0.568-2.5,1.27-2.5h28.799C801.242,231.099,801.812,232.064,801.812,233.599L801.812,233.599z"/><path fill="#000000" d="M761.619,267.32c0,1.534-1.244,2.778-2.779,2.778h-63.441c-1.535,0-2.779-1.244-2.779-2.778v-0.443 c0-1.534,1.244-2.778,2.779-2.778h63.441c1.535,0,2.779,1.244,2.779,2.778V267.32z"/><path fill="#000000" d="M761.211,329.098c0,1.536-1.244,3-2.779,3h-62.98c-1.535,0-2.779-1.465-2.779-3l0,0 c0-1.534,1.244-3,2.779-3h62.98C759.967,326.099,761.211,327.564,761.211,329.098L761.211,329.098z"/><path fill="#000000" d="M761.619,285.32c0,1.535-1.244,2.779-2.779,2.779h-63.441c-1.535,0-2.779-1.244-2.779-2.779v-0.442 c0-1.535,1.244-2.779,2.779-2.779h63.441c1.535,0,2.779,1.244,2.779,2.779V285.32z"/><path fill="#000000" d="M839.619,285.32c0,1.535-1.244,2.779-2.779,2.779h-63.441c-1.535,0-2.779-1.244-2.779-2.779v-0.442 c0-1.535,1.244-2.779,2.779-2.779h63.441c1.535,0,2.779,1.244,2.779,2.779V285.32z"/><path fill="#000000" d="M761.619,304.32c0,1.534-1.244,2.778-2.779,2.778h-63.441c-1.535,0-2.779-1.244-2.779-2.778v-0.443 c0-1.534,1.244-2.778,2.779-2.778h63.441c1.535,0,2.779,1.244,2.779,2.778V304.32z"/><path fill="#000000" d="M839.619,304.32c0,1.534-1.244,2.778-2.779,2.778h-63.441c-1.535,0-2.779-1.244-2.779-2.778v-0.443 c0-1.534,1.244-2.778,2.779-2.778h63.441c1.535,0,2.779,1.244,2.779,2.778V304.32z"/><path fill="#000000" d="M761.619,351.32c0,1.534-1.244,2.778-2.779,2.778h-63.441c-1.535,0-2.779-1.244-2.779-2.778v-0.443 c0-1.534,1.244-2.778,2.779-2.778h63.441c1.535,0,2.779,1.244,2.779,2.778V351.32z"/><path fill="#000000" d="M839.619,351.32c0,1.534-1.244,2.778-2.779,2.778h-63.441c-1.535,0-2.779-1.244-2.779-2.778v-0.443 c0-1.534,1.244-2.778,2.779-2.778h63.441c1.535,0,2.779,1.244,2.779,2.778V351.32z"/><path fill="#000000" d="M761.211,370.599c0,1.533-1.244,2.5-2.779,2.5h-62.98c-1.535,0-2.779-0.967-2.779-2.5l0,0 c0-1.533,1.244-2.5,2.779-2.5h62.98C759.967,368.099,761.211,369.065,761.211,370.599L761.211,370.599z"/><path fill="#000000" d="M839.012,370.599c0,1.533-1.244,2.5-2.779,2.5h-62.981c-1.534,0-2.778-0.967-2.778-2.5l0,0 c0-1.533,1.244-2.5,2.778-2.5h62.981C837.768,368.099,839.012,369.065,839.012,370.599L839.012,370.599z"/><path fill="#000000" d="M783.589,195.256c-0.649-2.095-2.349-3.323-4.335-3.323c-3.432,0-4.948,2.637-4.948,6.213 c0,3.72,1.661,6.213,4.948,6.213c2.312,0,3.539-1.083,4.227-3.071l4.443,0.975c-1.192,3.974-4.335,6.178-8.67,6.178 c-6.031,0-9.535-4.408-9.572-10.295c0.037-5.996,3.685-10.295,9.609-10.295c4.442,0,7.693,2.384,8.633,6.214L783.589,195.256z"/><path fill="#000000" d="M808.297,188.393l-7.079,19.506h-4.37l-7.08-19.506h4.371l4.912,14.125l4.877-14.125H808.297z"/><path fill="#FFF" d="M993.619,479.837c0,5.115-4.146,9.262-9.262,9.262H818.881c-5.115,0-9.262-4.146-9.262-9.262V273.36 c0-5.115,4.146-9.262,9.262-9.262h165.477c5.115,0,9.262,4.146,9.262,9.262V479.837z"/><path fill="#000000" d="M995.619,479.448c0,5.882-4.769,10.65-10.651,10.65H819.271c-5.883,0-10.651-4.769-10.651-10.65V272.749 c0-5.882,4.769-10.65,10.651-10.65h165.697c5.883,0,10.651,4.769,10.651,10.65V479.448z M993.619,272.971 c0-4.348-3.524-7.873-7.872-7.873H819.491c-4.348,0-7.872,3.524-7.872,7.873v206.254c0,4.349,3.524,7.873,7.872,7.873h166.256 c4.348,0,7.872-3.524,7.872-7.873V272.971z"/><path fill="#000000" d="M867.619,321.836c0,5.115-4.146,9.262-9.262,9.262h-24.477c-5.115,0-9.262-4.147-9.262-9.262v-38.476 c0-5.115,4.146-9.262,9.262-9.262h24.477c5.115,0,9.262,4.147,9.262,9.262V321.836z"/><path fill="#000000" d="M971.457,307.099c0,1.535-1.243,3-2.778,3h-62.981c-1.535,0-2.778-1.465-2.778-3l0,0 c0-1.534,1.243-3,2.778-3h62.981C970.214,304.099,971.457,305.564,971.457,307.099L971.457,307.099z"/><path fill="#000000" d="M971.619,323.32c0,1.535-1.244,2.779-2.778,2.779h-63.443c-1.534,0-2.778-1.244-2.778-2.779v-0.442 c0-1.535,1.244-2.779,2.778-2.779h63.443c1.534,0,2.778,1.244,2.778,2.779V323.32z"/><path fill="#000000" d="M893.656,357.599c0,1.533-1.243,2.5-2.778,2.5h-62.981c-1.535,0-2.778-0.967-2.778-2.5l0,0 c0-1.533,1.243-2.5,2.778-2.5h62.981C892.413,355.099,893.656,356.065,893.656,357.599L893.656,357.599z"/><path fill="#000000" d="M893.619,376.32c0,1.534-1.244,2.778-2.778,2.778h-63.443c-1.534,0-2.778-1.244-2.778-2.778v-0.443 c0-1.534,1.244-2.778,2.778-2.778h63.443c1.534,0,2.778,1.244,2.778,2.778V376.32z"/><path fill="#000000" d="M971.619,376.32c0,1.534-1.244,2.778-2.778,2.778h-63.443c-1.534,0-2.778-1.244-2.778-2.778v-0.443 c0-1.534,1.244-2.778,2.778-2.778h63.443c1.534,0,2.778,1.244,2.778,2.778V376.32z"/><path fill="#000000" d="M893.619,395.32c0,1.534-1.244,2.778-2.778,2.778h-63.443c-1.534,0-2.778-1.244-2.778-2.778v-0.443 c0-1.534,1.244-2.778,2.778-2.778h63.443c1.534,0,2.778,1.244,2.778,2.778V395.32z"/><path fill="#000000" d="M971.619,395.32c0,1.534-1.244,2.778-2.778,2.778h-63.443c-1.534,0-2.778-1.244-2.778-2.778v-0.443 c0-1.534,1.244-2.778,2.778-2.778h63.443c1.534,0,2.778,1.244,2.778,2.778V395.32z"/><path fill="#000000" d="M893.619,442.319c0,1.535-1.244,2.779-2.778,2.779h-63.443c-1.534,0-2.778-1.244-2.778-2.779v-0.441 c0-1.535,1.244-2.779,2.778-2.779h63.443c1.534,0,2.778,1.244,2.778,2.779V442.319z"/><path fill="#000000" d="M982.547,425.599c0,1.535-2.857,2.5-6.383,2.5H831.5c-3.525,0-6.382-0.965-6.382-2.5l0,0 c0-1.533,2.856-2.5,6.382-2.5h144.664C979.689,423.099,982.547,424.065,982.547,425.599L982.547,425.599z"/><path fill="#000000" d="M893.619,462.319c0,1.535-1.244,2.779-2.778,2.779h-63.443c-1.534,0-2.778-1.244-2.778-2.779v-0.441 c0-1.535,1.244-2.779,2.778-2.779h63.443c1.534,0,2.778,1.244,2.778,2.779V462.319z"/><path fill="#000000" d="M916.035,286.023c-0.65-2.095-2.349-3.323-4.336-3.323c-3.431,0-4.947,2.637-4.947,6.213 c0,3.72,1.66,6.213,4.947,6.213c2.313,0,3.541-1.083,4.227-3.07l4.444,0.975c-1.192,3.975-4.335,6.178-8.671,6.178 c-6.031,0-9.535-4.407-9.571-10.295c0.036-5.996,3.685-10.295,9.608-10.295c4.443,0,7.693,2.384,8.634,6.214L916.035,286.023z"/><path fill="#000000" d="M940.744,279.16l-7.08,19.506h-4.37l-7.081-19.506h4.372l4.912,14.125l4.877-14.125H940.744z"/><polygon fill="#f39200" points="530.457 161.742 535.522 172.002 546.845 173.647 538.651 181.634 540.586 192.912 530.457 187.587 520.33 192.912 522.265 181.634 514.07 173.647 525.395 172.002"/><polygon fill="#f39200" points="565.652 150.627 570.718 160.888 582.04 162.533 573.847 170.52 575.781 181.798 565.652 176.473 555.525 181.798 557.46 170.52 549.266 162.533 560.59 160.888"/><polygon fill="#f39200" points="600.849 161.742 605.914 172.002 617.236 173.647 609.042 181.634 610.977 192.912 600.849 187.587 590.721 192.912 592.655 181.634 584.462 173.647 595.785 172.002"/><polygon fill="#f39200" points="734.221 127.472 739.286 137.733 750.608 139.378 742.414 147.365 744.35 158.643 734.221 153.318 724.093 158.643 726.027 147.365 717.834 139.378 729.157 137.733"/><polygon fill="#f39200" points="769.416 116.358 774.481 126.619 785.804 128.264 777.609 136.25 779.545 147.528 769.416 142.204 759.289 147.528 761.224 136.25 753.029 128.264 764.353 126.619"/><polygon fill="#f39200" points="804.611 127.472 809.677 137.733 820.999 139.378 812.806 147.365 814.74 158.643 804.611 153.318 794.484 158.643 796.419 147.365 788.225 139.378 799.549 137.733"/><polygon fill="#f39200" points="866.667 224.723 871.732 234.983 883.055 236.629 874.86 244.615 876.795 255.894 866.667 250.569 856.539 255.894 858.474 244.615 850.28 236.629 861.604 234.983"/><polygon fill="#f39200" points="901.862 213.608 906.928 223.869 918.25 225.515 910.057 233.501 911.99 244.779 901.862 239.455 891.734 244.779 893.67 233.501 885.476 225.515 896.799 223.869"/><polygon fill="#f39200" points="937.058 224.723 942.123 234.983 953.445 236.629 945.252 244.615 947.187 255.894 937.058 250.569 926.93 255.894 928.865 244.615 920.671 236.629 931.994 234.983"/><path fill="#ebeff0" d="M478.721,567.615c-9.234,5.048-20.173,6.613-32.26,2.157c-31.027-11.42-21.46-43.392-25.164-68.398 c-1.324-8.938-1.705-15.635-1.64-20.534c1.056,1.102,1.64,1.741,1.64,1.741l12.967-23.1c0,0-16.672-10.827-22.229-16.384 c-5.557-5.558-8.124-9.563-9.334-16.149c-1.329-7.238,3.552-10.382,7.191-16.291c-7.659-7.716-18.696-9.229-5.267-14.213 c7.307-2.713,13.384,2.482,17.403,7.771c7.012-2.861,17.366-0.175,33.537,16.543C503.932,476.644,492.159,538.403,478.721,567.615z"/><path fill="#f39200" d="M478.721,567.615c-2.89,6.316-5.872,11.104-8.336,13.995c-13.893,16.254-28.712,2.825-27.786,7.372 c1.943,9.538-15.282,58.81,0,69.147c1.241,0.842,2.362,1.969,3.382,3.969H228.629c0,0-43.096-11.527-41.707-29.098 c0.26-3.324,1.965-9.932,4.798-18.305c12.106-35.825,44.792-108.501,72.938-136.239c12.855-12.672,26.646-19.296,39.123-22.324 c3.658-0.89,7.195-1.479,10.567-1.813c9.252,17.266,24.729,45.496,27.295,46.136s20.645-30.66,31.527-50 c6.446,1.399,12.967,4.425,19.024,8.093c12.744,7.697,23.479,18.199,27.462,22.302c-0.065,4.9,0.315,11.587,1.64,20.524 c3.704,25.008-5.863,56.979,25.164,68.398C458.548,574.229,469.486,572.663,478.721,567.615z"/><path fill="#ffd423" d="M516.843,859.867c-24.378,18.061-70.391,29.175-70.391,29.175l-13.606-12.504l13.569-5.557l-0.454-0.436 l-34.547-33.24l-6.872-6.614l-0.02,0.028l-19.589,30.564l-33.852,52.83l-1.742,2.714l9.559,8.336c0,0-3.566,5.873-17.57,12.958 c-27.785-11.115-77.709-47.746-77.709-47.746v-27.73l13.783,8.336l46.931-116.904c-0.38,0.24-15.745,10.045-58.286-18.648 c-43.076-29.055-37.418-73.33-37.418-73.33H445.98c4.694,6,7.158,18.824,8.428,31.605c1.695,17.135,1.25,34.34,1.166,37.063 c0,0.24-0.009,0.31-0.009,0.31l57.859,80.641l1.001,1.374l12.317-10.113l6.493,37.471 C533.236,840.449,541.229,841.806,516.843,859.867z"/><path fill="#ebeff0" d="M387.75,662.099H228.629c0,0-43.096-11.527-41.707-29.098c0.26-3.324,1.965-9.928,4.798-18.301 c17.209-15.697,48.255-33.196,92.499-18.257C332.836,612.855,371.551,641.099,387.75,662.099z"/><polygon fill="#c7a300" points="404.522 830.72 384.934 861.284 354.61 807.681 324.389 754.077"/><path fill="#c7a300" d="M455.574,730.645l-67.824-69.039l66.658,31.852C456.104,710.592,455.658,727.921,455.574,730.645z"/><path fill="#c7a300" d="M358.898,925.164c0,0-3.566,5.873-17.57,12.958c-27.785-11.115-77.709-47.746-77.709-47.746v-27.73 l13.783,8.336c0,0,48.458,30.843,73.624,43.133l-1.714,2.714L358.898,925.164z"/><path fill="#c7a300" d="M516.843,859.867c-24.378,18.061-70.391,29.175-70.391,29.175l-13.606-12.504l13.569-5.557l-0.454-0.436 c11.93-0.86,25.656-4.315,37.391-13.707c17.449-13.958,26.072-32.954,30.073-45.152l1.001,1.39l12.317-10.105l6.493,37.475 C533.236,840.445,541.229,841.806,516.843,859.867z"/><path fill="#c7a300" d="M392.195,458.546c-9.447,20.729-28.426,55.35-46.848,47.459c-9.132-3.992-1.936-2.334-12.54,1.148 c-9.29,3.047-33.148-17.849-29.026-51.052c3.658-0.89,7.195-1.464,10.567-1.798c9.252,17.266,24.729,45.504,27.295,46.144 s20.645-30.656,31.527-49.996C379.617,451.851,386.138,454.878,392.195,458.546z"/><path fill="#000000" d="M347.218,458.064c-7.394-5.451-20.13-52.422-26.294-76.648c1.061,0.056,2.19,0.068,3.401,0.033 c27.386-0.798,69.979-16.696,74.918-19.153c0,0-2.545-21.547-14.542-33.518c-2.713-2.708-7.22-4.513-12.662-5.48 c-28.595-12.801-64.531-11.455-83.878,11.864c-46.288,55.791-4.788,102.966-4.788,102.966S357.233,465.446,347.218,458.064z"/><path fill="#000000" d="M376.471,374.315c1.812,3.77,3.114,7.675,5.557,11.114c0.078-0.605,0.156-1.212,0.234-1.817 c-1.456,1.298-2.909,2.308-3.939,4.009c-1.006,1.659,1.589,3.165,2.59,1.514c0.892-1.471,2.221-2.286,3.471-3.401 c0.468-0.417,0.604-1.296,0.234-1.817c-2.438-3.433-3.748-7.352-5.557-11.114C378.223,371.059,375.637,372.581,376.471,374.315 L376.471,374.315z"/><path fill="#000000" d="M410.352,408.385c-9.056,6.474-17.927,29.955-0.17,30.581c1.936,0.068,1.929-2.932,0-3 c-14.07-0.496-4.918-20.271,1.684-24.991C413.424,409.86,411.929,407.257,410.352,408.385L410.352,408.385z"/><path fill="#000000" d="M416.531,419.734c-5.368,5.679-14.73,24.434-2.117,27.514c1.879,0.459,2.676-2.434,0.797-2.893 c-9.479-2.314-0.367-18.47,3.441-22.5C419.98,420.451,417.862,418.326,416.531,419.734L416.531,419.734z"/><path fill="#000000" d="M425.559,425.595c-5.302,8.584-13.239,24.032-1.314,30.764c1.687,0.952,3.198-1.64,1.514-2.59 c-10.066-5.683-1.931-19.663,2.391-26.66C429.168,425.458,426.572,423.952,425.559,425.595L425.559,425.595z"/><path fill="#000000" d="M435.717,447.248c2.039,0.316,4.156,1.011,3.703,3.47c-0.455,2.462-2.559,4.506-4.365,6.064 c-1.468,1.266,0.664,3.378,2.121,2.121c2.63-2.269,4.964-5.129,5.319-8.693c0.353-3.528-3.001-5.393-5.981-5.854 C434.622,444.063,433.81,446.952,435.717,447.248L435.717,447.248z"/><path fill="#000000" d="M421.648,500.447c-0.082,24.722-3.712,52.716,19.268,68.907c1.585,1.117,3.082-1.485,1.514-2.59 c-21.854-15.399-17.859-42.959-17.781-66.317C424.654,498.513,421.654,498.513,421.648,500.447L421.648,500.447z"/><path fill="#000000" d="M413.518,565.111c7.205,14.029,19.646,26.245,36.491,24.825c1.913-0.161,1.929-3.162,0-3 c-15.849,1.336-27.155-10.204-33.901-23.339C415.224,561.876,412.635,563.395,413.518,565.111L413.518,565.111z"/><path fill="#000000" d="M338.291,505.078c-0.03,18.698-0.753,37.398,1.906,55.971c0.273,1.909,3.164,1.095,2.893-0.797 c-2.619-18.29-1.828-36.763-1.799-55.174C341.294,503.144,338.294,503.144,338.291,505.078L338.291,505.078z"/><path fill="#000000" d="M343.848,518.045c0,0.309,0,0.618,0,0.927c0,1.935,3,1.935,3,0c0-0.309,0-0.618,0-0.927 C346.848,516.11,343.848,516.11,343.848,518.045L343.848,518.045z"/><path fill="#000000" d="M344.422,532.512c0.309,0,0.617,0,0.926,0c1.935,0,1.935-3,0-3c-0.309,0-0.617,0-0.926,0 C342.487,529.512,342.487,532.512,344.422,532.512L344.422,532.512z"/><path fill="#000000" d="M346.274,550.109c0.726-0.001,1.294-0.082,1.872-0.555c0.535-0.438,0.555-1.245,0.555-1.871 c0.002-1.935-2.998-1.935-3,0c0,0.119-0.001,0.238-0.003,0.357c-0.012,0.176-0.001,0.126,0.031-0.147 c-0.066,0.258,0.032,0.104,0.295-0.461c0.272-0.332,0.456-0.31,0.702-0.331c-0.149,0.013-0.302,0.008-0.452,0.008 C344.34,547.111,344.34,550.111,346.274,550.109L346.274,550.109z"/><path fill="#000000" d="M280.162,594.92c0.1-21.38,4.288-41.744,11.987-61.657c0.699-1.807-2.202-2.582-2.893-0.797 c-7.796,20.162-11.994,40.818-12.095,62.454C277.153,596.854,280.153,596.854,280.162,594.92L280.162,594.92z"/><path fill="#000000" d="M284.354,558.933c5.631-4.595,11.929-8.209,18.22-11.807c1.679-0.96,0.168-3.552-1.514-2.59 c-6.523,3.729-12.99,7.513-18.827,12.275C280.732,558.035,282.868,560.145,284.354,558.933L284.354,558.933z"/><path fill="#000000" d="M209.954,603.624c21.644-10.704,46.276-17.73,68.877-5.558c1.702,0.918,3.218-1.673,1.514-2.59 c-23.615-12.721-49.224-5.66-71.904,5.558C206.706,601.892,208.227,604.479,209.954,603.624L209.954,603.624z"/><path fill="#000000" d="M256.603,713.842c21.374,14.063,46.263,22.154,71.814,23.733c9.105,0.563,18.926-0.82,24.453-8.801 c4.364-6.3,1.804-13.935-4.167-17.947c-5.466-3.673-12.639-2.464-16.01,3.229c-2.117,3.577-1.937,7.926-0.894,11.805 c3.267,12.148,13.97,22.526,22.598,31.069c16.812,16.648,35.729,31.131,54.36,45.651c15.229,11.868,31.807,22.78,40.882,40.389 c0.886,1.721,3.475,0.202,2.59-1.514c-6.495-12.604-15.968-20.937-26.813-29.592c-13.091-10.449-26.452-20.552-39.446-31.124 c-13.29-10.812-26.492-22.012-37.926-34.813c-6.005-6.723-17.536-19.425-13.192-29.509c3.665-8.509,14.817-4.066,16.991,3.109 c1.598,5.271-2.851,10.365-7.105,12.689c-4.826,2.637-10.99,2.586-16.321,2.357c-24.859-1.068-49.637-9.728-70.301-23.323 C256.495,710.185,254.994,712.784,256.603,713.842L256.603,713.842z"/><path fill="#000000" d="M292.924,867.979c13.326-27.45,29.492-53.655,39.052-82.79c0.604-1.843-2.292-2.627-2.893-0.797 c-9.478,28.885-25.538,54.857-38.749,82.073C289.492,868.197,292.079,869.719,292.924,867.979L292.924,867.979z"/><path fill="#000000" d="M348.127,437.113c7.033,0.871,14.127-0.121,20.207-3.909c1.638-1.02,0.133-3.616-1.514-2.59 c-5.671,3.532-12.154,4.309-18.693,3.499C346.21,433.876,346.232,436.879,348.127,437.113L348.127,437.113z"/><path fill="#c7a300" d="M386.181,406.368c0,0,0.396-15.883-9.302-5.651c-6.564,6.926-9.302,10.599-9.302,10.599 s4.64,1.706,8.372,3.632C382.894,418.531,392.227,411.315,386.181,406.368z"/><path fill="#FFF" d="M281.793,397.64c-0.768,14.286,3.76,26.771,11.319,38.73c1.03,1.631,3.627,0.127,2.59-1.514 c-7.292-11.537-11.649-23.428-10.909-37.217C284.896,395.706,281.896,395.716,281.793,397.64L281.793,397.64z"/><path fill="#FFF" d="M293.888,383.349c-2.872,19.133-1.048,41.11,12.426,56.104c1.296,1.442,3.41-0.687,2.121-2.121 c-12.685-14.116-14.357-35.181-11.654-53.187C297.064,382.254,294.174,381.44,293.888,383.349L293.888,383.349z"/><path fill="#FFF" d="M355.138,329.621c10.831,2.084,19.098,10.349,21.182,21.181c0.365,1.898,3.257,1.093,2.893-0.797 c-2.264-11.768-11.51-21.013-23.277-23.276C354.045,326.365,353.238,329.256,355.138,329.621L355.138,329.621z"/><path fill="#FFF" d="M356.328,339.424c8.466,6.88,14.141,16.755,15.306,27.651c0.203,1.902,3.206,1.923,3,0 c-1.248-11.673-7.069-22.365-16.185-29.772C356.962,336.094,354.826,338.203,356.328,339.424L356.328,339.424z"/><path fill="#000000" d="M279.588,933.907c2.779,0.927,21.209,4.215,21.209,4.215s2.873,10.604,18.618,31.907 s26.859,31.49,36.121,37.974c9.263,6.483-5.557,18.524-37.974,3.705s-53.499-29.639-51.294-58.351S279.588,933.907,279.588,933.907 z"/><path fill="#000000" d="M507.433,882.04c-7.763-2.893-9.726,11.115-9.726,11.115s5.095,73.169,63.445,75.021 C619.502,970.029,526.164,889.021,507.433,882.04z"/><path fill="#000000" d="M614.619,654.837c0,5.115-4.146,9.262-9.262,9.262H216.881c-5.115,0-9.262-4.146-9.262-9.262v-8.477 c0-5.115,4.146-9.262,9.262-9.262h388.477c5.115,0,9.262,4.146,9.262,9.262V654.837z"/><path fill="#000000" d="M591.254,1013.098c-1.086,1.085-2.943,0.985-4.148-0.219L230.384,656.156 c-1.206-1.205-1.305-3.063-0.22-4.148l0,0c1.085-1.085,2.942-0.985,4.148,0.22l356.723,356.722 C592.239,1010.154,592.339,1012.012,591.254,1013.098L591.254,1013.098z"/><path fill="#000000" d="M597.736,645.524c1.086,1.085,0.986,2.942-0.219,4.147l-356.723,356.722 c-1.205,1.206-3.063,1.306-4.148,0.221l0,0c-1.085-1.086-0.985-2.943,0.219-4.148l356.724-356.723 C594.794,644.538,596.651,644.438,597.736,645.524L597.736,645.524z"/></svg>