<svg xmlns="http://www.w3.org/2000/svg" version="1.0" viewBox="0 0 1133.857 1133.858"><path fill="#ffd423" d="M977.676,825.996c0,0.863-0.822,0.934-1.687,0.934H165.575c-0.861,0-1.899-0.071-1.899-0.934V251.335 c0-0.862,1.038-2.406,1.899-2.406h810.414c0.864,0,1.687,1.543,1.687,2.406V825.996z M165.676,824.929h810v-573h-810V824.929z"/><path fill="#ffd423" d="M450.166,504.929H224.778c11.441-51,57.554-90.373,112.695-90.373 C392.613,414.557,438.729,453.929,450.166,504.929z"/><path fill="#ffd423" d="M384.292,359.612c0,25.859-20.961,46.822-46.816,46.822c-25.862,0-46.824-20.963-46.824-46.822 c0-25.856,20.962-46.819,46.824-46.819C363.331,312.792,384.292,333.756,384.292,359.612z"/><rect fill="#ffd423" width="91" height="34" x="225.676" y="537.929"/><path fill="#ffd423" d="M453.676,613.924c0,0.809-0.821,1.005-1.875,1.005h-223.6c-1.053,0-2.525-0.196-2.525-1.005v-27.77 c0-0.81,1.473-1.225,2.525-1.225h223.6c1.054,0,1.875,0.415,1.875,1.225V613.924z M228.676,614.929h218v-26h-218V614.929z"/><path fill="#ffd423" d="M893.676,797.824c0,0.864-0.555,2.105-1.417,2.105H579.784c-0.861,0-2.108-1.241-2.108-2.105V311.45 c0-0.862,1.247-0.521,2.108-0.521h312.475c0.862,0,1.417-0.341,1.417,0.521V797.824z M580.676,799.929h312v-486h-312V799.929z"/><path fill="#ffd423" d="M864.92,359.929H602.399c-0.861,0-1.563-0.639-1.563-1.502c0-0.862,0.702-1.498,1.563-1.498H864.92 c0.864,0,1.563,0.636,1.563,1.498C866.482,359.291,865.784,359.929,864.92,359.929z"/><path fill="#ffd423" d="M864.92,415.929H602.399c-0.861,0-1.563-0.135-1.563-1c0-0.86,0.702-1,1.563-1H864.92 c0.864,0,1.563,0.14,1.563,1C866.482,415.794,865.784,415.929,864.92,415.929z"/><path fill="#ffd423" d="M864.92,461.929H602.399c-0.861,0-1.563-0.135-1.563-1c0-0.864,0.702-1,1.563-1H864.92 c0.864,0,1.563,0.136,1.563,1C866.482,461.794,865.784,461.929,864.92,461.929z"/><path fill="#ffd423" d="M864.92,504.929H748.245c-0.864,0-1.565-0.139-1.565-1c0-0.864,0.701-1,1.565-1H864.92 c0.864,0,1.563,0.136,1.563,1C866.482,504.791,865.784,504.929,864.92,504.929z"/><path fill="#ffd423" d="M816.999,643.929h-214.6c-0.861,0-1.563,0.362-1.563-0.5c0-0.864,0.702-0.5,1.563-0.5h214.6 c0.864,0,1.559-0.364,1.559,0.5C818.558,644.292,817.863,643.929,816.999,643.929z"/><path fill="#ffd423" d="M816.999,666.929h-214.6c-0.861,0-1.563-2.139-1.563-3c0-0.863,0.702-3,1.563-3h214.6 c0.864,0,1.559,2.137,1.559,3C818.558,664.791,817.863,666.929,816.999,666.929z"/><path fill="#ffd423" d="M733.658,705.929h-118.76c-0.859,0-1.559,0.363-1.559-0.5c0-0.86,0.699-0.5,1.559-0.5h118.76 c0.864,0,1.563-0.36,1.563,0.5C735.222,706.292,734.522,705.929,733.658,705.929z"/><polygon points="163.676 826.929 163.676 292.929 126.676 292.929 126.676 826.895 126.676 848.771 126.676 863.929 937.676 863.929 937.676 826.929"/><path fill="#000000" d="M607.032,526.689c-3.847,4.234-8.903,7.812-14.376,10.462c-22.186,10.775-47.98,2.209-60.98-19.03v-0.01 c0-0.162,0.316-0.323,0.186-0.484c-0.119-0.162-0.059-0.323-0.146-0.496l0.052-0.021c-0.021-0.033,0.011-0.075-0.022-0.118 l0.005-0.055c-0.227-0.42-0.428-0.83-0.633-1.26l-51.091-105.394l-2.593-5.334c5.636-3.76,12.115-7.456,18.955-10.99 c0.875-0.453,1.747-0.894,2.631-1.336c1.585-0.808,3.18-1.595,4.784-2.36c0.874-0.431,1.758-0.852,2.64-1.272 c0.992-0.474,1.994-0.937,2.996-1.4c0.517-0.248,1.034-0.485,1.552-0.722c0.991-0.452,1.983-0.905,2.974-1.347 c1.508-0.679,3.018-1.347,4.516-1.994c1.002-0.442,2.004-0.873,3.006-1.293c1.972-0.85,3.923-1.67,5.851-2.468 c0.453-0.183,0.917-0.377,1.369-0.56c1.993-0.819,3.965-1.606,5.883-2.37c0.829-0.335,1.66-0.647,2.468-0.97 c0.01,0,0.021-0.011,0.032-0.011c0.636-0.248,1.272-0.496,1.896-0.732c0.625-0.249,1.25-0.485,1.865-0.722 c0.624-0.238,1.248-0.475,1.863-0.712c0.592-0.226,1.164-0.441,1.746-0.657c1.12-0.42,2.218-0.83,3.286-1.228 c0.613-0.227,1.218-0.443,1.811-0.658c0.537-0.194,1.077-0.388,1.605-0.582c0.042-0.011,0.075-0.032,0.117-0.042 c0.756-0.271,1.5-0.539,2.21-0.797c1.251-0.442,2.435-0.851,3.556-1.24c0.345-0.119,0.669-0.237,0.99-0.344 c1.413-0.485,2.728-0.927,3.901-1.314l0.582,1.217l19.181,39.578l0.098,0.194l1.077,2.22l0.377,0.776l1.218,2.51l1.961,4.042 l8.534,17.616l0.387,0.787l0.615,1.272l18.522,38.209C623,492.812,619.435,513.101,607.032,526.689z"/><path fill="#ebeff0" d="M561.937,366.827c-1.174,0.388-2.488,0.829-3.901,1.314c-0.321,0.107-0.646,0.226-0.99,0.344 c-1.121,0.389-2.305,0.798-3.556,1.24c-0.71,0.259-1.454,0.527-2.21,0.797c-0.042,0.01-0.075,0.031-0.117,0.042 c-0.528,0.194-1.068,0.388-1.605,0.582c-0.593,0.215-1.197,0.432-1.811,0.658c-1.068,0.398-2.166,0.808-3.286,1.228 c-0.582,0.215-1.154,0.431-1.746,0.657c-0.615,0.237-1.239,0.474-1.863,0.712c-0.615,0.237-1.24,0.474-1.865,0.722 c-0.624,0.236-1.261,0.484-1.896,0.732c-0.012,0-0.022,0.011-0.032,0.011c-0.808,0.323-1.639,0.635-2.468,0.97 c-1.918,0.764-3.89,1.551-5.883,2.37c-0.452,0.183-1.339,0.377-1.79,0.56c1.498-8.567,2.76-16.842,4.76-23.35v-0.01 c0-0.788,0.379-1.574,0.379-2.361c0-9.439,2.646-18.318,6.926-26.022c4.633,4.44,7.527,7.188,7.721,7.596l5.894,12.047 L561.937,366.827z"/><path fill="#000000" d="M639.801,354.046c0,25.829-18.125,47.391-42.125,52.573v0.205c-1,0.098-1.053,0.105-1.495,0.105 c-0.011,0-0.011,0-0.021,0h-0.064c-1.778,0-3.578,0.76-5.408,0.9c-0.076,0.011-0.131,0.009-0.206,0.009 c-0.022,0-0.031-0.101-0.054-0.089c-0.916,0.107-1.854,0.18-2.78,0.18h-1.486c-0.173,0-0.335,0.121-0.507,0.11 c-1.293-0.043-2.587-0.178-3.856-0.285c-0.033-0.01-0.065,0.02-0.098,0.02c-19.966-1.682-36.831-14.337-44.61-31.848 c-0.012-0.021-0.022-0.046-0.032-0.066c-0.517-1.164-0.992-2.367-1.412-3.574c0,0,0,0.001-0.011-0.009 c-0.021,0-0.638,0-0.647-0.01c-1.336-3.74-2.311-7.692-3.311-11.777v-0.011c0-0.085,0-0.151,0-0.236v-0.012 c0-0.162,0-0.333,0-0.497c0-0.01,0-0.01,0-0.02v-3.308c0-0.788,0.379-1.574,0.379-2.361c0-9.439,2.646-18.318,6.926-26.022 c9.168-16.551,26.913-27.746,47.172-27.746c16.841,0,31.839,7.736,41.698,19.858c0.022,0.033,0.068,0.054,0.091,0.086 c5.786,7.144,9.883,15.818,10.971,25.312c0,0.033-0.236,0.065-0.236,0.097v0.01C639.676,348.379,639.801,351.18,639.801,354.046z"/><circle cx="651.252" cy="325.045" r="23.771" fill="#000000"/><circle cx="690.026" cy="329.19" r="34.313" fill="#000000"/><path fill="#000000" d="M590.303,389.785c-0.021,0-0.04-0.01-0.061-0.01l0.051-0.03 C590.293,389.754,590.303,389.774,590.303,389.785z"/><path fill="#000000" d="M595.238,408.439c0,0-18.395,21.925-40.016,27.116c-0.31-4.03-0.62-8.161-0.869-11.97 c17.869-4.03,38.294-20.404,43.774-24.724C596.988,407.065,595.238,408.439,595.238,408.439z"/><path fill="#ebeff0" d="M591.884,370.833c-1.501,0-2.932,0.299-4.23,0.83c-26.04,3.715-24.82-37.76-54.68-12.67 c0,0-18.263,65.871,8.289,66.921c4.36,0.17,8.769-0.33,13.091-1.309c17.869-4.03,38.294-20.405,43.774-24.724 c-0.876,9.725,0,0,0,0s-21.673,25.428-43.292,30.619c0.879,11.529,2.196,28.431,2.196,28.431h35.791l6.36-70.737 c2.03-1.831,3.29-4.435,3.29-7.295C602.474,375.356,597.733,370.833,591.884,370.833z M590.242,390.792l0.051-0.029 c0,0.01,0.01,0.029,0.01,0.039C590.282,390.802,590.263,390.792,590.242,390.792z"/><path fill="#ebeff0" d="M590.303,389.785c-0.021,0-0.04-0.01-0.061-0.01l0.051-0.03 C590.293,389.754,590.303,389.774,590.303,389.785z"/><path fill="#000000" d="M590.244,392.498c-0.645,0-1.261-0.366-1.55-0.989c-1.616-3.495-1.769-6.664-0.45-9.423 c2.304-4.825,8.288-6.377,8.542-6.441c0.909-0.23,1.839,0.325,2.07,1.238c0.228,0.913-0.324,1.838-1.235,2.07 c-0.085,0.021-4.714,1.257-6.306,4.617c-0.852,1.795-0.692,3.984,0.475,6.507c0.396,0.855,0.023,1.869-0.832,2.264 C590.727,392.447,590.482,392.498,590.244,392.498z"/><path fill="#000000" d="M536.619,406.034c-1.658,0-3.436-0.531-5.082-2.026c-4.229-3.845,0.635-25.139,2.922-34.115 c0.231-0.912,1.158-1.466,2.073-1.232c0.913,0.232,1.465,1.161,1.231,2.074c-3.815,14.983-5.616,29.065-3.931,30.75 c2.739,2.489,5.876,0.189,6.228-0.082c0.739-0.574,1.812-0.446,2.391,0.293c0.578,0.737,0.457,1.802-0.278,2.385 C541.035,404.984,538.946,406.034,536.619,406.034z"/><path fill="#000000" d="M744.45,586.36l-46.23-103.937c0,0-37.067-47.816-129.833-46.517 c-64.74,0.906-41.537,66.009-41.537,66.009l30.969,94.335L744.45,586.36z"/><path fill="#000000" d="M538.985,792.412c0,0,63.214,78.405,64.522,94.433c1.306,16.028,18.25,17.034,15.275-1.334 c-2.979-18.368-5.117-80.745-19.724-91.667c-14.604-10.923-17.163-15.674-17.163-15.674l22.377,8.549l-1.428-16.565l-35.233-15.59 L538.985,792.412z"/><path fill="#000000" d="M896.078,945.429c0,0,63.215,78.404,64.523,94.433c1.308,16.029,18.25,17.034,15.274-1.334 c-2.978-18.368-5.114-80.743-19.722-91.668c-14.605-10.921-17.162-15.673-17.162-15.673l22.375,8.548l-1.426-16.563 l-35.234-15.591L896.078,945.429z"/><path fill="#424c47" d="M943.689,903.5c-9.561,33.154-53.857,81.081-53.857,81.081s-122.788-99.437-146.706-117.665 c-10.404-7.934-47.498-61.245-86.101-118.948c-3.646-5.446-7.3-10.942-10.964-16.438c-10.556-15.891-21.052-31.823-30.974-46.961 c-33.803-51.596-60.879-93.95-60.879-93.95s91.895,1.029,147.014,14.809c21.521,5.374,37.447,12.694,40.118,22.657 c4.131,15.401,11.246,41.371,17.955,65.824c3.273,11.887,6.449,23.409,9.144,33.196c4.531,16.458,7.724,27.979,7.724,27.979 s25.436-5.53,54.247,11.856c40.715,24.567,22.774,55.289,56.097,67.396C919.833,846.452,935.406,865.823,943.689,903.5z"/><path fill="#424c47" d="M759.296,693.91c-37.443,29.57-76.743,38.901-113.234,37.622c-24.594-0.862-47.917-6.541-68.545-14.089 c-0.087-0.03-0.153-0.061-0.206-0.082c-2.281-0.834-4.513-1.685-6.727-2.575c-7.751-3.07-15.063-6.376-21.87-9.738 c2.957,3.346,5.562,6.919,7.667,10.75c23.63,42.887,12.957,36.134,12.733,47.973c-0.104,5.733-18.28,21.29-37.009,35.828 c-19.946,15.486-40.529,29.797-40.529,29.797s-171.587-161.538-144.27-231.593c35.941-44.029,321.159-35.678,321.159-35.678 c13.711-1.851,25.884-1.211,36.607,1.344C774.036,579.818,783.353,674.917,759.296,693.91z"/><path fill="#2e3833" d="M759.296,693.91c3.273,11.887,6.449,23.409,9.144,33.196c-29.813,29.993-73.384,29.659-111.414,20.863 c-3.646-5.446-7.3-10.942-10.964-16.438c-24.594-0.862-47.917-6.541-68.545-14.089c-0.087-0.03-0.153-0.061-0.206-0.082 c-3.521-1.248,11.104-16.687,37.777-32.79c14.188-8.571,31.798-17.325,51.9-24.234c28.063-9.642,34.774-33.201,34.234-54.908 c-0.56-22.077-8.603-42.243-9.28-43.923c0.756,1.425,5.696,1.708,13.131,1.962C774.036,579.818,783.353,674.917,759.296,693.91z"/><path fill="#2e3833" d="M556.381,715.797c23.63,42.887,12.957,36.134,12.733,47.973c-0.104,5.733-18.28,21.29-37.009,35.828 c-18.769-65.171-96.519-159.073-96.519-159.073s7.466-9.333,48.212,11.99c25.522,13.362,43.183,24.939,59.918,46.99 c-7.752-3.07,11.805,8.904,4.997,5.542C551.671,708.394,554.275,711.967,556.381,715.797z"/><path fill="#000000" d="M548.714,706.753c-0.475,0-0.937-0.197-1.268-0.563c-0.405-0.45-41.996-45.57-94.004-67.156 c-0.868-0.362-1.281-1.359-0.921-2.23c0.361-0.869,1.354-1.281,2.231-0.921c44.351,18.41,81.207,53.691,92.017,64.677 c-0.849-13.342-4.413-52.363-17.554-67.065c-0.629-0.702-0.567-1.781,0.134-2.409c0.704-0.628,1.782-0.566,2.409,0.136 c16.707,18.692,18.588,71.532,18.659,73.772c0.023,0.716-0.403,1.37-1.066,1.637C549.145,706.713,548.928,706.753,548.714,706.753 z"/><path fill="#000000" d="M628.987,731.27c-3.032,0-4.763-0.05-4.836-0.053c-0.942-0.03-1.68-0.818-1.649-1.758 c0.027-0.943,0.788-1.678,1.759-1.651c1.269,0.04,127.234,3.339,143.913-55.107c0.259-0.907,1.207-1.43,2.107-1.172 c0.906,0.258,1.432,1.202,1.173,2.108c-7.237,25.364-35.106,43.358-80.589,52.036C664.571,730.688,639.281,731.27,628.987,731.27z"/><path fill="#000000" d="M768.712,791.104c-0.387,0-0.776-0.131-1.097-0.398c-0.721-0.606-0.814-1.682-0.209-2.403 c7.369-8.779,7.056-33.171,7.052-33.414c-0.016-0.942,0.735-1.959,1.678-1.959c0.009,0,0.019,0,0.03,0 c0.926,0,1.688,0.97,1.703,1.902c0.017,1.045,0.33,25.807-7.851,35.551C769.681,790.784,769.198,791.104,768.712,791.104z"/><path fill="#000000" d="M744.448,783.025c-0.782,0-1.488-0.542-1.664-1.338c-0.203-0.919,0.378-1.83,1.297-2.033 c8.447-1.866,21.271-18.73,25.5-25.071c0.521-0.784,1.579-0.994,2.365-0.473c0.784,0.522,0.997,1.583,0.473,2.366 c-0.651,0.977-16.097,23.967-27.603,26.509C744.694,783.012,744.569,783.025,744.448,783.025z"/><path fill="#ebeff0" d="M537.541,777.332c-0.628,0-1.23-0.347-1.529-0.947c-0.39-0.786-39.418-78.77-72.864-97.386 c-24.078-13.402-34.401-33.09-32.151-45.611c1.119-6.23,5.34-10.353,11.581-11.312c9.086-1.399,20.711,6.938,31.948,15 c12.538,8.997,24.382,17.497,30.125,11.239c3.644-3.97,5.68-9.604,7.649-15.052c2.667-7.38,5.187-14.35,11.497-16.717 c5.074-1.904,11.631-0.467,20.634,4.526c25.56,14.171,112.436,60.109,157.443,56.234c28.22-2.43,46.735-20.226,54.655-36.069 c5.864-11.735,6.781-23.392,2.392-30.424c-0.498-0.798-0.254-1.851,0.545-2.35s1.851-0.256,2.35,0.544 c5.013,8.031,4.156,20.965-2.235,33.754c-8.332,16.671-27.789,35.393-57.413,37.943c-1.929,0.165-3.935,0.246-5.994,0.247 c-45.666,0.003-121.787-39.373-153.396-56.896c-7.952-4.41-13.769-5.823-17.782-4.317c-4.836,1.814-7.097,8.065-9.487,14.684 c-2.084,5.764-4.238,11.726-8.343,16.199c-7.79,8.484-20.827-0.87-34.629-10.774c-10.679-7.663-21.719-15.586-29.442-14.401 c-4.848,0.745-7.87,3.699-8.739,8.543c-1.985,11.052,8.013,29.538,30.453,42.028c34.369,19.13,72.646,95.604,74.26,98.849 c0.417,0.844,0.073,1.867-0.77,2.286C538.055,777.274,537.796,777.332,537.541,777.332z"/><path fill="#ebeff0" d="M930.314,927.427c-0.306,0-0.615-0.082-0.895-0.253c-3.047-1.878-6.895-7-12.221-14.087 c-10.686-14.218-26.83-35.705-46.409-41.486c-17.947-5.299-20.384-10.507-25.242-20.884c-3.344-7.142-7.925-16.924-19.839-31.513 c-18.791-23.008-27.728-17.331-38.075-10.753c-5.091,3.236-10.311,6.585-16.929,6.387c-9.356-0.278-12.474-5.403-14.979-9.522 c-2.821-4.635-4.681-7.7-15.152-3.178c-2.963,1.279-7.157,2.694-9.358,0.222c-3.594-4.038,2.077-14.604,11.847-31.527 c3.206-5.555,6.235-10.802,7.83-14.397c5.612-12.648-11.073-45.011-12.761-47.579c-0.099-0.104-0.183-0.223-0.255-0.354 c-0.452-0.827-0.146-1.864,0.682-2.314c0.646-0.349,1.456-0.24,1.992,0.254c1.067,0.983,20.166,36.259,13.46,51.375 c-1.668,3.76-4.74,9.083-7.995,14.72c-5.055,8.76-14.467,25.065-12.252,27.554c0.008,0.008,0.869,0.896,5.459-1.087 c12.243-5.288,15.771-1.455,19.416,4.538c2.398,3.94,4.662,7.662,12.168,7.885c5.532,0.168,10.128-2.76,14.999-5.857 c10.233-6.506,21.834-13.881,42.546,11.475c12.183,14.917,16.866,24.921,20.285,32.226c4.699,10.039,6.646,14.194,23.119,19.059 c20.662,6.101,37.216,28.129,48.17,42.708c4.715,6.274,8.787,11.694,11.285,13.232c0.801,0.495,1.051,1.545,0.557,2.347 C931.444,927.139,930.887,927.427,930.314,927.427z M738.948,709.337c0.372,0.1,0.81,0.083,1.243-0.153 C739.797,709.398,739.353,709.442,738.948,709.337z"/><path fill="#000000" d="M730.107,526.929h-122.16c-25.591,0-46.334-20.408-46.334-46s20.743-46,46.334-46H719.99 C722.457,459.929,728.448,511.929,730.107,526.929z"/><path fill="#ebeff0" d="M730.141,526.929h-0.033c-1.659-15-7.65-67-10.117-92h0.365L730.141,526.929z"/><path fill="#000000" d="M532.476,426.471c-0.286,0-0.577-0.072-0.844-0.224c-8.542-4.87-10.552-20.606-5.976-46.773 c0.164-0.929,1.049-1.549,1.975-1.387c0.928,0.163,1.548,1.047,1.386,1.973c-4.243,24.253-2.754,39.2,4.306,43.223 c0.817,0.466,1.104,1.508,0.636,2.326C533.645,426.161,533.068,426.471,532.476,426.471z"/><path fill="#000000" d="M532.532,358.113c-0.144,0-0.29-0.019-0.435-0.056c-0.912-0.242-1.455-1.174-1.217-2.085 c2.078-7.883,3.803-13.275,3.819-13.328c0.287-0.896,1.245-1.392,2.146-1.103c0.896,0.288,1.391,1.247,1.104,2.145 c-0.02,0.053-1.717,5.367-3.771,13.157C533.979,357.607,533.289,358.113,532.532,358.113z"/><path fill="#ebeff0" d="M546.737,564.205c-0.642,0-1.256-0.364-1.546-0.983c-1.375-2.936-33.373-72.326-7.613-109.868 c0.534-0.777,1.596-0.973,2.372-0.441c0.777,0.533,0.974,1.595,0.442,2.372c-24.668,35.948,7.559,105.789,7.888,106.49 c0.4,0.853,0.032,1.868-0.822,2.268C547.226,564.152,546.979,564.205,546.737,564.205z"/><path fill="#ebeff0" d="M717.511,528.929h-60.265c-0.942,0-1.706-0.558-1.706-1.5c0-0.941,0.764-1.5,1.706-1.5h60.265 c0.941,0,1.706,0.559,1.706,1.5C719.217,528.371,718.452,528.929,717.511,528.929z"/><path fill="#ebeff0" d="M244.819,257.929h4.159C246.555,259.929,245.108,259.929,244.819,257.929z"/><path fill="#ffd423" fill-rule="evenodd" d="M881.496,357.1c0.311,0.328-59.07,161.615-59.07,161.615 l-80.772-86.528L731.3,805.294l0.378-1.053l247.674-278.142l-118.067,7.443c0,0,63.819-159.084,63.841-159.722 C925.141,373.196,881.809,356.794,881.496,357.1z" clip-rule="evenodd"/><path fill="#ebeff0" d="M532.055,354.046c0,0.787-0.379,1.573-0.379,2.361v0.01c-2,6.508-3.262,14.783-4.76,23.35 c-1.93,0.798-3.668,1.618-5.641,2.468c-1.001,0.42-1.897,0.851-2.901,1.293c-1.497,0.647-2.954,1.314-4.462,1.994 c-0.99,0.442-1.956,0.895-2.947,1.347c-0.518,0.237-1.021,0.474-1.539,0.722c-1,0.452-1.996,0.926-2.989,1.4 c-0.882,0.41-1.763,0.841-2.637,1.272c-1.604,0.765-3.196,1.552-4.782,2.36c-0.883,0.442-1.754,0.883-2.629,1.336 c-6.84,3.534-13.315,7.23-18.952,10.99l-13.899-28.673l-112.172-96.299c-3.491-2.996-6.434-6.4-8.804-10.086 c-3.824,2.705-8.943,5.527-15.474,8.621c-16.129,7.639-12.229-13.071-5.042-14.903c4.838-1.238,9.139-7.68,11.421-11.68h-66.17 c15.333-8,69.824-63.521,119.735-53.122c8.824,1.045,17.444,4.643,24.697,10.872c0,0,98.706,91.062,127.251,118.345 C534.701,335.728,532.055,344.607,532.055,354.046z"/><path fill="#ebeff0" d="M894.544,588.398c-0.003-0.004-0.005-0.006-0.005-0.009c-0.914-1.82-1.945-3.605-3.125-5.334 l-87.355-128.238c-7.35-10.796-18.459-17.049-30.387-19.109c-3.394-0.796-6.928-0.779-10.56-0.779h-42.757l9.785,92h10.764 l70.687,103.644c-1.262,9.525-4.162,35.382,0.499,42.654c5.746,8.962,6.177-11.819,13.261-21.51 c5.586,10.757,13.19,27.022,13.19,35.965c0,14.131,32.411,1.174,50.104-18.971C910.734,643.559,905.064,607.92,894.544,588.398z"/><path fill="#000000" d="M855.447,693.302c-0.481,0-0.956-0.201-1.294-0.592c-0.613-0.713-0.535-1.786,0.174-2.401 c0.201-0.175,19.383-17.677-0.43-60.527c-0.395-0.855-0.022-1.869,0.832-2.265c0.855-0.395,1.867-0.022,2.265,0.833 c20.976,45.365,0.449,63.778-0.436,64.54C856.236,693.167,855.841,693.302,855.447,693.302z"/><path fill="#000000" d="M875.914,681.932c-0.48,0-0.956-0.201-1.293-0.592c-0.613-0.713-0.536-1.786,0.174-2.401 c0.201-0.175,19.383-17.677-0.43-60.527c-0.396-0.855-0.023-1.869,0.832-2.265c0.852-0.395,1.868-0.023,2.264,0.833 c20.977,45.365,0.45,63.778-0.436,64.54C876.704,681.795,876.309,681.932,875.914,681.932z"/><path fill="#ffd423" d="M399.676,901.238c0,4.248-3.443,7.691-7.69,7.691H243.366c-4.247,0-7.69-3.443-7.69-7.691v-0.618 c0-4.248,3.443-7.691,7.69-7.691h148.619c4.247,0,7.69,3.443,7.69,7.691V901.238z"/><path fill="#ffd423" d="M757.676,206.238c0,4.248-3.443,7.691-7.69,7.691H601.366c-4.247,0-7.69-3.443-7.69-7.691v-0.618 c0-4.248,3.443-7.691,7.69-7.691h148.619c4.247,0,7.69,3.443,7.69,7.691V206.238z"/><path fill="#ffd423" d="M245.676,774.239c0,4.247-3.443,7.69-7.69,7.69H89.366c-4.247,0-7.69-3.443-7.69-7.69v-0.619 c0-4.247,3.443-7.69,7.69-7.69h148.619c4.247,0,7.69,3.443,7.69,7.69V774.239z"/><path fill="#ffd423" d="M831.074,205.429c0,4.609-3.737,8.5-8.346,8.5h-38.215c-4.61,0-8.346-3.891-8.346-8.5l0,0 c0-4.608,3.735-8.5,8.346-8.5h38.215C827.337,196.929,831.074,200.821,831.074,205.429L831.074,205.429z"/><path fill="#ffd423" d="M1025.676,285.508c0,6.86-5.561,12.421-12.421,12.421H897.097c-6.86,0-12.421-5.561-12.421-12.421v-0.158 c0-6.86,5.561-12.421,12.421-12.421h116.158c6.86,0,12.421,5.561,12.421,12.421V285.508z"/><path fill="#ffd423" d="M208.676,903.111c0,4.365-3.186,7.818-7.549,7.818h-20.583c-4.364,0-7.868-3.453-7.868-7.818v-0.114 c0-4.365,3.504-8.068,7.868-8.068h20.583c4.363,0,7.549,3.703,7.549,8.068V903.111z"/></svg>