<svg xmlns="http://www.w3.org/2000/svg" version="1.0" viewBox="0 0 1133.857 1133.858"><path fill="#ebeff0" d="M618.882,511.031c0,0,0.384,22.328,1.472,33.535c1.089,11.206,1.671,21.67-7.152,33.306 c-8.827,11.638-9.097,21.158,3.064,15.078c12.162-6.081,12.938-14.861,12.938-14.861s9.246,21.309,22.025,17.415 c9.04,14.28,23.531,27.019,29.836,15.805c2.759-4.905-9.288-20.411-9.288-20.411s10.025-3.594,6.026-11.824 c-3.997-8.23-13.581-3.466-13.581-3.466s-5.337-12.667,4.201-16.534c9.539-3.866,44.33,2.276,43.438-9.28 c-0.89-11.557-16.234-10.483-29.095-16.31c-12.857-5.825-17.66-26.022-15.723-32.768 C668.986,493.97,628.982,472.466,618.882,511.031z"/><path fill="#000000" d="M656.452,604.729c-0.474,0-0.948-0.172-1.323-0.521c-11.596-10.853-13.063-32.712-13.119-33.638 c-0.065-1.066,0.746-1.984,1.813-2.05c1.112-0.042,1.984,0.747,2.051,1.813c0.014,0.211,1.437,21.255,11.902,31.048 c0.78,0.73,0.82,1.955,0.091,2.736C657.484,604.523,656.968,604.729,656.452,604.729z"/><path fill="#000000" d="M695.705,657.905c-49.79,21.664-124.147,91.549-157.772,103.784c-5.56-25.863-11.536-45.782-17.564-53.105 c-2.819,10.285-7.461,27.242-13.097,47.827c-35.549-12.607-136.233-31.453-183.642-42.675 c22.436-81.184,65.517-149.237,65.517-149.237c79.692,9.024,198.264-12.402,236.348-27.913 C644.327,574.533,683.502,617.668,695.705,657.905z"/><path fill="#ffd423" d="M692.033,550.259c-5.897,0.284-12.645-1.239-19.482-3.704c-21.161-7.613-43.096-24.257-43.096-24.257 c-0.709-2.207-1.354-4.413-1.936-6.619c0.633,10.387,0.374,18.309-1.251,22.424c-3.987,10.103-112.216,47.095-200.935,50.901 c-52.088,2.245-97.44-6.942-111.041-39.702c-1.07-2.58-3.328-123.866,36.077-195.347c12.334-22.373,28.76-39.882,50.578-47.327 c91.531-31.237,160.071-18.542,176.986-8.774c0.529,0.31,1.045,0.607,1.562,0.93c36.115,14.502,48.218,11.736,110.498,53.941 c0.181,0.116,0.361,0.202,0.542,0.202h0.13c12.928,8,23.767,15.487,32.76,23.346c0.773,0.555,1.535,1.228,2.322,1.795 c0.026,0.154,0.051,0.349,0.09,0.517C813.718,458.572,713.891,549.213,692.033,550.259z"/><path fill="#000000" d="M615.054,401.914c0.893,5.322-2.698,10.361-8.021,11.255l-0.219,0.036 c-5.323,0.894-10.361-2.698-11.253-8.021l-14.523-86.539c-0.892-5.323,2.698-10.361,8.019-11.255l0.22-0.037 c5.322-0.893,10.36,2.698,11.255,8.02L615.054,401.914z"/><ellipse cx="577.753" cy="279.879" fill="#000000" rx="35.461" ry="44.547" transform="matrix(0.9862 -0.1655 0.1655 0.9862 -38.3505 99.4706)"/><path fill="#424c47" d="M782.419,277.577c-15.196,30.681-13.808,43.344-35.604,47.001l-137.079-8.49 c-21.798,3.657-42.433-11.048-46.09-32.844l-1.241-7.389c-3.657-21.797,11.048-42.433,32.844-46.09l128.356-65.198 c21.797-3.658,40.611,27.911,51.622,46.927L782.419,277.577z"/><path fill="#000000" d="M792.063,238.349c7.848,46.766-4.307,87.784-27.15,91.617c-22.848,3.834-47.728-30.969-55.575-77.735 c-7.848-46.766,4.311-87.784,27.153-91.617C759.336,156.78,784.218,191.583,792.063,238.349z"/><path fill="#c7a300" d="M580.967,440.676c0,11.535-19.638,95.996-155.633,148.33c-52.088,2.245-97.44-6.942-111.041-39.702 c-1.07-2.58-3.328-123.866,36.077-195.347c-16.98,57.314-33.883,140.898,11.908,140.898 C431.953,494.855,580.967,427.128,580.967,440.676z"/><path fill="#ebeff0" d="M626.533,372.719c-5.055,23.33-30.226,25.73-45.275,29.294c-1.461,0.345-2.991,1.031-4.574,1.983 c-9.642-13.306-23.923-26.563-35.328-36.162l2.703-2.563c0,0-3.586-26.4,17.88-36.607c21.466-10.2,20.153,7.172,20.153,7.172 s31.46-26.915,36.564-16.187c5.098,10.73-5.584,13.42-6.403,17.995c-0.233,1.298,1.229,2.809,3.325,4.835 c0.016,0.014,0.027,0.028,0.049,0.042c0.34,0.333,0.692,0.67,1.061,1.031c0.027,0.021,0.047,0.042,0.07,0.071 c1.396,1.362,2.963,2.937,4.446,4.807c0,0,0.021,0.029,0.069,0.078c2.973,3.741,5.627,8.64,6.023,15.254 C627.458,366.45,627.247,369.422,626.533,372.719z"/><path fill="#000000" d="M615.214,360.897c-0.558,0-1.112-0.24-1.495-0.705c-0.68-0.826-0.561-2.045,0.265-2.725 c2.652-2.184,3.99-4.46,3.977-6.766c-0.022-3.741-3.558-6.683-3.594-6.711c-0.833-0.669-0.967-1.888-0.298-2.72 c0.67-0.834,1.885-0.968,2.722-0.299c0.204,0.164,5.005,4.084,5.04,9.707c0.021,3.528-1.791,6.817-5.388,9.778 C616.082,360.753,615.646,360.897,615.214,360.897z"/><path fill="#000000" d="M620.012,374.765c-0.703,0-1.379-0.385-1.723-1.054c-0.488-0.95-0.112-2.117,0.839-2.604 c3.564-1.829,5.643-4.232,6.175-7.141c1.223-6.66-5.467-14.167-5.533-14.242c-0.717-0.794-0.654-2.018,0.14-2.734 c0.792-0.716,2.015-0.654,2.732,0.141c0.328,0.364,8.03,9.02,6.47,17.533c-0.762,4.153-3.525,7.479-8.217,9.887 C620.612,374.695,620.31,374.765,620.012,374.765z"/><ellipse cx="430.617" cy="225.173" fill="#000000" rx="12.587" ry="16.645" transform="matrix(0.1879 0.9822 -0.9822 0.1879 570.8613 -240.0858)"/><ellipse cx="436.933" cy="260.994" fill="#000000" rx="25.295" ry="31.304" transform="matrix(0.8127 0.5827 -0.5827 0.8127 233.8999 -205.7027)"/><ellipse cx="510.239" cy="247.17" fill="#000000" rx="25.294" ry="21.94" transform="matrix(0.8127 0.5827 -0.5827 0.8127 239.5721 -251.0029)"/><path fill="#ebeff0" d="M496.857,269c-2.139,0.637-4.362,1.074-6.66,1.286c-13.754,1.272-26.465-5.771-33.697-17.211 c-2.498-3.941-4.338-8.411-5.344-13.235c-0.319-1.518-4.304,5.848-4.152-8.002c0.232-21.323,16.097-36.6,36.082-38.446 c17.691-1.64,33.668,10.491,38.459,28.027c0.627,2.271,1.059,4.638,1.285,7.074C524.568,247.282,513.319,264.103,496.857,269z"/><path fill="#000000" d="M497.735,280.73c-0.912,0.16-1.84,0.286-2.777,0.373c-17.692,1.635-33.665-10.492-38.458-28.028 c7.232,11.44,19.943,18.483,33.697,17.211c2.298-0.212,4.521-0.649,6.66-1.286C497.029,273.418,497.367,277.413,497.735,280.73z"/><path fill="#ebeff0" d="M491.345,310.684c-14.697,3.006-42.875-11.682-41.067-14.927c1.807-3.246,3.345-10.794,3.916-30.499 c0.264-9.051-3.946-25.374-3.946-25.374s0.32-0.018,0.909-0.044c0.83-0.039,2.195-0.094,3.952-0.133 c10.566-0.238,35.271,0.039,42.566,7.381c-0.955,7.74-1.076,15.307-0.817,21.913c-2.139,0.637-4.362,1.074-6.66,1.286 c-13.754,1.272-26.465-5.771-33.697-17.211c4.793,17.536,20.766,29.663,38.458,28.028c0.938-0.087,1.865-0.213,2.777-0.373 c0.692,6.197,1.488,10.068,1.488,10.068S511.596,306.542,491.345,310.684z"/><path fill="#ebeff0" d="M456.313,235.058c1.655,5.162-0.62,10.507-5.085,11.939c-4.464,1.432-9.425-1.593-11.079-6.754 c-1.658-5.161,0.62-10.507,5.083-11.938C449.695,226.873,454.657,229.897,456.313,235.058z"/><path fill="#000000" d="M524.602,159.233c-4.913,0-9.566,1.079-13.729,3c-2.111-5.287-6.305-8.893-11.139-8.893 c-0.36,0-0.716,0.025-1.067,0.064c-3.322-7.408-9.281-12.832-16.811-14.254c-12.718-2.402-25.432,7.442-29.785,22.412 c-1.451-0.816-2.953-1.581-4.517-2.273c-21.384-9.458-44.913-3.117-52.556,14.162c-7.644,17.279,3.495,38.954,24.878,48.411 c9.387,4.153,19.189,5.258,27.879,3.73c1.991,8.226,8.755,14.283,16.794,14.283c5.375,0,10.182-2.709,13.373-6.964 c3.168,1.952,6.852,3.075,10.783,3.075c10.223,0,18.77-7.555,20.937-17.67c4.469,2.296,9.558,3.602,14.96,3.602 c17.754,0,32.146-14.033,32.146-31.343C556.748,173.266,542.355,159.233,524.602,159.233z"/><path fill="#000000" d="M502.965,249.118c-0.844,0-1.588-0.604-1.738-1.459c-0.17-0.96,0.473-1.875,1.433-2.044 c1.951-0.343,4.308-1.312,5.668-1.923c-0.225-1.773-0.65-5.148-1.064-8.526c-0.302-2.456-0.597-4.912-0.807-6.758 c-0.107-0.934-0.189-1.712-0.243-2.258c-0.084-0.902-0.229-2.412,1.341-2.748c0.901-0.192,1.813,0.382,2.079,1.259 c0.078,0.256,0.093,0.513,0.058,0.76c0.146,1.922,1.459,12.516,2.298,19.099c0.096,0.74-0.287,1.462-0.955,1.798 c-0.174,0.088-4.324,2.168-7.764,2.772C503.166,249.109,503.063,249.118,502.965,249.118z"/><path fill="#000000" d="M448.232,239.416c-0.672,0-1.312-0.385-1.609-1.034c-1.343-2.958-3.2-2.63-3.561-2.535 c-0.93,0.295-1.902-0.228-2.197-1.157c-0.293-0.929,0.239-1.925,1.17-2.219c1.748-0.552,5.629-0.331,7.804,4.449 c0.402,0.888,0.009,1.934-0.878,2.337C448.726,239.365,448.476,239.416,448.232,239.416z"/><path fill="#ebeff0" d="M507.271,756.411c-22.909,83.624-62.24,227.165-62.24,227.165s-72.684-2.425-167.176-9.69 c6.773-30.172,35.409-135.434,61.945-231.658c2.648-9.612,5.277-19.14,7.86-28.491c34.271,8.116,83.827,20.207,122.087,31.055 c20.873,6.271,35.684,11.025,37.365,11.568C507.219,756.391,507.271,756.411,507.271,756.411z"/><path fill="#ebeff0" d="M507.113,756.359c-1.682-0.543-16.492-5.297-37.365-11.568 C484.336,748.923,497.284,752.874,507.113,756.359z"/><path fill="#ebeff0" d="M727.295,973.885c-15.745,8.481-99.259,1.007-159.91,1.21c0-7.252-12.104-136.558-28.641-213.407 c33.627-12.235,83.438-82.114,132.438-103.777c0-0.007,0,0.018,0,0.018h-1.621c3.1,10,6.008,20.429,8.755,30.663 C706.33,792.874,717.068,896.945,727.295,973.885z"/><path fill="#000000" d="M296.205,902.283c0,0,157.767,17.33,166.816,15.635c-9.606,35.063-22.623,130.396-57.851,157.861 c-18.88,14.719-238.889,2.615-238.889,2.615s-19.841-30.375,52.065-73.238c29.244-17.434,51.005-21.581,51.005-21.581 L296.205,902.283z"/><path fill="#000000" d="M716.953,893.923c0,0-150.471,16.536-159.521,14.84c9.606,35.063-5.503,137.693,29.727,165.158 c18.881,14.72,267.013-4.681,267.013-4.681s19.838-30.375-52.066-73.239c-29.244-17.432-69.775-12.425-69.775-12.425 L716.953,893.923z"/><path fill="#000000" d="M469.748,744.791c-38.26-10.848-87.815-22.589-122.087-30.704c-2.583,9.352-5.212,18.842-7.86,28.842 h-0.008c0,0-24.011-9.453-16.163-28.842c2.25-5.559,3.314-4.597,27.007-0.144C386.21,720.634,435.934,734.616,469.748,744.791z"/><path fill="#000000" d="M678.315,688.579c-2.747-10.233-5.655-20.466-8.755-30.674c0.483-0.256,23.554-12.314,26.145,0 C697.633,667.085,687.458,681.602,678.315,688.579z"/><path fill="#000000" d="M486.029,553.679c-0.699,0-1.359-0.417-1.638-1.104c-0.364-0.904,0.07-1.932,0.976-2.297 c49.882-20.171,100.49-91.88,100.444-120.493c-0.013-6.785-3.563-15.114-10.556-24.753c-9.767-13.477-24.444-26.933-35.037-35.848 c-8.837-7.451-16.018-12.749-17.807-14.053c-52.138-1.57-97.078,33.983-125.607,64.146c-31.164,32.949-50.088,66.794-50.275,67.132 c-0.474,0.853-1.546,1.161-2.399,0.687c-0.852-0.472-1.159-1.546-0.688-2.398c0.188-0.341,19.292-34.521,50.743-67.789 c18.506-19.572,37.612-35.023,56.79-45.923c24.074-13.68,48.335-20.197,72.094-19.366c0.349,0.013,0.685,0.127,0.968,0.329 c0.078,0.058,8.165,5.859,18.455,14.536c10.742,9.041,25.644,22.708,35.62,36.475c7.438,10.253,11.216,19.276,11.228,26.819 c0.024,15.302-12.475,40.6-32.617,66.022c-21.812,27.521-47.337,48.57-70.033,57.749 C486.473,553.638,486.249,553.679,486.029,553.679z"/><path fill="#000000" d="M375.86,436.389c-0.303,0-0.608-0.077-0.89-0.239c-0.161-0.096-16.838-9.571-42.73-7.456 c-0.98,0.083-1.823-0.643-1.902-1.615c-0.079-0.972,0.643-1.824,1.613-1.902c27.062-2.211,44.088,7.508,44.799,7.923 c0.842,0.492,1.126,1.571,0.635,2.413C377.058,436.076,376.465,436.389,375.86,436.389z"/><path fill="#000000" d="M332.098,466.805c-0.55,0-1.095-0.248-1.439-0.694c-0.531-0.687-0.988-1.28,2.406-14.881 c1.394-5.581,4.406-17.007,8.924-30.812c7.049-21.535,18.409-50.85,32.502-68.213c0.614-0.756,1.728-0.872,2.481-0.258 c0.759,0.615,0.874,1.726,0.26,2.483c-13.476,16.602-24.477,44.728-31.332,65.4c-7.479,22.556-11.851,41.751-12.104,44.739 c0.232,0.824-0.166,1.717-0.97,2.081C332.594,466.755,332.345,466.805,332.098,466.805z"/><path fill="#000000" d="M626.261,540.048c-1.026,0-1.883-0.807-1.932-1.843c-0.021-0.447-2.192-45.201-7.284-90.595 c-2.217-19.724-4.664-36.798-7.277-50.747c-0.197-1.051,0.496-2.063,1.544-2.259c1.048-0.195,2.062,0.494,2.261,1.545 c2.631,14.043,5.093,31.211,7.318,51.03c5.106,45.52,7.283,90.392,7.303,90.841c0.053,1.067-0.771,1.975-1.84,2.024 C626.321,540.048,626.291,540.048,626.261,540.048z"/><path fill="#000000" d="M486.898,327.573c-5.918,0-12.219-0.773-18.858-2.331c-17.74-4.161-31.44-12.298-32.014-12.643 c-0.838-0.501-1.107-1.585-0.607-2.42c0.502-0.836,1.585-1.108,2.42-0.607c0.139,0.082,13.867,8.229,31.09,12.252 c22.756,5.317,40.514,1.301,52.782-11.938c0.663-0.714,1.779-0.756,2.495-0.094c0.714,0.662,0.756,1.779,0.096,2.493 C514.912,322.417,502.181,327.573,486.898,327.573z"/><path fill="#ebeff0" d="M485.002,737.095c-0.266,0-0.532-0.06-0.787-0.185c-52.041-25.929-138.601-37.832-139.467-37.949 c-0.968-0.13-1.645-1.019-1.515-1.985c0.131-0.966,1.018-1.642,1.985-1.513c0.875,0.117,88.011,12.101,140.571,38.286 c0.872,0.435,1.228,1.495,0.792,2.368C486.274,736.736,485.65,737.095,485.002,737.095z"/><path fill="#ebeff0" d="M545.273,737.095c-0.74,0-1.429-0.467-1.676-1.207c-0.289-0.871,0.138-1.81,0.962-2.172 c0.951-0.641,4.96-4.962,9.595-9.956c11.988-12.919,34.303-36.965,58.184-56.76c29.376-24.354,53.139-35.678,70.617-33.658 c0.967,0.111,1.66,0.987,1.549,1.955c-0.113,0.968-0.984,1.661-1.956,1.551c-38.771-4.479-102.003,63.661-125.807,89.312 c-8.096,8.725-9.782,10.467-10.911,10.843C545.645,737.066,545.457,737.095,545.273,737.095z"/><path fill="#ebeff0" d="M395.902,636.639c-0.594,0-1.172-0.3-1.506-0.841c-0.51-0.831-0.248-1.917,0.581-2.427 c23.479-14.42,28.794-24.569,29.119-30.543c0.26-4.783-2.699-7.132-2.729-7.155c-0.769-0.597-0.909-1.706-0.314-2.475 c0.598-0.771,1.703-0.913,2.477-0.315c0.182,0.142,4.449,3.527,4.091,10.137c-0.537,9.917-10.899,21.141-30.796,33.359 C396.536,636.555,396.217,636.639,395.902,636.639z"/><path fill="#ebeff0" d="M510.24,752.34c-0.198,0-0.396-0.033-0.592-0.104c-0.918-0.326-1.399-1.335-1.072-2.254 c5.867-16.51,23.963-105.865,24.145-106.768c0.192-0.955,1.122-1.575,2.08-1.379c0.955,0.193,1.572,1.124,1.378,2.08 c-0.746,3.688-18.326,90.503-24.278,107.25C511.644,751.888,510.966,752.34,510.24,752.34z"/><path fill="#ebeff0" d="M277.853,1013.8c-0.892,0-1.658-0.674-1.751-1.581c-0.104-0.969,0.601-1.837,1.569-1.938 c2.209-0.23,8.683-4.549,21.099-39.582c6.965-19.651,12.355-39.399,12.408-39.597c0.257-0.94,1.232-1.496,2.167-1.24 c0.94,0.256,1.495,1.226,1.24,2.167c-0.056,0.198-5.476,20.058-12.481,39.831c-13.001,36.69-19.962,41.503-24.065,41.932 C277.977,1013.797,277.914,1013.8,277.853,1013.8z"/><path fill="#ebeff0" d="M303.864,1013.801c-0.608,0-1.202-0.316-1.528-0.88l-19.766-34.09c-0.25-0.431-0.305-0.946-0.156-1.419 c0.149-0.474,0.494-0.863,0.945-1.07l36.559-16.779l-25.484-15.911c-0.825-0.517-1.077-1.605-0.561-2.432 c0.515-0.827,1.604-1.078,2.43-0.562l28.262,17.647c0.552,0.343,0.869,0.962,0.826,1.609c-0.041,0.647-0.435,1.22-1.025,1.491 l-37.768,17.334l18.793,32.412c0.487,0.843,0.2,1.923-0.644,2.411C304.47,1013.724,304.164,1013.801,303.864,1013.801z"/><path fill="#ebeff0" d="M720.33,995.448c-0.449,0-0.901-0.172-1.245-0.517c-14.357-14.356-24.463-75.997-24.886-78.614 c-0.156-0.962,0.499-1.868,1.459-2.023c0.965-0.157,1.87,0.498,2.025,1.461c0.102,0.63,10.341,63.125,23.896,76.68 c0.688,0.689,0.688,1.807,0,2.496C721.234,995.275,720.783,995.448,720.33,995.448z"/><path fill="#ebeff0" d="M692.319,979.709c-0.524,0-1.028-0.233-1.366-0.648c-0.421-0.515-0.517-1.222-0.25-1.83l14.975-33.883 c-16.566-4.211-40.401-10.019-43.229-10.019c-0.976,0-1.765-0.79-1.765-1.765s0.789-1.764,1.765-1.764 c4.332,0,41.859,9.554,46.124,10.643c0.502,0.128,0.924,0.471,1.149,0.938c0.229,0.467,0.236,1.011,0.027,1.485l-14.409,32.608 l24.613-5.398c0.95-0.208,1.893,0.395,2.102,1.346c0.208,0.953-0.396,1.893-1.347,2.103l-28.012,6.143 C692.571,979.696,692.443,979.709,692.319,979.709z"/><path fill="#000000" d="M618.968,453.929c-0.015,0-0.028,0-0.043,0c-0.976,0-1.746-0.608-1.723-1.583 c0.629-26.286,36.374-48.107,53.552-58.646c0.522-0.321,1.051-0.589,1.566-0.908c-2.576,0.688-5.208,1.467-6.563,1.855 c-0.938,0.266-1.916-0.261-2.183-1.199c-0.269-0.937,0.274-1.906,1.212-2.173c5.244-1.499,8.585-2.39,10.826-2.897 c2.442-0.55,4.748-1.069,5.527,0.702c0.758,1.726-1.023,2.936-2.599,4.001c-1.406,0.954-3.407,2.184-5.942,3.739 c-15.348,9.417-51.285,31.244-51.87,55.612C620.709,453.391,619.923,453.929,618.968,453.929z"/><path fill="#000000" d="M573.327,432.386c-0.795,0-1.518-0.539-1.714-1.346c-6.173-25.265-55.076-68.652-55.57-69.09 c-0.729-0.644-0.799-1.76-0.153-2.49s1.759-0.8,2.49-0.155c2.049,1.807,50.228,44.562,56.661,70.897 c0.231,0.947-0.348,1.901-1.296,2.133C573.605,432.37,573.465,432.386,573.327,432.386z"/><path fill="#000000" d="M689.964,540.303c-27.499,0-63.403-41.046-65.036-42.93c-0.638-0.737-0.557-1.852,0.179-2.49 c0.736-0.638,1.85-0.558,2.49,0.179c0.418,0.481,42.067,48.104,67.878,41c0.939-0.258,1.91,0.296,2.167,1.235 c0.259,0.94-0.292,1.91-1.232,2.17C694.33,540.038,692.173,540.303,689.964,540.303z"/><path fill="#000000" d="M617.881,439.853c-0.201,0-0.404-0.034-0.603-0.105c-0.916-0.333-1.389-1.346-1.056-2.261 c1.687-4.645,16.779-45.485,27.076-49.507c0.91-0.356,1.931,0.095,2.285,1.001c0.354,0.907-0.094,1.931-1.001,2.285 c-6.634,2.592-18.882,30.466-25.043,47.426C619.277,439.408,618.602,439.853,617.881,439.853z"/><path fill="#f39200" d="M807.74,240.658c-0.252,0-0.507-0.017-0.761-0.051l-39.559-5.392c-3.091-0.421-5.253-3.269-4.833-6.358 c0.422-3.089,3.267-5.255,6.358-4.833l37.461,5.106l31.599-20.768c1.142-0.748,2.513-1.06,3.863-0.875l37.466,5.106l31.602-20.767 c1.14-0.751,2.509-1.061,3.863-0.877l39.565,5.39c3.089,0.421,5.254,3.266,4.833,6.357c-0.421,3.09-3.261,5.256-6.358,4.833 l-37.471-5.104l-31.602,20.767c-1.139,0.75-2.512,1.062-3.863,0.877l-37.463-5.105l-31.599,20.766 C809.918,240.337,808.839,240.658,807.74,240.658z"/><path fill="#f39200" d="M926.386,288.44c-0.948,0-1.911-0.24-2.796-0.745l-27.161-15.525l-29.561,10.254 c-1.54,0.536-3.235,0.376-4.653-0.432l-27.158-15.523l-29.556,10.254c-1.537,0.534-3.235,0.377-4.65-0.432l-29.39-16.798 c-2.706-1.548-3.646-4.998-2.099-7.704c1.549-2.708,4.997-3.649,7.704-2.101l27.158,15.524l29.556-10.254 c1.54-0.534,3.235-0.377,4.651,0.432l27.16,15.524l29.559-10.253c1.541-0.534,3.238-0.378,4.652,0.431l29.389,16.799 c2.711,1.547,3.65,4.996,2.104,7.705C930.253,287.417,928.348,288.439,926.386,288.44z"/><path fill="#f39200" d="M762.48,213.121c-2.841,0-5.287-2.137-5.607-5.026c-0.343-3.1,1.891-5.891,4.992-6.234l29.76-3.297 l16.234-25.159c0.922-1.428,2.434-2.364,4.122-2.552l29.761-3.296l16.238-25.16c0.92-1.428,2.434-2.364,4.123-2.552l32.43-3.594 c3.093-0.342,5.893,1.892,6.232,4.991c0.346,3.1-1.89,5.891-4.99,6.234l-29.762,3.299l-16.237,25.16 c-0.921,1.428-2.435,2.365-4.122,2.552l-29.761,3.296l-16.235,25.159c-0.92,1.427-2.434,2.364-4.123,2.552l-32.428,3.591 C762.896,213.11,762.687,213.121,762.48,213.121z"/><path fill="#c7a300" d="M692.033,550.259c-5.897,0.284-12.645-1.239-19.482-3.704c10.631-20.179,27.353-45.636,36.152-69.12 c12.451-33.186-6.734-93.239-18.709-124.709c0.181,0.116,0.361,0.202,0.542,0.202h0.13c12.928,8,23.767,15.487,32.76,23.346 c0.773,0.555,1.535,1.228,2.322,1.795c0.026,0.154,0.051,0.349,0.09,0.517C813.718,458.572,713.891,549.213,692.033,550.259z"/></svg>