<svg xmlns="http://www.w3.org/2000/svg" version="1.0" viewBox="0 0 1133.857 1133.858"><path fill="#ffd423" d="M548.17,892.443c-0.881-1.625-2.322-2.746-3.613-3.996 c-26.997-26.154-49.885-55.437-67.488-88.731c-8.891-16.819-15.959-34.349-20.44-52.883c-0.212-0.875,0.531-2.799-1.696-2.362 c0.794-4.351,0-8.576-0.967-12.799c-0.199-0.869-0.268-1.786-0.271-2.682c-0.025-6.33-0.069-12.661,0.004-18.99 c0.03-2.552,0.255-5.261,1.941-7.246c4.762-5.606,9.587-11.174,14.659-16.497c9.755-10.241,20.194-19.744,31.185-28.674 c9.335-7.584,18.978-14.726,29.084-21.198c15.846-10.15,32.436-18.931,49.747-26.373c15.355-6.599,31.116-11.966,47.249-16.243 c11.13-2.95,22.426-5.167,33.819-6.863c9.823-1.567,19.728-2.478,29.648-2.929c24.935-1.132,49.661,0.652,74.058,6.154 c33.062,7.455,63.398,20.813,90.355,41.561c7.412,5.705,14.129,12.182,21.029,18.458c1.252,4.407,1.796,8.995,3.409,13.308 c0.031,2.558,0.046,5.114,0.092,7.671c0.183,10.243-3.014,19.503-8.29,28.121c-4.994,8.157-11.619,14.879-18.837,21.06 c-9.024,6.844-18.614,12.737-28.917,17.482c-23.084,10.632-47.497,16.118-72.604,18.975c-3.71-0.323-7.268,1.13-10.967,0.961 c-7.222,0.183-14.447,0.644-21.662,0.492c-18.08-0.383-36.055-1.943-53.766-5.841c-0.924-0.202-1.948-0.722-2.979,0.101 c0.396,1.345,1.641,1.734,2.572,2.374c12.418,8.517,24.519,17.461,36.314,26.821c1.05,0.833,1.992,1.864,3.395,2.149 c1.05,1.57,2.337,2.874,4.105,3.631c8.637,7.515,17.273,15.031,25.91,22.546c0.163,0.499,0.496,0.788,1.023,0.848l-0.069-0.064 c0.422,1.287,1.26,2.015,2.664,1.982l-0.04-0.031c-0.025,0.795,0.27,1.467,0.865,1.973c6.014,5.134,10.837,11.409,16.373,17.001 c0.51,0.504,0.771,1.453,1.811,1.006l-0.093-0.069c-0.198,0.835-0.045,1.329,0.963,0.988l-0.064-0.056 c0.119,2.895,2.142,4.664,4.184,6.079c1.782,1.233,2.246,2.524,1.865,4.453c-0.199,1.006-0.265,2.037-0.393,3.056 c-3.166,10.173-8.101,19.452-14.486,27.931c-21.899,29.08-49.208,51.477-82.482,66.459c-1.084,0.488-2.319,0.717-3.166,1.667 c-3.323,0.946-6.671,1.819-9.966,2.856c-5.228,1.647-10.69,1.682-16.043,2.451c-2.017,0.291-3.795-0.784-5.605-1.495 c-20.48-8.044-39.092-19.341-56.594-32.563c-7.574-5.723-14.848-11.813-21.941-18.114 C551.439,895.044,550.41,892.988,548.17,892.443z M574.4,704.885c-1.688,2.047-2.916,3.556-4.162,5.047 c-4.139,4.949-6.923,10.581-8.352,16.858c-1.736,7.624-0.422,14.656,4.28,20.989c2.919,3.934,6.558,7.037,10.725,9.58 c8.689,5.299,18.022,9.228,27.782,11.847c26.649,7.145,49.579,20.938,70.334,38.668c15.789,13.486,29.382,28.973,41.35,45.947 c4.913,6.969,9.134,14.176,11.49,22.4c0.332,1.155,0.59,2.362,1.424,3.277c0.42,0.459,1.062,0.575,1.674,0.389 c0.624-0.193,1.073-0.693,1.076-1.31c0-0.733-0.186-1.482-0.383-2.199c-1.896-6.866-4.496-13.433-8.459-19.395 c-15.993-24.075-35.231-45.066-58.504-62.359c-17.499-13.003-36.454-22.908-57.5-28.723c-6.552-1.81-12.85-4.329-19.06-7.055 c-4.702-2.066-9.231-4.492-13.268-7.695c-9.6-7.62-12.027-17.212-7.563-28.623c2.254-5.756,6.155-10.3,10.042-14.924 c1.399-1.664,2.901-2.365,5.057-2.271c4.524,0.192,9.065,0.023,13.53-0.733c22.729-3.849,45.459-7.67,67.799-13.54 c23.17-6.087,46.156-12.845,69.302-19.009c19.381-5.162,38.923-9.791,59.118-10.246c17.645-0.398,34.901,1.556,50.836,10.004 c0.854,0.452,1.67,0.771,2.459-0.01c0.979-0.974,0.583-2.006-0.185-2.797c-0.83-0.852-1.778-1.668-2.824-2.209 c-1.731-0.899-3.544-1.677-5.388-2.313c-17.528-6.047-35.561-7.796-53.954-6.102c-22.166,2.041-43.625,7.573-64.954,13.602 c-32.769,9.262-65.418,18.958-99.082,24.616c-9.807,1.647-19.505,3.949-29.444,4.749c-2.14,0.172-4.321,0.458-6.778-0.25 c2.919-4.65,5.781-8.769,6.935-13.674c1.903-8.065,0.263-15.259-5.73-21.193c-2.672-2.643-5.936-4.107-9.748-4.125 c-10.004-0.044-20.712,10.188-20.94,20.176c-0.202,8.926,4.252,15.12,11.893,19.259C567.859,702.967,570.783,703.699,574.4,704.885 z"/><path fill="#000000" d="M876.473,650.15c-6.9-6.276-13.617-12.753-21.029-18.458 c-26.957-20.747-57.294-34.105-90.355-41.561c-24.396-5.502-49.123-7.286-74.058-6.154c-9.921,0.451-19.825,1.362-29.642,2.928 c-1.885-0.19-3.311-1.322-4.809-2.334c-12.889-8.716-26.357-16.396-40.523-22.852c-29.496-13.442-60.338-20.744-92.854-20.323 c-5.723,0.074-11.441,0.555-17.161,0.848c-1.446-0.423-2.805-1.263-4.411-0.913c-8.856-2.655-17.052-6.576-24.137-12.623 c0.722-2.746,3.511-2.927,5.364-4.241c1.709-1.211,3.726-2.046,3.618-4.626c4.513,0.226,9.027,0.434,13.539,0.681 c16.699,0.921,33.398,1.835,50.097,2.799c3.507,0.202,6.807-0.205,10.161-1.478c11.968-4.543,24.031-8.837,36.055-13.234 c13.155-4.812,26.311-9.621,39.456-14.46c4.229-1.555,4.417-1.871,4.153-6.223c-0.234-3.91-0.529-7.817-0.799-11.725 c1.43-0.829,2.836-1.696,4.291-2.479c2.992-1.613,3.047-1.633,5.189,0.867c9.495,11.082,19.079,22.091,28.405,33.313 c8.563,10.305,17.03,20.678,26.95,29.739c8.622,7.876,18.019,14.532,29.258,18.217c0.055,2.922,2.454,3.563,4.472,4.437 c15.747,6.813,31.737,12.973,48.258,17.679c17.931,5.106,36.126,7.969,54.837,6.729c3.166-0.21,6.279-0.684,9.342-1.479 c1.012-0.261,2.022-0.62,2.935-1.113c0.976-0.527,1.62-1.422,1.312-2.613c-0.346-1.336-1.333-2.002-2.686-1.917 c-0.887,0.057-1.757,0.354-2.639,0.525c-2.805,0.545-5.598,1.091-8.47,1.287c-13.471,0.914-26.782-0.248-39.924-3.187 c-20.765-4.645-40.627-12.059-60.293-20.04c-1.101-0.447-2.327-0.783-2.653-2.188c11.023-9.345,18.09-21.209,21.941-35.01 c7.284-26.105,4.736-51.481-5.977-76.202c-0.64-1.479-1.822-2.833-1.342-4.647c6.917-0.145,13.856-0.473,20.729,0.489 c12.196,1.705,23.595,5.818,34.313,11.858c1.177,0.663,2.36,1.35,3.62,1.817c1.271,0.469,2.363,0.005,3.037-1.229 c0.594-1.088,0.327-2.133-0.529-2.852c-1.025-0.862-2.201-1.559-3.366-2.238c-18.561-10.853-38.595-14.648-59.881-12.526 c-1.261,0.125-2.3,0.574-3.338,1.177c-9.501-6.375-20.003-10.391-31.111-12.784c-20.374-4.388-41.049-5.994-61.851-6.122 c-5.859-0.037-11.719,0.253-17.58,0.393c-0.191-2.398-0.447-4.793-0.562-7.196c-0.755-16.072-1.458-32.149-2.224-48.22 c-0.251-5.256-1.066-6.065-6.191-6.064c-13.692,0-27.383,0.089-41.074,0.102c-7.52,0.008-15.039-0.07-22.559-0.11 c3.678-4.622,8.128-8.475,12.683-12.146c13.313-10.731,27.629-19.764,44.036-25.115c14.083-4.594,28.436-6.253,43.177-4.32 c4.218,0.553,8.198,1.852,12.167,3.257c1.136,3.556-0.946,6.024-2.996,8.401c-1.37,1.591-3.021,2.941-4.07,4.809 c-6.956,12.38-9.271,25.729-7.709,39.695c0.923,8.237,8.175,12.681,16.2,10.511c1.593-0.431,3.198-0.934,4.677-1.652 c11.129-5.416,21.916-11.34,31.137-19.809c10.717-9.842,17.479-21.391,16.744-36.44c13.477,0.89,26.39,4.393,39.199,8.416 c9.629,3.026,19.12,6.412,28.407,10.37c22.054,9.401,39.532,24.341,53.827,43.474c22.326,29.88,35.449,63.487,40.982,100.111 c2.067,13.68,2.993,27.534,1.348,41.45c-1.811,15.294-6.878,29.227-15.977,41.68c-3.941,5.398-8.341,10.361-14.143,13.78 c-2.351,1.384-1.988,2.576-1.078,4.663c6.154,14.097,11.097,28.616,14.34,43.67c1.111,5.16,1.619,10.419,1.321,15.722 C877.949,646.937,877.979,648.79,876.473,650.15z M675.998,400.213c8.895,0.15,13.502-0.719,20.642-3.624 c10.992-4.474,19.918-11.709,27.633-20.592c7.28-8.388,11.633-18.623,17.628-27.818c0.162-0.248,0.287-0.534,0.367-0.819 c0.303-1.098,0.195-2.086-0.82-2.806c-1.064-0.754-2.056-0.443-2.837,0.373c-0.827,0.864-1.585,1.828-2.202,2.849 c-2.102,3.479-4.137,6.998-6.179,10.513c-5.651,9.737-12.563,18.38-21.552,25.288c-11.236,8.633-23.69,12.888-37.975,11.055 c-16.112-2.066-30.43-15.453-25.939-35.175c0.734-3.224,1.752-6.385,2.642-9.573c0.242-0.868,0.593-1.718,0.723-2.601 c0.196-1.33-0.368-2.405-1.605-2.937c-1.366-0.584-2.327,0.188-3.015,1.274c-0.395,0.625-0.648,1.352-0.899,2.058 c-1.466,4.12-2.637,8.325-3.396,12.631c-2.816,15.988,5.105,29.615,19.165,36.229C664.392,399.364,670.717,400.311,675.998,400.213 z M853.348,479.983c2.961,1.146,5.11,2.757,7.377,4.147c1.152,0.706,2.29,1.439,3.467,2.104c1.03,0.582,2.083,0.58,2.757-0.511 c0.721-1.167-0.001-2.001-0.942-2.627c-5.643-3.752-11.468-7.182-17.736-9.803c-1.506-0.629-2.982-0.815-3.959,0.828 c-0.825,1.388,0.346,2.209,1.122,3.078c6.349,7.083,10.366,15.435,13.251,24.394c0.553,1.715,0.928,3.485,1.391,5.229 c0.318,1.202,0.778,2.562,2.236,2.356c1.856-0.26,1.592-1.892,1.432-3.241c-0.105-0.892-0.288-1.784-0.543-2.646 c-2.01-6.8-4.594-13.354-8.334-19.418C854.258,482.886,853.318,482.027,853.348,479.983z M813.336,360.004 c-0.191-1.622-1.53-2.434-2.755-3.271c-8.036-5.492-17.314-8.34-26.117-12.204c-1.101-0.482-2.133-0.426-2.734,0.693 c-0.69,1.279,0.24,1.93,1.233,2.422c0.809,0.402,1.672,0.689,2.478,1.093c6.186,3.1,12.948,4.942,18.851,8.652 c2.037,1.279,4.003,2.671,6.066,3.903C811.864,362.193,813.361,361.524,813.336,360.004z M888.666,515.187 c0.201-3.934-0.261-7.829-0.636-11.724c-0.146-1.52,0.424-3.935-2.028-3.71c-2.393,0.219-1.584,2.637-1.408,4.072 c1.031,8.459,0.061,16.825-0.863,25.205c-0.131,1.191-0.282,2.436,0.232,3.566c0.314,0.683,0.917,1.259,1.762,1.153 c0.596-0.075,1.176-0.42,1.347-1.057c0.194-0.716,0.308-1.463,0.368-2.204C887.861,525.388,888.26,520.287,888.666,515.187z M855.79,602.773c1.085,3.84,2.26,8.183,3.566,12.488c0.342,1.134,1.028,2.388,2.587,1.758c1.252-0.505,1.049-1.734,0.776-2.742 c-1.13-4.2-2.349-8.377-3.492-12.575c-0.323-1.182-0.938-1.958-2.208-1.613C856.031,600.359,855.756,601.272,855.79,602.773z M877.911,525.845c0-0.734,0.076-1.341-0.016-1.921c-0.168-1.068-0.548-2.176-1.776-2.276c-1.598-0.131-1.943,1.116-1.971,2.379 c-0.086,3.847-1.46,7.263-3.39,10.51c-0.567,0.956-0.927,2.03,0.129,2.804c1.255,0.92,2.263,0.141,3.041-0.864 C876.381,533.309,877.337,529.574,877.911,525.845z M881.816,546.654c0.015-1.37-0.428-2.17-1.437-2.34 c-1.019-0.171-1.72,0.537-2.067,1.412c-1.396,3.526-3.325,6.726-5.685,9.685c-0.776,0.971-1.538,2.106-0.129,3.082 c1.239,0.857,2.311,0.063,3.165-0.839c2.623-2.773,4.268-6.158,5.799-9.597C881.701,547.52,881.756,546.903,881.816,546.654z M704.344,575.568c-2.963,0.358-6.08,0.673-9.177,1.139c-1.253,0.189-2.317,0.904-1.947,2.435c0.319,1.314,1.461,1.304,2.538,1.206 c2.971-0.27,5.943-0.514,8.906-0.859c1.552-0.18,3.84,0.054,3.749-2.174C708.314,574.901,705.97,575.878,704.344,575.568z M728.798,581.912c0.612-0.107,1.647-0.224,2.646-0.484c0.743-0.194,1.425-0.701,1.425-1.525c0.001-1.059-0.769-1.517-1.757-1.595 c-3.416-0.272-6.834-0.543-10.252-0.794c-0.947-0.069-1.898,0.125-2.128,1.179c-0.27,1.237,0.468,2.043,1.641,2.213 C723.025,581.287,725.7,581.55,728.798,581.912z M676.011,575.683c-2.13-0.135-4.647,0.385-7.188,0.67 c-0.993,0.111-1.785,0.594-1.793,1.657c-0.007,1.362,1.024,1.792,2.156,1.74c3.756-0.171,7.511-0.398,11.26-0.669 c0.968-0.07,1.738-0.676,1.787-1.698c0.052-1.077-0.762-1.607-1.715-1.675C679.17,575.609,677.811,575.683,676.011,575.683z M772.357,340.863c0.193-1.736-0.884-2.442-2.003-2.855c-3.097-1.139-6.243-2.149-9.387-3.161c-0.88-0.283-1.878-0.313-2.311,0.713 c-0.506,1.206,0.175,2.105,1.235,2.518c3.494,1.354,7.013,2.652,10.557,3.871C771.45,342.294,772.176,341.717,772.357,340.863z M833.307,376.667c-0.067-0.289-0.058-0.631-0.214-0.858c-2.134-3.092-4.947-5.525-7.792-7.914 c-0.627-0.527-1.421-0.261-1.992,0.355c-0.579,0.627-0.656,1.446-0.21,2.058c2.21,3.019,4.917,5.59,7.802,7.934 C831.907,379.061,833.368,377.979,833.307,376.667z M810.345,370.446c-0.7,0.009-1.339,0.315-1.718,1.035 c-0.304,0.573-0.291,1.262,0.153,1.652c1.77,1.56,3.579,3.079,5.448,4.519c0.618,0.476,1.426,0.348,2.022-0.25 c0.448-0.45,0.534-1.032,0.411-1.638C816.332,374.146,812.149,370.581,810.345,370.446z"/><path fill="#c7a300" d="M506.042,542.244c5.72-0.293,11.438-0.774,17.161-0.848 c32.516-0.421,63.357,6.881,92.854,20.323c14.166,6.456,27.635,14.136,40.523,22.852c1.498,1.012,2.924,2.144,4.809,2.334 c-11.4,1.696-22.696,3.913-33.826,6.863c-16.133,4.277-31.894,9.645-47.249,16.243c-17.312,7.442-33.901,16.223-49.747,26.373 c-10.106,6.473-19.749,13.614-29.084,21.198c-10.99,8.931-21.43,18.433-31.185,28.674c-5.072,5.323-9.897,10.89-14.659,16.497 c-1.687,1.984-1.911,4.694-1.941,7.246c-0.073,6.329-0.029,12.66-0.004,18.99c0.004,0.896,0.072,1.813,0.271,2.682 c0.967,4.223,1.761,8.448,0.967,12.799c-0.76,5.526-1.866,10.996-3.633,16.27c-8.621,25.75-19.315,50.57-33.664,73.708 c-1.821,2.936-3.929,5.696-5.914,8.531c-1.235,1.765-2.721,2.839-4.959,1.696c-1.78-2.432-3.513-4.912-5.842-6.87 c-5.656-4.756-11.365-9.513-17.912-12.964c-15.319-8.076-30.566-16.337-46.239-23.682c-15.264-7.153-30.536-14.31-45.927-21.202 c-1.055-2.281-1.18-4.582-0.518-7.035c12.793-47.349,31.562-91.973,60.281-132.042c15.818-22.069,34.219-41.679,55.941-58.062 c28.343-21.374,59.955-34.987,95.188-39.957C503.221,543.016,504.688,543.019,506.042,542.244z M447.181,632.85 c-0.285,1.474-0.595,2.762-0.776,4.068c-0.371,2.707-0.495,5.438,0.349,8.071c1.687,5.269,6.774,6.362,10.556,2.318 c0.83-0.889,1.432-1.916,1.871-3.063c1.806-4.733,0.618-9.233-3.912-12.76c-1.898-1.479-1.688-2.464-0.356-3.941 c1.938-2.149,4.16-3.941,6.667-5.365c3.678-2.089,7.527-3.79,11.587-5.025c10.772-3.277,21.844-4.515,33.038-4.458 c13.972,0.073,27.629-1.767,41.104-5.424c10.796-2.93,21.358-6.396,31.264-11.664c1.86-0.99,3.708-2.02,5.481-3.155 c1.141-0.73,2.439-1.704,1.395-3.27c-0.885-1.324-2.135-0.627-3.217-0.041c-0.797,0.43-1.566,0.903-2.363,1.335 c-7.964,4.322-16.239,7.872-24.91,10.585c-17.123,5.357-34.582,8-52.543,7.894c-10.58-0.062-21.056,1.426-31.176,4.716 c-6.787,2.206-13.461,4.915-18.251,10.402c-2.714,3.107-5.176,5.425-9.655,4.989c-2.364-0.229-4.688,0.995-6.883,2.01 c-5.998,2.776-10.995,6.797-14.957,12.109c-5.009,6.712-8.665,14.112-11.265,22.047c-5.117,15.622-6.993,31.731-7.276,48.091 c-0.177,10.099,0.221,20.255-1.289,30.261c-2.25,14.928-7.236,28.919-15.813,41.476c-3.147,4.604-6.436,9.112-9.632,13.682 c-1.557,2.224-3.068,4.478-4.564,6.742c-0.525,0.794-0.801,1.753,0.042,2.446c0.995,0.817,1.981,0.373,2.78-0.458 c0.417-0.431,0.768-0.929,1.12-1.418c3.87-5.386,7.694-10.807,11.607-16.163c9.438-12.906,15.06-27.398,17.887-43.039 c1.616-8.945,1.49-18.011,1.572-27.056c0.13-14.654,1.036-29.228,4.481-43.538c2.704-11.233,6.715-21.885,13.825-31.172 c3.757-4.909,8.477-8.554,14.192-10.862C441.641,633.219,444.186,632.216,447.181,632.85z"/><path fill="#000000" d="M663.204,943.226c0.847-0.95,2.082-1.179,3.166-1.667 c33.274-14.982,60.583-37.379,82.482-66.459c6.386-8.479,11.32-17.758,14.486-27.931c1.143,0.955,2.263,1.932,3.423,2.859 c6.778,5.415,12.4,12.032,18.743,17.9c0.842,1.587,2.147,2.758,3.489,3.898c2.508,2.999,4.942,6.063,7.538,8.986 c14.481,16.294,24.419,35.003,29.98,56.063c0.461,1.743,1.097,3.44,1.664,5.153c0.486,1.467,1.236,2.872,2.546,3.645 c6.305,3.719,9.55,9.939,12.957,15.939c3.048,5.363,5.351,11.101,7.534,16.894c1.595,4.229,1.416,8.207,0.052,12.33 c-1.334,4.032-3.177,7.783-5.62,11.275c-8.848,12.65-18.821,24.285-30.487,34.443c-8.068,7.027-16.08,14.118-24.119,21.18 c-7.402,6.503-15.677,11.718-24.298,16.415c-11.853,6.458-24.413,8.419-37.608,5.554c-12.381-2.691-24.627-5.885-35.857-12.013 c-6.52-3.558-12.62-7.628-16.951-13.925c-1.569-2.283-2.144-4.471-1.475-7.187c3.251-13.193,9.235-24.741,19.537-33.905 c4.64-4.128,9.851-6.861,15.906-8.056c4.58-0.903,9.115-1.945,13.568-3.405c5.191-1.706,8.256-5.138,9.736-10.348 c2.104-7.398,1.588-14.608-1.074-21.714c-1.966-5.25-6.097-8.452-10.823-11.052c-0.979-0.539-1.999-0.63-3.054-0.601 c-9.388,0.246-18.648-0.823-27.836-2.658c-0.435-0.085-0.9-0.001-1.352,0.004c-1.938-1.059-4.11-1.207-6.213-1.629 C676.184,950.65,669.177,947.976,663.204,943.226z M740.396,1064.532c4.979,0.526,9.934-0.725,14.86-2.234 c9.203-2.814,17.365-7.513,24.997-13.312c20.981-15.945,38.974-35.072,57.416-53.722c0.631-0.639,1.169-1.382,1.679-2.125 c0.918-1.337,1.435-2.771-0.077-4c-1.366-1.114-2.53-0.255-3.591,0.68c-0.338,0.298-0.635,0.645-0.941,0.978 c-11.855,12.88-24.649,24.818-37.221,36.975c-7.924,7.663-16.457,14.649-25.61,20.785c-10.698,7.171-22.222,12.095-35.503,11.374 c-0.9-0.05-1.817-0.032-2.708,0.093c-1.31,0.185-2.302,0.846-2.263,2.326c0.039,1.485,1.037,2.127,2.389,2.166 C735.931,1064.577,738.043,1064.532,740.396,1064.532z M752.713,984.589c-0.186-4.811-0.911-10.93-2.125-17.006 c-2.729-13.646-11.445-21.921-26.742-24.342c-6.815-1.077-12.697-3.469-18.101-7.491c-0.967-0.719-1.913-1.469-2.927-2.12 c-0.841-0.54-1.715-0.461-2.47,0.256c-0.737,0.701-0.833,1.552-0.522,2.479c0.298,0.904,0.984,1.512,1.701,2.058 c6.023,4.613,12.185,8.917,20.153,9.391c1.343,0.079,2.687,0.416,3.987,0.779c10.344,2.879,17.715,8.676,19.842,19.858 c1.524,8.025,2.482,16.075,2.189,24.25c-0.083,2.277-0.604,4.473-1.297,6.633c-0.468,1.46-0.327,2.79,1.241,3.382 c1.571,0.593,2.577-0.442,3.291-1.684c0.835-1.447,1.284-3.03,1.509-4.699C752.907,992.884,753.04,989.43,752.713,984.589z M732.803,1008.981c-1.57-0.026-2.451,0.454-2.762,1.637c-0.324,1.231,0.406,2.068,1.377,2.541 c1.206,0.588,2.499,1.018,3.791,1.403c12.154,3.622,22.128,10.566,30.492,19.968c0.4,0.448,0.763,0.938,1.208,1.334 c0.966,0.857,2.066,1.351,3.246,0.478c1.355-1,1.278-2.307,0.424-3.574c-0.837-1.241-1.68-2.507-2.708-3.583 c-9.355-9.796-20.604-16.414-33.686-19.928C733.611,1009.104,733.015,1009.022,732.803,1008.981z M766.657,982.196 c-0.417-1.396-1.389-2.135-2.942-1.899c-1.663,0.253-3.395,2.286-3.176,3.759c0.196,1.332,1.041,2.12,2.418,2.09 C764.521,986.113,766.813,983.67,766.657,982.196z M763.801,966.854c-0.329-1.536-1.245-2.7-2.954-2.688 c-1.507,0.011-2.569,0.912-2.387,2.576c0.193,1.762,1.421,2.578,3.091,2.542C762.941,969.252,763.615,968.291,763.801,966.854z M754.159,951.594c1.528-0.125,2.714-0.692,2.647-2.415c-0.055-1.429-1.118-2.16-2.406-2.196c-1.459-0.041-2.749,0.638-2.868,2.251 C751.404,950.964,752.687,951.482,754.159,951.594z M723.861,928.087c-1.305,0.11-2.293,0.645-2.379,2.083 c-0.099,1.613,0.908,2.523,2.346,2.678c1.313,0.142,2.279-0.656,2.373-2.049C726.306,929.207,725.334,928.4,723.861,928.087z M743.516,937.424c-0.099-1.471-0.765-2.542-2.405-2.57c-1.437-0.023-2.211,0.922-2.232,2.252c-0.02,1.349,0.818,2.221,2.19,2.347 C742.461,939.583,743.331,938.925,743.516,937.424z"/><path fill="#000000" d="M770.66,274.281c-8.078,8.558-18.05,13.154-29.717,14.214 c-0.585,0.053-1.164,0.208-1.996,0.361c0.91,2.772,1.837,5.402,2.617,8.076c0.376,1.278,0.7,2.611,0.354,3.988 c-0.277,1.095-0.803,2.01-1.984,2.17c-1.211,0.164-2.005-0.576-2.354-1.664c-0.316-0.99-0.363-2.065-0.683-3.054 c-1.356-4.209-1.99-8.821-6.184-11.51c-1.235-1.366-1.968-2.795-1.93-4.816c0.081-4.399,0.46-8.717,1.713-12.944 c2.371-8.017,3.623-8.66,11.55-6.27c5.2,1.569,10.079,1.053,14.48-2.487c7.152-5.752,9.905-13.621,9.974-22.323 c0.058-7.4-7.364-12.831-13.582-10.188c-3.798,1.614-6.222,0.687-8.765-2.002c-2.287-2.419-5.06-4.192-8.23-5.079 c-1.044,0.864-1.062,1.996-1.432,2.946c-5.834,14.91-16.754,23.304-32.629,24.74c-18.876,1.708-32.685-14.545-28.404-32.962 c0.301-1.293,1.204-2.573,0.633-4.521c-5.629,7.435-11.254,14.25-17.972,20.426c1.527,1.327,2.784,2.383,3.996,3.487 c0.989,0.902,1.379,2.048,0.653,3.243c-0.887,1.46-2.344,1.376-3.583,0.687c-2.519-1.4-4.698-3.262-6.374-5.641 c-0.88-1.249-0.887-2.578,0.079-3.764c0.755-0.928,1.622-1.779,2.521-2.571c5.681-5.005,10.613-10.691,15.209-16.679 c0.883-1.152,2.04-2.215,2.161-3.838c-3.489-0.476-3.485-0.473-5.894,2.506c-6.503,8.039-14.237,14.264-24.541,16.75 c-6.975,1.682-13.134,0.46-18.151-4.971c-5.666-10.319-1.378-19.426,3.631-28.254c-0.89-1.224-1.785-0.4-2.597-0.427 c-3.206-0.104-4.693-2.052-3.726-5.043c0.32-0.987,0.885-1.911,1.417-2.813c14.48-24.371,35.812-38.799,63.616-43.83 c1.48-0.267,2.962-0.52,4.445-0.778c2.608,0.311,5.19,0.073,8.761-0.224c-3.486-1.235-6.035-1.921-8.771-1.55 c-26.929-2.445-49.805,6.325-68.863,25.225c-6.226,6.172-11.637,13.055-14.822,21.41c-0.316,0.83-0.803,1.616-1.316,2.346 c-0.591,0.838-1.533,0.957-2.434,0.694c-0.977-0.285-1.379-1.118-1.418-2.09c-0.051-1.224,0.299-2.371,0.718-3.515 c1.2-3.272,2.728-6.389,4.75-9.215c21.974-30.694,51.637-44.196,89.21-39.384c10.641,1.362,19.963,6.523,29.035,12.001 c1.27,0.765,2.356,1.887,3.906,2.16c0.566-1.083,0.057-2.088-0.153-3.087c-3.979-18.871,5.31-35.524,23.569-41.881 c12.965-4.515,25.815-3.419,38.462,1.427c7.108,2.725,13.516,6.653,19.142,11.781c2.99,2.726,6.353,4.86,10.057,7.554 c0.816-3.014,0.489-5.342-0.033-7.635c-0.333-1.458-0.931-2.854-1.352-4.295c-0.363-1.249-0.293-2.461,1.039-3.104 c1.3-0.628,2.324,0.016,3.16,1.004c0.903,1.067,1.271,2.372,1.576,3.704c0.351,1.53,0.728,3.051,1.271,5.309 c1.533-2.282,1.824-4.106,1.852-6.013c0.021-1.582,0.658-2.71,2.374-2.61c1.636,0.096,2.331,1.323,2.392,2.799 c0.177,4.232-1.38,7.961-3.598,11.445c-0.639,1.004-1.493,1.868-2.208,2.744c-0.001,0.572,0.229,0.93,0.659,1.139 c17.245,8.44,27.577,22.553,32.567,40.672c5.058,18.369,3.521,36.202-6.52,52.725c-7.136,11.742-17.368,19.48-31.12,22.023 c-7.26,1.342-14.404,0.705-21.411-1.577c-1.399-0.457-2.788-0.95-4.154-1.417c-0.665,1.183-0.276,2.244-0.221,3.271 c0.726,13.658-6.062,23.513-16.056,31.734c-0.688,0.565-1.542,0.932-2.338,1.36c-1.649,0.891-2.879,0.381-3.781-1.171 c0.152-2.274,1.966-3.271,3.484-4.459c4.966-3.881,8.641-8.798,11.527-14.335c1.938-3.724,2.722-7.677,2.275-12.888 c-1.41,2.963-2.37,4.962-3.313,6.968C782.747,259.283,776.831,266.87,770.66,274.281z M835.588,140.339 c-0.059-0.561-0.394-0.829-0.933-0.879c-0.44-0.846-1.126-1.037-1.981-0.75c0.039-0.135,0.112-0.271,0.104-0.401 c-0.007-0.088-0.132-0.167-0.203-0.251c0.057,0.197,0.116,0.396,0.173,0.594c0.605,0.405,1.046,1.25,1.99,0.745 c-0.445,0.745,0.008,1.022,0.63,1.212c-0.137,0.537,0.205,0.84,0.559,1.137c0.251,0.298,0.504,0.596,0.756,0.895 c1.049,1.43,1.835,3.075,3.351,4.125c0.603,1.036,1.191,2.082,1.809,3.11c5.678,9.484,8.851,19.744,9.349,30.786 c0.616,13.625-2.117,26.411-10.347,37.56c-7.699,10.431-17.922,16.346-31.164,16.236c-2.535-0.021-4.667,0.784-6.791,2.18 c5.349,2.035,12.532,2.454,18.601,1.005c14.136-3.373,23.416-12.496,29.314-25.329c5.248-11.421,6.416-23.479,4.317-35.791 c-1.954-11.467-6.265-21.948-14.125-30.75c-0.755-1.624-1.981-2.811-3.471-3.754c-0.118-0.501-0.416-0.808-0.938-0.873 C836.462,140.618,836.149,140.325,835.588,140.339z M828.313,181.109c0.64,7.617-2.52,13.743-7.602,19.056 c-6.053,6.325-13.795,9.468-22.108,11.422c-1.876,0.439-4.43,0.243-3.889,3.093c0.501,2.64,3.045,2.167,4.858,1.828 c8.578-1.608,16.346-5.051,22.84-10.996c3.815-3.489,6.792-7.613,8.764-12.437c1.214-2.967,1.879-6.021,1.773-9.227 c-0.125-3.793-0.981-4.256-4.744-2.616c-1.061-1.206,0.021-2.296,0.313-3.329c1.144-4.073,1.973-8.2,2.472-12.39 c0.503-4.228,0.003-5.782-1.794-5.633c-3.085,0.258-2.471,2.916-2.78,4.858c-1.119,7.024-2.787,13.848-6.192,20.191 c-4.728,8.811-12.032,14.055-21.691,16.209c-1.174,0.262-2.371,0.45-3.531,0.767c-1.128,0.309-1.845,1.132-1.802,2.304 c0.049,1.4,0.959,2.155,2.326,2.292c1.818,0.179,3.581-0.123,5.354-0.579c11.533-2.966,19.802-9.787,24.802-20.634 C826.353,183.829,826.34,181.803,828.313,181.109z M624.885,211.78c0.704,6.328,3.702,9.105,9.872,9.225 c2.909,0.056,5.672-0.551,8.324-1.671c10.593-4.471,18.159-12.04,22.839-22.5c0.638-1.424,1.484-2.908,1.048-4.854 c-9.64-1.396-19.164-2.135-28.771-1.179c-1.787-0.435-3.681-0.782-4.99,0.829C628.434,197.5,624.445,203.737,624.885,211.78z M700.591,243.408c0.296-0.017,1.054-0.007,1.797-0.11c1.341-0.188,2.7-0.343,4.004-0.688c11.792-3.122,19.823-10.255,23.64-22.008 c0.76-2.344,0.234-3.636-1.911-4.68c-2.295-1.118-4.46-2.501-6.709-3.724c-8.734-4.75-17.675-9.031-27.063-12.381 c-2.506-0.895-4.176-0.563-6.066,1.186c-3.947,3.651-7.013,7.857-8.882,12.892C673.77,229.067,683.953,243.544,700.591,243.408z M690.625,148.237c-1.299,0.221-2.933,0.451-4.55,0.784c-6.494,1.336-12.726,3.531-18.964,5.726 c-13.738,4.833-24.717,13.458-33.927,24.529c-0.758,0.913-1.429,1.944-1.923,3.019c-0.478,1.035-0.224,2.072,0.796,2.775 c1.069,0.736,2.025,0.38,2.823-0.431c0.627-0.638,1.108-1.418,1.692-2.103c6.904-8.095,14.813-14.973,24.472-19.59 c8.705-4.163,17.837-7.138,27.287-9.122c1.759-0.369,3.536-0.728,5.229-1.31c1.017-0.349,1.758-1.25,1.503-2.475 c-0.247-1.178-1.127-1.726-2.293-1.797C692.174,148.207,691.571,148.237,690.625,148.237z M783.686,107.545 c-2.727-1.497-5.134-1.771-7.469-2.115c-11.549-1.699-22.599-0.539-32.343,6.54c-8.422,6.12-12.296,14.586-12.111,24.941 c0.017,0.992-0.239,2.16,1.002,2.864C740.977,115.556,759.859,108.09,783.686,107.545z M818.344,227.973 c0.984-0.137,1.439-0.125,1.84-0.267c9.141-3.247,15.543-9.588,19.934-18.035c6.149-11.825,7.368-24.358,4.861-37.326 c-0.726-3.751-1.528-7.511-3.569-10.819C847.271,188.715,836.43,211.656,818.344,227.973z M736.99,143.781 c0,0.742-0.021,1.195,0.003,1.645c0.089,1.641,0.548,3.112,2.536,3.015c1.768-0.085,2.057-1.51,2.047-2.953 c-0.012-1.861,0.604-3.542,1.37-5.191c3.013-6.473,7.468-11.652,13.833-14.997c6.015-3.163,12.305-5.632,19.041-6.822 c1.035-0.184,2.089-0.39,3.057-0.774c1.078-0.427,1.615-1.337,1.396-2.535c-0.179-0.985-0.863-1.61-1.785-1.818 c-1.492-0.337-3.008-0.179-4.484,0.152c-6.938,1.556-13.572,3.94-19.794,7.416c-7.234,4.042-12.313,10.021-15.667,17.533 C737.742,140.246,737.077,142.079,736.99,143.781z M757.193,194.201c0.227-7.767-0.934-14.089-3.176-20.22 c-0.359-0.98-0.813-1.941-1.346-2.839c-0.604-1.021-1.614-1.361-2.726-1.003c-1.211,0.389-1.49,1.398-1.294,2.539 c0.101,0.584,0.308,1.158,0.521,1.715c5.078,13.241,3.7,26.239-1.432,39.109c-1.308,3.28-1.124,4.961,0.497,5.533 c1.633,0.577,2.918-0.476,4.284-3.703C755.544,208.191,757.151,200.743,757.193,194.201z M745.883,193.366c0-0.641,0-0.939,0-1.239 c-0.006-1.696-0.019-3.612-2.209-3.76c-2.334-0.157-2.334,1.794-2.417,3.481c-0.251,4.871-1.856,9.35-3.989,13.675 c-0.526,1.069-1.13,2.126-1.462,3.258c-0.313,1.08,0.081,2.079,1.177,2.629c0.945,0.474,1.77,0.1,2.453-0.532 c0.541-0.5,1.063-1.078,1.413-1.719C743.616,204.126,745.419,198.783,745.883,193.366z M684.457,196.875 c-1.077-1.44-2.697-1.566-4.096-1.921c-2.442-0.62-5.138-2.443-7.3-1.398c-2.013,0.971-1.642,4.291-2.732,6.413 c-0.173,0.339-0.093,0.596,0.63,0.974c2.419,0.311,4.785,1.741,6.715,3.833C680.178,201.86,682.322,199.363,684.457,196.875z M742.549,281.837c0.008-0.067,0.012-0.135,0.018-0.202c1.041,0,2.085,0.057,3.123-0.013c1.467-0.101,2.773-0.752,2.771-2.333 c0-1.61-1.286-2.185-2.8-2.218c-2.674-0.062-5.365,0.09-7.994-0.612c-1.46-0.39-2.812-0.133-3.246,1.453 c-0.521,1.897,0.883,2.755,2.402,3.101C738.697,281.436,740.637,281.575,742.549,281.837z M795.475,230.985 c-0.117-0.311-0.15-0.888-0.449-1.109c-2.393-1.77-5.069-3.061-7.761-4.289c-0.712-0.325-1.48,0.185-1.96,0.792 c-0.62,0.786-0.692,1.828-0.069,2.506c2.057,2.254,4.509,3.985,7.653,4.246C794.169,233.238,795.176,232.515,795.475,230.985z M785.756,108.345c-0.095-0.06-0.189-0.119-0.283-0.178c0.108-0.027,0.223-0.088,0.324-0.071c0.1,0.015,0.188,0.108,0.281,0.167 C785.971,108.291,785.864,108.317,785.756,108.345z"/><path fill="#424c47" d="M639.139,476.202c0.27,3.908,0.564,7.815,0.799,11.725 c0.264,4.352,0.075,4.667-4.153,6.223c-13.146,4.839-26.301,9.648-39.456,14.46c-12.023,4.397-24.087,8.691-36.055,13.234 c-3.354,1.272-6.654,1.68-10.161,1.478c-16.698-0.964-33.397-1.878-50.097-2.799c-4.512-0.248-9.026-0.455-13.539-0.681 c-1.4-2-3.525-1.945-5.648-2.108c-9.738-0.745-19.521-0.526-29.246-1.202c-14.69-1.021-29.357-1.621-44.062-0.51 c-14.276-1.055-28.583-1.53-42.887-2.012c-3.16-0.106-6.31-0.421-9.468-0.615c-1.509-0.093-2.655-0.662-2.932-2.266 c-0.309-1.79,0.957-2.331,2.334-2.739c9.817-2.911,19.633-5.838,29.455-8.735c32.071-9.459,64.146-18.904,96.219-28.366 c3.29-0.971,3.242-1.009,3.405-4.685c0.82-18.519,1.325-37.048,1.918-55.574c0.548-17.17,1.392-34.33,1.706-51.508 c0.093-4.955,0.799-5.517,5.997-5.266c23.499,1.139,47.006,0.609,70.511,0.359c7.52,0.039,15.039,0.117,22.559,0.109 c13.691-0.013,27.382-0.102,41.074-0.102c5.125-0.001,5.94,0.808,6.191,6.064c0.766,16.071,1.469,32.148,2.224,48.22 c0.114,2.402,0.37,4.798,0.562,7.197c-7.673,0.452-15.377,1.084-22.945-0.747c-5.84-1.415-11.783-2.513-17.349-4.952 c-1.843-0.808-3.855-1.051-5.464,0.623c-1.572,1.636-1.219,3.55-0.654,5.516c0.488,1.697,1.971,3.052,1.774,5.094 c-0.65,0.102-1.232,0.251-1.819,0.276c-10.661,0.465-21.029-1.083-31.102-4.593c-1.713-0.597-3.402-1.273-5.253-1.186 c-2.446,0.116-3.458,1.339-3.308,3.823c0.116,1.918,1.13,3.438,2.24,4.852c1.055,1.344,2.336,2.509,3.805,4.053 c-4.458,0-8.361-0.009-12.268,0.003c-2.41,0.007-4.844-0.153-7.202,0.457c-5.629,1.458-7.563,6.997-4.06,11.681 c0.71,0.948,1.646,1.758,2.584,2.497c4.559,3.586,10.024,4.668,15.564,5.501c1.498,0.225,3.105,0.068,4.798,1.493 c-3.511,1.069-6.524,1.989-9.535,2.902c-5.188,1.57-10.403,3.059-15.557,4.731c-2.882,0.934-5.192,2.715-5.309,6.038 c-0.117,3.407,2.335,5.151,5.082,6.216c4.497,1.745,9.101,3.046,14.037,3.079c9.457,0.064,18.522-2.01,27.533-4.551 c1.5-0.422,2.979-1.506,5.024-0.418c-1.934,3.468-3.772,6.889-5.725,10.243c-2,3.435-2.212,7.165-1.91,10.958 c0.269,3.366,1.984,4.752,5.388,4.664c2.876-0.073,5.191-1.47,7.316-3.202c5.137-4.19,10.263-8.396,15.305-12.701 c1.507-1.287,2.938-1.965,4.908-1.3c6.234,2.105,12.785,1.864,19.216,2.366C627.617,479.994,633.398,478.053,639.139,476.202z"/><path fill="#000000" d="M290.842,779.958c15.391,6.892,30.663,14.049,45.927,21.202 c15.673,7.345,30.92,15.606,46.239,23.682c6.547,3.452,12.256,8.208,17.912,12.964c2.329,1.958,4.062,4.438,5.842,6.87 c-3.826,3.13-8.52,3.679-13.145,4.18c-4.04,0.438-8.126,0.6-12.189,0.563c-2.331-0.02-3.83,0.667-5.332,2.517 c-14.138,17.391-30.239,32.741-48.321,45.999c-2.932,2.15-6.191,3.723-9.387,5.418c-4.158,2.209-5.16,4.039-4.578,8.758 c0.441,3.587,0.947,7.188,1.764,10.703c3.418,14.729-8.781,29.127-21.968,31.236c-11.3,1.807-22.488,1.798-33.778,0.52 c-30.106-3.413-59.997-8.351-89.969-12.726c-12.818-1.872-25.688-3.402-38.543-5.03c-3.931-0.499-6.318-3.254-4.849-6.742 c4.624-10.974,9.274-21.944,19.394-29.418c7.08-5.23,15.1-6.997,23.565-8.255c17.273-2.567,34.598-1.842,51.916-1.428 c3.984,0.095,7.057-1.072,9.762-3.667c1.738-1.665,3.433-3.402,4.936-5.277c5.288-6.595,9.81-13.7,14.195-20.934 c14.571-24.034,25.468-49.895,37.74-75.072C288.955,784.009,289.051,781.581,290.842,779.958z M257.134,939.44 c6.026,0,12.058,0.166,18.077-0.04c8.13-0.281,14.162-4.547,19.012-10.746c0.927-1.186,1.69-2.515,1.926-4.041 c0.172-1.104-0.066-2.098-1.166-2.697c-1.148-0.623-2.076-0.146-2.802,0.686c-0.688,0.788-1.171,1.751-1.809,2.587 c-4.004,5.267-8.974,8.624-15.868,9.137c-17.824,1.328-35.604,0.341-53.244-1.809c-14.322-1.746-28.511-4.768-42.436-8.752 c-4.063-1.161-8.215-1.889-12.379-2.555c-1.657-0.267-3.319-0.315-4.879,0.418c-1.029,0.485-1.657,1.342-1.488,2.533 c0.177,1.231,1.01,1.857,2.219,1.767c5.7-0.425,11.038,1.349,16.355,2.889C204.296,936.233,230.46,939.866,257.134,939.44z M310.336,799.841c-0.082-1.714-2.122-2.535-3.834-1.403c-1.787,1.18-2.987,2.962-4.228,4.673 c-7.702,10.625-14.943,21.539-21.35,33.012c-11.604,20.784-22.851,41.791-36.801,61.165c-0.88,1.223-1.328,2.554-0.115,3.655 c1.186,1.076,2.512,0.593,3.67-0.36c2.258-1.856,3.707-4.337,5.279-6.729c12.595-19.163,23.511-39.309,34.81-59.234 c6.395-11.278,13.205-22.307,21.384-32.42C309.729,801.484,310.308,800.813,310.336,799.841z M210.24,920.603 c-0.107-0.305-0.245-0.891-0.505-1.417c-0.88-1.777-2.224-3.203-3.675-4.506c-6.037-5.427-12.668-10.07-19.394-14.585 c-0.369-0.25-0.766-0.466-1.167-0.665c-1.088-0.538-2.105-0.319-2.83,0.582c-0.754,0.939-0.627,2.048,0.213,2.857 c0.964,0.93,2.066,1.728,3.16,2.51c6.948,4.974,14.033,9.775,19.655,16.346c0.381,0.445,0.851,0.873,1.369,1.129 C208.582,923.601,210.185,922.573,210.24,920.603z M305.905,832.29c-1.744,0.178-3.19,0.804-3.079,2.652 c0.095,1.561,1.411,2.245,2.914,2.126c1.602-0.125,3.037-0.792,2.941-2.667C308.597,832.752,307.29,832.273,305.905,832.29z M294.514,846.986c-1.865,0.124-2.333,1.302-2.292,2.781c0.04,1.621,0.526,3.074,2.492,3.029c1.648-0.037,2.357-1.226,2.278-2.732 C296.908,848.475,296.281,847.164,294.514,846.986z M315.28,819.111c-0.075-1.442-0.95-2.098-2.281-2.164 c-1.504-0.075-3.105,1.321-2.984,2.643c0.122,1.346,0.979,2.097,2.334,2.169C313.879,821.842,315.29,820.539,315.28,819.111z M283.355,866.151c0.086,1.358,1.044,2.274,2.302,2.204c1.475-0.083,2.609-1.548,2.469-3.171c-0.126-1.434-1.001-2.175-2.334-2.239 C284.404,862.878,283.251,864.5,283.355,866.151z M270.878,888.533c1.377-0.005,2.349-0.749,2.456-2.032 c0.129-1.521-0.826-2.466-2.396-2.566c-1.367-0.087-2.363,0.588-2.471,1.95C268.347,887.462,269.43,888.223,270.878,888.533z"/><path fill="#ebeff0" d="M622.196,220.59c5.018,5.431,11.177,6.653,18.151,4.971 c10.304-2.486,18.038-8.711,24.541-16.75c2.408-2.979,2.404-2.982,5.894-2.506c-0.121,1.623-1.278,2.686-2.161,3.838 c-4.596,5.987-9.528,11.674-15.209,16.679c-0.898,0.792-1.766,1.643-2.521,2.571c-0.966,1.186-0.959,2.515-0.079,3.764 c1.676,2.379,3.855,4.24,6.374,5.641c1.239,0.69,2.696,0.773,3.583-0.687c0.726-1.195,0.336-2.34-0.653-3.243 c-1.212-1.104-2.469-2.16-3.996-3.487c6.718-6.176,12.343-12.991,17.972-20.426c0.571,1.948-0.332,3.228-0.633,4.521 c-4.28,18.417,9.528,34.67,28.404,32.962c15.875-1.436,26.795-9.83,32.629-24.74c0.37-0.95,0.388-2.082,1.432-2.946 c3.171,0.887,5.943,2.66,8.23,5.079c2.543,2.689,4.967,3.616,8.765,2.002c6.218-2.643,13.64,2.788,13.582,10.188 c-0.068,8.703-2.821,16.571-9.974,22.323c-4.401,3.54-9.28,4.056-14.48,2.487c-7.927-2.39-9.179-1.747-11.55,6.27 c-1.253,4.228-1.632,8.545-1.713,12.944c-0.038,2.021,0.694,3.45,1.93,4.816c-1.595,1.448-1.669,3.571-1.775,5.366 c-0.285,4.78-0.639,9.667,0.046,14.363c0.744,5.09,0.343,10.16,0.84,15.213c0.734,15.05-6.027,26.599-16.744,36.44 c-9.221,8.469-20.008,14.393-31.137,19.809c-1.479,0.719-3.084,1.222-4.677,1.652c-8.025,2.17-15.277-2.274-16.2-10.511 c-1.563-13.965,0.753-27.315,7.709-39.695c1.049-1.868,2.7-3.218,4.07-4.809c2.05-2.376,4.132-4.845,2.996-8.401 c2.271-3.019,1.691-6.703,2.176-10.093c0.416-2.901,0.066-5.911,0.058-8.873c1.651-0.1,3.302-0.204,4.952-0.298 c9.227-0.527,17.721-3.328,25.499-8.29c1.005-0.639,1.985-1.39,2.768-2.273c0.761-0.861,0.717-2.003-0.001-2.93 c-0.707-0.913-1.713-1.272-2.811-0.746c-0.945,0.454-1.84,1.023-2.732,1.584c-11.404,7.189-23.77,9.087-36.891,6.632 c-10.607-1.984-19.926-6.726-28.236-13.526c-1.649-1.352-3.201-2.816-5.601-2.164c-2.776-0.392-3.869-2.895-5.103-4.726 c-5.968-8.876-9.486-18.641-9.763-29.475C619.978,234.172,620.357,227.315,622.196,220.59z M656.277,268.917 c5.078-0.001,9.88-1.075,14.162-3.895c2.711-1.784,2.865-3.068,0.654-5.42c-4.746-5.048-10.594-8.385-17.124-10.549 c-1.413-0.468-2.921-0.761-4.407-0.88c-2.174-0.177-4.354,0.212-5.623,2.17c-1.217,1.877-0.543,3.807,0.768,5.428 c0.881,1.088,0.881,1.842,0.121,3.135c-2.253,3.841-1.385,6.316,2.663,8.325C650.25,268.598,653.23,268.971,656.277,268.917z M751.326,244.416c0.563,2.471-0.057,4.208-0.216,5.969c-0.121,1.354,0.405,2.423,1.812,2.694c1.186,0.226,2.001-0.535,2.493-1.527 c0.325-0.661,0.461-1.417,0.674-2.132c0.854-2.854,0.535-5.657-0.438-8.404c-0.466-1.319,0.099-1.961,1.261-2.355 c1.339-0.454,1.942,0.217,2.247,1.411c0.187,0.722,0.276,1.518,0.652,2.131c1.009,1.644,3.094,1.509,3.98-0.188 c1.894-3.611-0.851-8.485-4.941-8.682c-3.202-0.153-5.814,1.243-8.077,3.39c-3.614,3.43-5.375,7.892-6.926,12.471 c-0.5,1.47-0.348,2.762,1.248,3.323c1.625,0.571,2.479-0.521,3.126-1.829C749.138,248.83,749.557,246.728,751.326,244.416z"/><path fill="#424c47" d="M788.994,871.826c-1.342-1.139-2.647-2.311-3.489-3.897 c2.827-3.029,6.627-5.037,9.234-8.482c-0.647-0.538-1.087-0.948-1.568-1.293c-10.657-7.595-21.311-15.196-31.993-22.754 c-1.064-0.752-1.941-1.971-3.495-1.818l0.064,0.056c0.008-0.649-0.397-0.897-0.963-0.988l0.093,0.069 c-0.343-0.805-1.146-0.779-1.811-1.006c-5.536-5.592-10.359-11.867-16.373-17.001c-0.596-0.506-0.891-1.178-0.865-1.973 c1.625,0.139,2.662,1.358,3.861,2.209c17.945,12.732,35.863,25.497,53.775,38.275c3.74,2.669,3.188,3.494,7.563-0.173 c25.76-21.584,51.514-43.177,77.259-64.779c30.135-25.284,60.26-50.575,90.374-75.882c1.104-0.928,2.498-1.646,3.2-3.695 c-4.569,0.401-8.83,0.74-13.084,1.153c-14.394,1.402-28.782,2.822-43.172,4.25c-13.939,1.382-27.875,2.811-41.816,4.164 c-7.642,0.741-15.296,1.371-22.942,2.051c7.218-6.181,13.843-12.903,18.837-21.06c5.276-8.618,8.473-17.878,8.29-28.121 c-0.046-2.557-0.061-5.113-0.092-7.671c12.021,3.412,24.058,6.772,36.061,10.249c26.474,7.672,52.93,15.404,79.395,23.112 c0.867,0.252,1.731,0.517,2.599,0.773c1.887,0.558,4.024,0.959,3.951,3.555c-0.064,2.264-2.466,4.824-4.841,5.159 c-3.13,0.44-6.286,0.713-9.438,0.972c-2.032,0.168-3.684,0.938-5.262,2.265c-24.443,20.578-48.924,41.112-73.4,61.647 c-21.134,17.728-42.278,35.438-63.405,53.168c-12.931,10.85-25.848,21.72-38.758,32.594c-0.782,0.659-1.835,1.114-2.063,2.47 c1.432,1.876,3.62,2.984,5.549,4.358c56.579,40.326,113.183,80.619,169.783,120.913c9.453,6.73,18.917,13.446,28.367,20.181 c0.979,0.697,1.973,1.405,2.828,2.241c1.109,1.087,1.249,2.442,0.263,3.658c-0.876,1.08-2.093,1.117-3.265,0.412 c-1.031-0.619-2.04-1.285-3.02-1.982c-42.604-30.332-85.2-60.671-127.802-91.004c-24.922-17.746-49.853-35.48-74.782-53.215 c-2.935-2.086-2.96-2.09-5.683,0.156C794.282,867.344,791.646,869.595,788.994,871.826z"/><path fill="#ebeff0" d="M407.521,516.021c14.704-1.111,29.371-0.512,44.062,0.51 c9.726,0.676,19.508,0.457,29.246,1.202c2.123,0.163,4.248,0.108,5.648,2.108c0.107,2.58-1.909,3.415-3.618,4.626 c-1.854,1.314-4.643,1.495-5.364,4.241c-4.283-0.068-7.579,2.651-11.31,4.103c-6.913,2.692-13.899,4.947-21.398,4.76 c-3.888-0.096-7.776-0.672-11.538-1.715c-6.956-1.931-13.884-3.961-20.369-7.256c-2.63-1.336-4.74-3.126-6.353-5.588 C404.037,519.208,404.037,519.014,407.521,516.021z"/><path fill="#424c47" d="M548.17,892.443c2.24,0.545,3.27,2.601,4.885,3.919 c-10.771,7.47-21.564,14.906-32.302,22.42c-17.904,12.53-35.77,25.114-53.658,37.662c-0.983,0.689-1.987,1.403-3.083,1.856 c-1.182,0.488-2.408,0.314-3.214-0.859c-0.825-1.199-0.486-2.352,0.462-3.26c0.864-0.827,1.868-1.515,2.852-2.206 c26.638-18.712,53.284-37.409,79.906-56.142C545.473,894.811,547.224,894.107,548.17,892.443z"/><path fill="#424c47" d="M683.246,953.215c2.103,0.422,4.275,0.57,6.213,1.629 c-1.619,2.439-4.135,3.924-6.304,5.75c-23.609,19.874-47.272,39.687-70.93,59.503c-0.919,0.77-1.86,1.554-2.905,2.118 c-1.024,0.553-2.073,0.219-2.859-0.643c-0.802-0.879-0.943-1.969-0.276-2.906c0.687-0.963,1.561-1.826,2.472-2.592 c13.825-11.628,27.688-23.212,41.507-34.848C661.215,971.918,672.22,962.553,683.246,953.215z"/><path fill="#000000" d="M635.022,275.314c2.399-0.652,3.951,0.813,5.601,2.164 c8.311,6.801,17.629,11.542,28.236,13.526c13.121,2.455,25.486,0.558,36.891-6.632c0.893-0.562,1.787-1.131,2.732-1.584 c1.098-0.526,2.104-0.167,2.811,0.746c0.718,0.927,0.762,2.069,0.001,2.93c-0.782,0.884-1.763,1.634-2.768,2.273 c-7.778,4.961-16.272,7.762-25.499,8.29c-1.65,0.094-3.301,0.198-4.952,0.298c-15.453-0.662-28.988-6.229-40.924-15.944 C635.146,279.749,633.481,278.13,635.022,275.314z"/><path fill="#ebeff0" d="M770.66,274.281c6.171-7.412,12.087-14.998,16.229-23.794 c0.942-2.006,1.902-4.005,3.313-6.968c0.446,5.21-0.337,9.164-2.275,12.888c-2.887,5.538-6.562,10.454-11.527,14.335 c-1.519,1.188-3.332,2.186-3.484,4.459C772.162,274.895,771.411,274.587,770.66,274.281z"/><path fill="#ebeff0" d="M688.973,137.671c2.736-0.371,5.285,0.315,8.771,1.55 c-3.57,0.296-6.152,0.534-8.761,0.224C688.979,138.854,688.977,138.263,688.973,137.671z"/><path fill="#ebeff0" d="M506.042,542.244c-1.354,0.774-2.821,0.771-4.308,0.618 c-0.033-0.51-0.068-1.021-0.104-1.531C503.237,540.981,504.596,541.821,506.042,542.244z"/><path fill="#424c47" d="M704.234,783.825c5.64-4.746,11.969-8.537,17.889-12.89 c6.049-4.444,12.49-8.345,18.235-13.207c3.7,0.169,7.258-1.284,10.968-0.961c-12.785,9.038-25.574,18.068-38.344,27.127 c-1.589,1.127-3.369,2.02-4.643,3.562C706.571,786.699,705.284,785.395,704.234,783.825z"/><path fill="#424c47" d="M735.204,810.786c1.184,0.262,2.171,0.791,2.664,1.982 C736.464,812.801,735.626,812.073,735.204,810.786z"/><path fill="#424c47" d="M734.25,810.002c0.528,0.056,0.889,0.316,1.022,0.848 C734.746,810.791,734.413,810.501,734.25,810.002z"/><path fill="#ebeff0" d="M639.139,476.202c-5.74,1.851-11.521,3.792-17.633,3.314 c-6.431-0.502-12.981-0.261-19.216-2.366c-1.971-0.665-3.401,0.013-4.908,1.3c-5.042,4.306-10.168,8.511-15.305,12.701 c-2.125,1.732-4.44,3.129-7.316,3.202c-3.403,0.088-5.119-1.298-5.388-4.664c-0.302-3.792-0.09-7.523,1.91-10.958 c1.952-3.354,3.791-6.774,5.725-10.243c-2.046-1.088-3.524-0.004-5.024,0.418c-9.011,2.541-18.076,4.615-27.533,4.551 c-4.937-0.033-9.54-1.334-14.037-3.079c-2.747-1.065-5.199-2.809-5.082-6.216c0.116-3.322,2.427-5.104,5.309-6.038 c5.153-1.673,10.368-3.161,15.557-4.731c3.011-0.913,6.024-1.833,9.535-2.902c-1.692-1.425-3.3-1.268-4.798-1.493 c-5.54-0.833-11.006-1.915-15.564-5.501c-0.938-0.739-1.874-1.549-2.584-2.497c-3.503-4.684-1.569-10.223,4.06-11.681 c2.358-0.61,4.792-0.449,7.202-0.457c3.906-0.013,7.81-0.003,12.268-0.003c-1.469-1.544-2.75-2.709-3.805-4.053 c-1.11-1.414-2.124-2.934-2.24-4.852c-0.15-2.483,0.861-3.707,3.308-3.823c1.851-0.087,3.54,0.588,5.253,1.186 c10.072,3.51,20.44,5.059,31.102,4.593c0.587-0.025,1.169-0.175,1.819-0.276c0.196-2.042-1.286-3.397-1.774-5.094 c-0.564-1.965-0.918-3.879,0.654-5.516c1.608-1.674,3.621-1.43,5.464-0.623c5.565,2.439,11.509,3.538,17.349,4.952 c7.568,1.831,15.272,1.199,22.945,0.747c5.861-0.141,11.721-0.431,17.58-0.394c20.802,0.128,41.477,1.734,61.851,6.122 c11.108,2.393,21.61,6.41,31.111,12.784c0.77,3.406,0.77,3.406,5.415,3.503c-0.48,1.814,0.702,3.167,1.342,4.647 c10.713,24.721,13.261,50.097,5.977,76.202c-3.852,13.8-10.918,25.665-21.941,35.009c-1.768-0.019-3.584-0.15-4.49,1.883 c-11.239-3.685-20.636-10.34-29.258-18.217c-9.92-9.061-18.388-19.434-26.95-29.739c-9.326-11.222-18.91-22.231-28.405-33.313 c-2.143-2.5-2.197-2.48-5.189-0.867C641.975,474.506,640.568,475.373,639.139,476.202z M570.467,430.77 c15.984-1.295,31.627-4.543,47.346-7.276c0.444-0.078,0.9-0.148,1.317-0.31c1.007-0.388,2.062-0.848,1.749-2.212 c-0.301-1.304-1.447-1.443-2.514-1.377c-1.35,0.084-2.699,0.281-4.032,0.52c-17.336,3.097-34.613,6.641-52.303,7.168 c-1.224,0.037-2.665,0.04-2.673,1.687c-0.008,1.987,1.654,1.78,2.989,1.793C565.053,430.788,567.76,430.77,570.467,430.77z M610.284,433.525c-0.157-1.533-1.378-1.696-2.604-1.765c-4.736-0.267-9.273,0.862-13.725,2.234 c-10.924,3.368-21.105,8.686-31.936,12.319c-0.282,0.095-0.55,0.244-0.811,0.394c-1.075,0.619-2.22,1.322-1.524,2.785 c0.747,1.566,1.992,0.808,3.101,0.388c7.442-2.822,14.983-5.386,22.271-8.606c4.408-1.949,8.993-3.391,13.669-4.537 c3.074-0.752,6.197-1.171,9.357-1.355C609.214,435.314,610.146,434.951,610.284,433.525z M604.969,450.33 c-6.852-0.07-12.549,2.837-17.889,6.713c-0.738,0.534-1.38,1.156-1.738,2.028c-0.343,0.828-0.035,1.492,0.563,2.002 c0.476,0.407,1.106,0.518,1.667,0.134c0.616-0.424,1.162-0.948,1.771-1.386c5.012-3.598,10.418-6.013,16.772-5.646 c0.894,0.051,1.811-0.011,2.688-0.179c0.771-0.146,1.366-0.662,1.394-1.534c0.03-0.846-0.428-1.519-1.217-1.671 C607.662,450.539,606.307,450.474,604.969,450.33z M656.482,462.176c-0.006-0.726-0.134-1.311-0.673-1.678 c-0.726-0.493-1.482-0.36-2.009,0.252c-2.046,2.377-4.068,4.772-6.022,7.226c-0.571,0.719-0.762,1.705,0.089,2.412 c0.812,0.676,1.711,0.422,2.427-0.231c2.212-2.027,4.075-4.365,5.781-6.825C656.318,462.98,656.373,462.499,656.482,462.176z"/><path fill="#ebeff0" d="M877.911,525.845c-0.574,3.729-1.53,7.463-3.982,10.632 c-0.778,1.005-1.786,1.784-3.041,0.864c-1.056-0.774-0.696-1.848-0.129-2.804c1.93-3.248,3.304-6.663,3.39-10.51 c0.027-1.263,0.373-2.51,1.971-2.379c1.229,0.101,1.608,1.208,1.776,2.276C877.987,524.504,877.911,525.111,877.911,525.845z"/><path fill="#ebeff0" d="M881.816,546.654c-0.061,0.249-0.115,0.866-0.354,1.402 c-1.531,3.439-3.176,6.824-5.799,9.597c-0.854,0.902-1.926,1.696-3.165,0.839c-1.409-0.976-0.647-2.111,0.129-3.082 c2.359-2.959,4.288-6.159,5.685-9.685c0.348-0.875,1.049-1.583,2.067-1.412C881.389,544.484,881.831,545.285,881.816,546.654z"/><path fill="#ebeff0" d="M704.344,575.568c1.626,0.311,3.971-0.667,4.069,1.746 c0.091,2.228-2.197,1.995-3.749,2.174c-2.963,0.345-5.936,0.589-8.906,0.859c-1.077,0.099-2.219,0.108-2.538-1.206 c-0.37-1.531,0.694-2.246,1.947-2.435C698.264,576.241,701.381,575.926,704.344,575.568z"/><path fill="#ebeff0" d="M833.305,376.667c0.063,1.312-1.397,2.393-2.404,1.575 c-2.885-2.344-5.592-4.916-7.802-7.934c-0.446-0.612-0.369-1.431,0.21-2.058c0.571-0.616,1.365-0.883,1.992-0.355 c2.845,2.389,5.658,4.822,7.792,7.914C833.249,376.036,833.239,376.377,833.305,376.667z"/><path fill="#ebeff0" d="M810.345,370.446c1.805,0.134,5.987,3.7,6.317,5.318 c0.123,0.605,0.037,1.188-0.411,1.638c-0.597,0.598-1.404,0.727-2.022,0.25c-1.869-1.44-3.679-2.958-5.448-4.519 c-0.444-0.391-0.457-1.079-0.153-1.652C809.006,370.762,809.645,370.456,810.345,370.446z"/><path fill="#ebeff0" d="M766.657,982.196c0.155,1.474-2.136,3.917-3.7,3.95 c-1.377,0.03-2.222-0.758-2.418-2.09c-0.219-1.473,1.513-3.505,3.176-3.759C765.269,980.062,766.24,980.8,766.657,982.196z"/><path fill="#ebeff0" d="M763.801,966.854c-0.186,1.437-0.859,2.398-2.25,2.43 c-1.67,0.036-2.897-0.781-3.091-2.542c-0.183-1.664,0.88-2.565,2.387-2.576C762.556,964.155,763.472,965.319,763.801,966.854z"/><path fill="#ebeff0" d="M754.159,951.594c-1.473-0.112-2.755-0.63-2.627-2.36 c0.119-1.613,1.409-2.292,2.868-2.251c1.288,0.036,2.352,0.767,2.406,2.196C756.873,950.902,755.688,951.469,754.159,951.594z"/><path fill="#ebeff0" d="M723.862,928.09c1.472,0.31,2.443,1.117,2.339,2.709 c-0.094,1.393-1.061,2.19-2.373,2.049c-1.438-0.155-2.444-1.065-2.346-2.678C721.568,928.732,722.557,928.197,723.862,928.09z"/><path fill="#ebeff0" d="M700.591,243.408c-16.638,0.137-26.821-14.34-21.191-29.515 c1.869-5.034,4.935-9.241,8.882-12.892c1.891-1.749,3.561-2.08,6.066-1.186c9.389,3.35,18.329,7.631,27.063,12.381 c2.249,1.223,4.414,2.606,6.709,3.724c2.146,1.044,2.671,2.336,1.911,4.68c-3.816,11.753-11.848,18.886-23.64,22.008 c-1.304,0.345-2.663,0.5-4.004,0.688C701.645,243.401,700.887,243.391,700.591,243.408z"/><path fill="#ebeff0" d="M638.197,190.8c9.606-0.957,19.131-0.217,28.771,1.179 c0.437,1.946-0.41,3.431-1.048,4.854c-4.68,10.46-12.246,18.029-22.839,22.5c-2.652,1.121-5.415,1.728-8.324,1.671 c-6.17-0.12-9.168-2.897-9.872-9.225c1.559-0.896,1.952-2.58,2.695-4.016c2.396-4.63,4.525-9.404,8.289-13.2 C636.883,193.544,637.436,192.067,638.197,190.8z"/><path fill="#ebeff0" d="M684.457,196.875c-2.135,2.487-4.279,4.985-6.783,7.9 c-1.93-2.091-4.296-3.521-6.715-3.833c-0.723-0.378-0.803-0.635-0.63-0.974c1.091-2.123,0.72-5.442,2.732-6.413 c2.162-1.044,4.857,0.779,7.3,1.398C681.76,195.31,683.38,195.435,684.457,196.875z"/><path fill="#ebeff0" d="M840.995,145.774c-0.32,0.331-0.643,0.661-0.963,0.992 c-1.516-1.051-2.302-2.695-3.351-4.125c0.279-0.207,0.562-0.413,0.843-0.621C839.014,142.963,840.24,144.15,840.995,145.774z"/><path fill="#ebeff0" d="M834.738,139.396c-0.945,0.506-1.386-0.339-1.991-0.745 l-0.083,0.066c0.865-0.295,1.551-0.104,1.991,0.742C834.652,139.46,834.738,139.396,834.738,139.396z"/><path fill="#ebeff0" d="M836.682,142.64c-0.252-0.298-0.505-0.596-0.756-0.895 c0.238-0.181,0.457-0.38,0.66-0.599c0.522,0.065,0.82,0.372,0.938,0.873C837.243,142.227,836.961,142.434,836.682,142.64z"/><path fill="#ebeff0" d="M835.926,141.746c-0.354-0.297-0.695-0.6-0.559-1.137l0.221-0.27 c0.562-0.014,0.874,0.279,0.998,0.808C836.383,141.366,836.164,141.565,835.926,141.746z"/><path fill="#ebeff0" d="M835.367,140.608c-0.622-0.189-1.075-0.467-0.63-1.212 c0.001,0-0.085,0.064-0.082,0.063c0.539,0.05,0.874,0.318,0.933,0.879L835.367,140.608z"/><path fill="#ebeff0" d="M832.747,138.652c-0.057-0.198-0.116-0.396-0.173-0.594 c0.071,0.084,0.196,0.163,0.203,0.251c0.009,0.13-0.064,0.266-0.107,0.405C832.664,138.718,832.747,138.652,832.747,138.652z"/><path fill="#ebeff0" d="M305.905,832.29c1.385-0.016,2.691,0.463,2.776,2.112 c0.096,1.874-1.34,2.542-2.941,2.667c-1.503,0.118-2.819-0.566-2.914-2.126C302.715,833.094,304.161,832.467,305.905,832.29z"/><path fill="#ebeff0" d="M294.514,846.986c1.768,0.177,2.395,1.488,2.479,3.078 c0.079,1.506-0.63,2.696-2.278,2.732c-1.966,0.045-2.452-1.408-2.492-3.029C292.181,848.289,292.648,847.11,294.514,846.986z"/><path fill="#ebeff0" d="M315.278,819.112c0.012,1.427-1.399,2.73-2.93,2.646 c-1.354-0.072-2.212-0.823-2.334-2.169c-0.121-1.322,1.48-2.718,2.984-2.643C314.33,817.013,315.205,817.669,315.278,819.112z"/><path fill="#ebeff0" d="M283.355,866.151c-0.104-1.652,1.049-3.273,2.437-3.206 c1.333,0.064,2.208,0.805,2.334,2.239c0.141,1.623-0.994,3.088-2.469,3.171C284.399,868.426,283.441,867.509,283.355,866.151z"/><path fill="#ebeff0" d="M270.878,888.533c-1.448-0.31-2.531-1.071-2.41-2.649 c0.107-1.361,1.104-2.037,2.471-1.95c1.569,0.1,2.524,1.045,2.396,2.566C273.227,887.784,272.255,888.527,270.878,888.533z"/><path fill="#c7a300" d="M656.277,268.917c-3.047,0.055-6.027-0.319-8.786-1.686 c-4.048-2.008-4.916-4.484-2.663-8.325c0.76-1.293,0.76-2.047-0.121-3.135c-1.311-1.622-1.984-3.551-0.768-5.428 c1.269-1.958,3.449-2.347,5.623-2.17c1.486,0.119,2.994,0.412,4.407,0.88c6.53,2.165,12.378,5.501,17.124,10.549 c2.211,2.352,2.057,3.636-0.654,5.42C666.157,267.842,661.355,268.916,656.277,268.917z"/><path fill="#000000" d="M751.326,244.416c-1.77,2.312-2.188,4.414-3.104,6.272 c-0.647,1.309-1.501,2.4-3.126,1.829c-1.596-0.561-1.748-1.853-1.248-3.323c1.551-4.58,3.312-9.041,6.926-12.471 c2.263-2.146,4.875-3.543,8.077-3.39c4.091,0.196,6.835,5.07,4.941,8.682c-0.887,1.696-2.972,1.832-3.98,0.188 c-0.376-0.613-0.466-1.409-0.652-2.131c-0.305-1.194-0.908-1.865-2.247-1.411c-1.162,0.394-1.727,1.036-1.261,2.355 c0.973,2.747,1.292,5.55,0.438,8.404c-0.213,0.716-0.349,1.472-0.674,2.132c-0.492,0.993-1.308,1.753-2.493,1.527 c-1.406-0.271-1.933-1.34-1.812-2.694C751.27,248.624,751.889,246.886,751.326,244.416z"/><path fill="#ffd423" d="M586.696,682.202c-0.265,5.483-2.87,10.197-5.954,14.708 c-3.195,4.677-3.271,4.642-8.861,3.027c-5.412-1.563-9.954-4.281-12.719-9.367c-2.641-4.852-2.77-9.735,0.052-14.605 c2.432-4.198,5.897-7.187,10.391-8.96c4.988-1.97,9.011-0.976,12.629,3.015C585.327,673.431,586.484,677.549,586.696,682.202z"/><path fill="#000000" d="M570.467,430.77c-2.707,0-5.414,0.018-8.12-0.008 c-1.335-0.013-2.997,0.194-2.989-1.793c0.008-1.646,1.449-1.649,2.673-1.687c17.689-0.527,34.967-4.071,52.303-7.168 c1.333-0.239,2.683-0.436,4.032-0.52c1.066-0.065,2.213,0.074,2.514,1.377c0.313,1.364-0.742,1.824-1.749,2.212 c-0.417,0.162-0.873,0.232-1.317,0.31C602.094,426.227,586.451,429.475,570.467,430.77z"/><path fill="#000000" d="M610.284,433.525c-0.138,1.426-1.07,1.79-2.202,1.856 c-3.16,0.184-6.283,0.603-9.357,1.355c-4.676,1.146-9.261,2.587-13.669,4.537c-7.287,3.221-14.828,5.784-22.271,8.606 c-1.108,0.42-2.354,1.178-3.101-0.388c-0.695-1.463,0.449-2.167,1.524-2.785c0.261-0.149,0.528-0.299,0.811-0.394 c10.83-3.633,21.012-8.951,31.936-12.319c4.451-1.372,8.988-2.501,13.725-2.234C608.906,431.829,610.127,431.992,610.284,433.525z"/><path fill="#000000" d="M604.969,450.33c1.338,0.144,2.693,0.209,4.012,0.463 c0.789,0.152,1.247,0.825,1.217,1.671c-0.027,0.873-0.623,1.388-1.394,1.534c-0.877,0.168-1.794,0.23-2.688,0.179 c-6.354-0.368-11.761,2.047-16.772,5.646c-0.609,0.438-1.155,0.962-1.771,1.386c-0.561,0.383-1.191,0.272-1.667-0.134 c-0.599-0.51-0.906-1.174-0.563-2.002c0.358-0.872,1-1.494,1.738-2.028C592.42,453.167,598.117,450.26,604.969,450.33z"/><path fill="#000000" d="M656.482,462.176c-0.109,0.323-0.164,0.805-0.407,1.155 c-1.706,2.46-3.569,4.798-5.781,6.825c-0.716,0.653-1.615,0.907-2.427,0.231c-0.851-0.707-0.66-1.693-0.089-2.412 c1.954-2.453,3.977-4.849,6.022-7.226c0.526-0.612,1.283-0.745,2.009-0.252C656.349,460.865,656.477,461.45,656.482,462.176z"/><path fill="#c7a300" d="M449.928,639.969c0.106-1.023,0.104-1.63,0.238-2.207 c0.292-1.247,0.141-3.05,1.524-3.387c1.614-0.393,2.62,1.131,3.403,2.411c1.426,2.334,1.203,5.603-0.434,7.557 c-0.697,0.833-1.516,1.487-2.677,1.194c-0.994-0.251-1.384-1.159-1.573-2.012C450.122,642.226,450.043,640.881,449.928,639.969z"/></svg>